<?xml version="1.0" encoding="UTF-8" standalone="no"?>
<svg
   xmlns:dc="http://purl.org/dc/elements/1.1/"
   xmlns:cc="http://creativecommons.org/ns#"
   xmlns:rdf="http://www.w3.org/1999/02/22-rdf-syntax-ns#"
   xmlns:svg="http://www.w3.org/2000/svg"
   xmlns="http://www.w3.org/2000/svg"
   xmlns:sodipodi="http://sodipodi.sourceforge.net/DTD/sodipodi-0.dtd"
   xmlns:inkscape="http://www.inkscape.org/namespaces/inkscape"
   width="94.614929mm"
   height="83.57209mm"
   viewBox="0 0 94.614929 83.57209"
   version="1.1"
   id="svg1944"
   inkscape:version="1.0.2 (1.0.2+r75+1)"
   sodipodi:docname="contact.svg">
  <defs
     id="defs1938" />
  <sodipodi:namedview
     id="base"
     pagecolor="#ffffff"
     bordercolor="#666666"
     borderopacity="1.0"
     inkscape:pageopacity="0.0"
     inkscape:pageshadow="2"
     inkscape:zoom="0.7"
     inkscape:cx="234.49689"
     inkscape:cy="277.66376"
     inkscape:document-units="mm"
     inkscape:current-layer="layer1"
     inkscape:document-rotation="0"
     showgrid="false"
     showguides="true"
     inkscape:guide-bbox="true"
     inkscape:window-width="1920"
     inkscape:window-height="1056"
     inkscape:window-x="0"
     inkscape:window-y="0"
     inkscape:window-maximized="0" />
  <metadata
     id="metadata1941">
    <rdf:RDF>
      <cc:Work
         rdf:about="">
        <dc:format>image/svg+xml</dc:format>
        <dc:type
           rdf:resource="http://purl.org/dc/dcmitype/StillImage" />
        <dc:title></dc:title>
      </cc:Work>
    </rdf:RDF>
  </metadata>
  <g
     inkscape:label="Layer 1"
     inkscape:groupmode="layer"
     id="layer1"
     transform="translate(-52.803166,-55.547922)">
    <path
       id="path2557"
       style="fill:#85cbf8;fill-opacity:1;stroke:#8d6c9f;stroke-width:4.35041;stroke-linecap:round;stroke-linejoin:round;stroke-miterlimit:4;stroke-dasharray:none;paint-order:markers stroke fill"
       d="m 116.78052,84.531367 c 15.71932,-1e-4 28.4624,9.8561 28.46237,22.014363 0,6.50269 -2.0987,12.67829 -10.15404,16.85553 -1.45125,2.92884 -1.93382,5.52504 1.45462,13.54363 -3.62802,-0.79686 -11.1352,-6.73684 -11.5266,-8.90443 -2.29553,0.51912 -6.04656,0.51959 -8.23635,0.5196 -15.71932,1.2e-4 -28.462403,-9.8561 -28.462353,-22.01433 -5e-5,-12.158263 12.743033,-22.014463 28.462353,-22.014363 z"
       sodipodi:nodetypes="cccccccc" />
    <path
       id="path2559"
       style="fill:#7bbeeb;fill-opacity:1;stroke:none;stroke-width:6.56873;stroke-linecap:round;stroke-linejoin:round;stroke-miterlimit:4;stroke-dasharray:none;paint-order:markers stroke fill"
       d="m 116.82464,84.531537 c -15.71933,-1e-4 -28.462723,9.85588 -28.462673,22.014143 -2e-5,4.34458 1.63371,8.39175 4.44237,11.80374 19.091803,-1.85656 34.177503,-15.17139 35.872423,-31.817793 -3.60951,-1.28094 -7.62082,-2.00013 -11.85212,-2.00009 z" />
    <path
       id="path2529"
       style="fill:#72caaf;fill-opacity:1;stroke:#8d6c9f;stroke-width:5.06367;stroke-linecap:round;stroke-linejoin:round;stroke-miterlimit:4;stroke-dasharray:none;paint-order:markers stroke fill"
       d="m 88.387737,58.079757 c -18.25451,-1.1e-4 -33.052786,11.49849 -33.052736,25.68275 -1.7e-5,7.58628 2.437161,14.79095 11.791656,19.664273 1.68532,3.41691 2.24573,6.44573 -1.689207,15.80051 4.213137,-0.92966 12.931067,-7.85944 13.385587,-10.38825 2.66575,0.60563 7.02174,0.60619 9.5647,0.6062 18.254533,1.4e-4 33.052813,-11.498483 33.052743,-25.682733 7e-5,-14.18426 -14.79821,-25.68286 -33.052743,-25.68275 z"
       sodipodi:nodetypes="cccccccc" />
    <path
       style="fill:none;stroke:#8d6c9f;stroke-width:2.50677;stroke-linecap:round;stroke-linejoin:miter;stroke-miterlimit:4;stroke-dasharray:none;stroke-opacity:1"
       d="m 119.92068,121.52356 c 0,0 8.6511,-0.0672 13.46669,-5.23796"
       id="path2564" />
    <path
       style="fill:none;stroke:#8d6c9f;stroke-width:2.50677;stroke-linecap:round;stroke-linejoin:miter;stroke-miterlimit:4;stroke-dasharray:none;stroke-opacity:1"
       d="m 137.5544,111.28798 c 0,0 1.21832,-1.50971 1.20006,-6.11746"
       id="path2566" />
    <path
       id="path2538"
       style="fill:#5dbc9d;fill-opacity:1;stroke:none;stroke-width:0.442165px;stroke-linecap:butt;stroke-linejoin:miter;stroke-opacity:1"
       d="m 56.475909,77.069127 c -0.739775,2.13456 -1.140833,4.37763 -1.140823,6.6938 -1.8e-5,7.58627 2.43716,14.79095 11.791661,19.664273 0.42744,0.86662 0.78095,1.70863 1.00869,2.63486 l 1.18745,-0.11999 c 0,0 3.1859,-5.69885 -1.82134,-9.282023 -5.007239,-3.58317 -5.912768,-10.99962 -7.110059,-15.32898 -0.704684,-2.54813 -2.529876,-3.72233 -3.915579,-4.26189 z" />
    <path
       id="path2540"
       style="fill:#97e0bb;fill-opacity:1;stroke:none;stroke-width:0.442165px;stroke-linecap:butt;stroke-linejoin:miter;stroke-opacity:1"
       d="m 88.387817,58.080197 c -2.51279,-4e-5 -4.95644,0.22455 -7.30869,0.63733 1.23549,2.62123 3.49931,5.7477 7.23615,5.43121 6.33498,-0.53653 14.578033,2.36143 17.464683,4.6695 2.62024,2.09508 7.41595,1.7581 9.78205,0.32904 -5.96722,-6.68599 -15.909883,-11.06717 -27.174193,-11.06708 z" />
    <path
       style="fill:none;stroke:#8d6b9f;stroke-width:2.50677;stroke-linecap:round;stroke-linejoin:miter;stroke-miterlimit:4;stroke-dasharray:none;stroke-opacity:0.996078"
       d="m 61.356675,85.660347 c 0,0 0.206978,-13.47072 13.924222,-18.45357"
       id="path2534" />
    <path
       style="fill:none;stroke:#8d6b9f;stroke-width:2.50677;stroke-linecap:round;stroke-linejoin:miter;stroke-miterlimit:4;stroke-dasharray:none;stroke-opacity:0.996078"
       d="m 82.051137,65.080667 c 0,0 4.02391,-1.1553 7.82236,-0.58516"
       id="path2536"
       sodipodi:nodetypes="cc" />
    <path
       style="fill:none;stroke:#8d6c9f;stroke-width:2.50677;stroke-linecap:round;stroke-linejoin:miter;stroke-miterlimit:4;stroke-dasharray:none;stroke-opacity:1"
       d="m 110.58627,89.465397 2.52471,1.27573"
       id="path2549"
       sodipodi:nodetypes="cc"
       inkscape:transform-center-x="-20.575356"
       inkscape:transform-center-y="9.4547472" />
    <path
       style="fill:none;stroke:#8d6c9f;stroke-width:2.50677;stroke-linecap:round;stroke-linejoin:miter;stroke-miterlimit:4;stroke-dasharray:none;stroke-opacity:1"
       d="m 106.24654,94.710637 1.98217,2.01808"
       id="path2551"
       sodipodi:nodetypes="cc"
       inkscape:transform-center-x="-16.456"
       inkscape:transform-center-y="15.55435" />
    <path
       style="fill:none;stroke:#8d6c9f;stroke-width:2.50677;stroke-linecap:round;stroke-linejoin:miter;stroke-miterlimit:4;stroke-dasharray:none;stroke-opacity:1"
       d="m 100.41908,98.612267 1.19409,2.564323"
       id="path2553"
       sodipodi:nodetypes="cc"
       inkscape:transform-center-x="-10.314215"
       inkscape:transform-center-y="20.15824" />
    <path
       style="fill:none;stroke:#8d6c9f;stroke-width:2.50677;stroke-linecap:round;stroke-linejoin:miter;stroke-miterlimit:4;stroke-dasharray:none;stroke-opacity:1"
       d="m 93.632597,100.56755 0.20278,2.82143"
       id="path2555"
       sodipodi:nodetypes="cc"
       inkscape:transform-center-x="-2.4607212"
       inkscape:transform-center-y="22.509614" />
  </g>
</svg>
