<?xml version="1.0" encoding="UTF-8" standalone="no"?>
<svg
   xmlns:dc="http://purl.org/dc/elements/1.1/"
   xmlns:cc="http://creativecommons.org/ns#"
   xmlns:rdf="http://www.w3.org/1999/02/22-rdf-syntax-ns#"
   xmlns:svg="http://www.w3.org/2000/svg"
   xmlns="http://www.w3.org/2000/svg"
   xmlns:sodipodi="http://sodipodi.sourceforge.net/DTD/sodipodi-0.dtd"
   xmlns:inkscape="http://www.inkscape.org/namespaces/inkscape"
   width="82.074768mm"
   height="85.026878mm"
   viewBox="0 0 82.074768 85.026878"
   version="1.1"
   id="svg1571"
   inkscape:version="1.0.2 (1.0.2+r75+1)"
   sodipodi:docname="CSS.svg">
  <defs
     id="defs1565">
    <filter
       style="color-interpolation-filters:sRGB"
       inkscape:label="Blur"
       id="filter3001">
      <feGaussianBlur
         stdDeviation="0.1 0.21"
         result="blur"
         id="feGaussianBlur2999" />
    </filter>
  </defs>
  <sodipodi:namedview
     id="base"
     pagecolor="#ffffff"
     bordercolor="#666666"
     borderopacity="1.0"
     inkscape:pageopacity="0.0"
     inkscape:pageshadow="2"
     inkscape:zoom="0.7"
     inkscape:cx="95.339927"
     inkscape:cy="35.702692"
     inkscape:document-units="mm"
     inkscape:current-layer="layer1"
     inkscape:document-rotation="0"
     showgrid="false"
     inkscape:snap-nodes="false"
     inkscape:window-width="1920"
     inkscape:window-height="1056"
     inkscape:window-x="0"
     inkscape:window-y="0"
     inkscape:window-maximized="0" />
  <metadata
     id="metadata1568">
    <rdf:RDF>
      <cc:Work
         rdf:about="">
        <dc:format>image/svg+xml</dc:format>
        <dc:type
           rdf:resource="http://purl.org/dc/dcmitype/StillImage" />
        <dc:title></dc:title>
      </cc:Work>
    </rdf:RDF>
  </metadata>
  <g
     inkscape:label="Layer 1"
     inkscape:groupmode="layer"
     id="layer1"
     transform="translate(-58.565434,-83.63536)">
    <path
       style="fill:#000000;stroke-width:0.264583"
       id="path2827"
       d="" />
    <path
       style="fill:#000000;stroke-width:0.264583"
       id="path2825"
       d="" />
    <g
       id="g3099"
       transform="matrix(2.7862467,0,0,2.7862467,-251.21808,-149.39338)">
      <path
         style="fill:#7bbeeb;fill-opacity:1;stroke:none;stroke-width:0.264583px;stroke-linecap:butt;stroke-linejoin:miter;stroke-opacity:1"
         d="m 126.30478,84.216207 -14.03036,-0.1636 -0.64183,0.948706 3.24611,25.150747 2.13777,1.33071 8.88524,2.33635 z"
         id="path3088" />
      <path
         style="fill:#aae1fd;stroke-width:0.275002"
         d="m 125.63575,113.01519 c 0,-5.85582 0,-14.186504 0,-23.442175 v -1.100009 c 0,-1.599204 0.0138,-2.94534 0,-3.854672 0,-0.543729 0.13933,-0.553203 7.07766,-0.481254 6.48819,0.06728 7.08536,0.113474 7.17022,0.554647 -0.18193,2.027199 -0.1926,2.127306 -0.32494,3.437527 -0.0571,0.565134 -0.60908,5.498928 -1.17524,11.295522 -0.56616,5.796584 -1.16005,10.716154 -1.31975,10.932354 -0.15971,0.2162 -2.57976,1.01561 -5.37791,1.77648 -2.79813,0.76086 -5.30409,1.44938 -5.56878,1.53002 -0.38117,0.11613 -0.48126,-0.0187 -0.48126,-0.64844 z"
         id="path3013"
         sodipodi:nodetypes="ccccscsssssc" />
      <path
         style="fill:#fff8f8;fill-opacity:1;stroke-width:0.264583"
         d="m 117.03951,97.599544 c -0.14562,0 -0.29129,0.17456 -0.40204,0.52348 -0.0952,0.29991 -0.46066,0.67611 -0.81183,0.83612 -0.78227,0.35642 -0.81282,0.64437 -0.093,0.87282 0.29992,0.0952 0.67612,0.460126 0.83612,0.811316 0.35643,0.78226 0.64385,0.81332 0.8723,0.0935 0.0952,-0.29991 0.46066,-0.67664 0.81184,-0.836636 0.35118,-0.16001 0.63872,-0.37145 0.63872,-0.47025 0,-0.0988 -0.28754,-0.31077 -0.63872,-0.47078 -0.35118,-0.16001 -0.71665,-0.53621 -0.81184,-0.83612 -0.11075,-0.34892 -0.2559,-0.52348 -0.40153,-0.52348 z"
         id="path3050" />
      <path
         style="fill:#8c6b9e;stroke-width:0.264583"
         d="m 120.57261,112.83046 c -3.6906,-1.04253 -5.33846,-1.63178 -5.78843,-2.06984 -0.59326,-0.57758 -0.70882,-1.27239 -2.03133,-12.214326 -0.77126,-6.38105 -1.46111,-12.063158 -1.53299,-12.626903 -0.10599,-0.831228 0.0387,-1.522692 0.16146,-1.750089 0.12272,-0.227397 0.61397,-0.560885 0.96515,-0.532211 h 13.5178 13.51781 c 0.94044,0 1.46431,0.352698 1.18151,2.18278 -0.0777,0.47296 -0.61938,5.801021 -1.20366,11.840133 -0.58428,6.039116 -1.18584,11.427176 -1.33681,11.973466 -0.15096,0.54629 -0.55212,1.17517 -0.89146,1.39751 -0.50127,0.32846 -8.12771,2.5384 -10.73822,3.11166 -0.39624,0.087 -2.73018,-0.43913 -5.82083,-1.31218 z m 10.81335,-0.89364 c 2.93049,-0.79282 5.12582,-1.52872 5.41386,-1.81477 0.41297,-0.41014 0.64354,-2.06995 1.56157,-11.241676 1.01696,-10.159992 1.05141,-10.77927 0.61727,-11.096714 -0.62029,-0.453575 -0.47839,-1.91319 0.18092,-1.860864 0.32202,0.02556 0.46303,-0.15574 0.46303,-0.595312 0,-0.376938 -0.13072,-0.636557 -0.84824,-0.636557 -0.70831,0 -12.9101,0 -12.9101,0 0,0 -12.57561,0 -13.13781,0 -0.56221,0 -0.62118,0.232715 -0.62118,0.515806 0,0.196049 0.14167,0.74162 0.46368,0.716063 0.63227,-0.05018 0.8055,1.40416 0.21839,1.833468 -0.38312,0.280141 -0.30036,1.311249 0.89141,11.10627 1.08201,8.892906 1.39751,10.879576 1.78869,11.263076 0.4997,0.48988 8.92621,3.05222 10.22998,3.11073 0.41756,0.0187 2.9774,-0.56604 5.68853,-1.29952 z M 114.86328,87.514793 c -0.25392,-0.661713 -0.006,-1.628744 0.41766,-1.628744 0.27534,0 0.39687,0.276832 0.39687,0.903993 0,0.938137 -0.54616,1.424102 -0.81453,0.724751 z m 2.64583,0 c -0.25392,-0.661713 -0.006,-1.628744 0.41766,-1.628744 0.27534,0 0.39688,0.276832 0.39688,0.903993 0,0.938137 -0.54617,1.424102 -0.81454,0.724751 z m 2.64584,0 c -0.25393,-0.661713 -0.006,-1.628744 0.41766,-1.628744 0.27533,0 0.39687,0.276832 0.39687,0.903993 0,0.938137 -0.54617,1.424102 -0.81453,0.724751 z m 2.64583,0 c -0.25392,-0.661713 -0.006,-1.628744 0.41766,-1.628744 0.27534,0 0.39687,0.276832 0.39687,0.903993 0,0.938137 -0.54616,1.424102 -0.81453,0.724751 z m 2.64583,0 c -0.25392,-0.661713 -0.006,-1.628744 0.41766,-1.628744 0.27534,0 0.39688,0.276832 0.39688,0.903993 0,0.938137 -0.54617,1.424102 -0.81454,0.724751 z m 2.64584,0 c -0.25393,-0.661713 -0.006,-1.628744 0.41766,-1.628744 0.27533,0 0.39687,0.276832 0.39687,0.903993 0,0.938137 -0.54617,1.424102 -0.81453,0.724751 z m 2.64583,0 c -0.25392,-0.661713 -0.006,-1.628744 0.41767,-1.628744 0.27533,0 0.39686,0.276832 0.39686,0.903993 0,0.938137 -0.54615,1.424102 -0.81453,0.724751 z m 2.64583,0 c -0.25392,-0.661713 -0.006,-1.628744 0.41766,-1.628744 0.27534,0 0.39689,0.276832 0.39689,0.903993 0,0.938137 -0.54619,1.424102 -0.81455,0.724751 z m 2.64584,0 c -0.25392,-0.661713 -0.006,-1.628744 0.41767,-1.628744 0.27533,0 0.39687,0.276832 0.39687,0.903993 0,0.938137 -0.54617,1.424102 -0.81454,0.724751 z"
         id="path3005"
         sodipodi:nodetypes="sssszccccssssssssssssczssssscsssssssssssssssssssssssssssssssssssss" />
      <path
         style="fill:#f8eddc;stroke:#8d6c9f;stroke-width:2.265;stroke-linejoin:round;stroke-miterlimit:4;stroke-dasharray:none;stroke-opacity:1;paint-order:markers stroke fill"
         d="m 123.35056,107.07017 c -2.67137,-0.91092 -2.68584,-0.92053 -2.85332,-1.8947 -0.0926,-0.53852 -0.23326,-1.30656 -0.3126,-1.70674 -0.13795,-0.69575 -0.0983,-0.72761 0.90564,-0.72761 0.98573,0 1.06029,0.0553 1.21966,0.90483 0.15933,0.84934 0.28688,0.94404 2.07996,1.54433 l 1.91022,0.63951 2.03479,-0.62147 2.03479,-0.62146 0.1669,-1.12131 c 0.0918,-0.61671 0.18818,-1.71661 0.21418,-2.44422 l 0.0473,-1.322911 -3.90261,-0.0732 -3.90261,-0.0732 v -1.05126 -1.051265 h 4.096 c 4.67102,0 4.28495,0.230596 4.42973,-2.645833 l 0.0732,-1.455208 -6.54845,-0.07077 -6.68602,-0.03743 c 0,-0.579712 -0.001,-1.56312 0,-2.09467 0,0 0.75543,0.04067 7.79418,0 l 7.97781,-0.04609 -0.14144,0.859895 c -0.0778,0.472943 -0.44234,3.479271 -0.81011,6.680731 -0.36777,3.201451 -0.73012,6.199741 -0.80523,6.662861 -0.13187,0.81312 -0.22938,0.87044 -2.8399,1.66938 -1.48685,0.45504 -2.88194,0.8692 -3.10022,0.92037 -0.21829,0.0512 -1.60512,-0.31898 -3.08186,-0.82253 z"
         id="path3015"
         sodipodi:nodetypes="sssssscccsscccccscccccscsssssss" />
      <path
         style="fill:#fff8f8;fill-opacity:1;stroke-width:0.164899"
         d="m 133.99079,106.65922 c -0.0879,0 -0.17588,0.11229 -0.24276,0.33675 -0.0575,0.19292 -0.27815,0.43493 -0.4902,0.53786 -0.47235,0.22928 -0.4908,0.41451 -0.0562,0.56147 0.18109,0.0612 0.40825,0.29599 0.50486,0.52191 0.21523,0.50321 0.38878,0.52319 0.52672,0.0601 0.0575,-0.19292 0.27816,-0.43527 0.49021,-0.53819 0.21205,-0.10293 0.38567,-0.23895 0.38567,-0.3025 0,-0.0636 -0.17362,-0.19992 -0.38567,-0.30285 -0.21205,-0.10293 -0.43273,-0.34494 -0.49021,-0.53786 -0.0669,-0.22446 -0.15452,-0.33675 -0.24245,-0.33675 z"
         id="path3080" />
      <path
         style="fill:#fff8f8;fill-opacity:1;stroke-width:0.0920245"
         d="m 136.67713,93.889105 c -0.0484,0 -0.0969,0.06351 -0.13368,0.190447 -0.0317,0.109104 -0.15318,0.245972 -0.26995,0.304183 -0.26012,0.129668 -0.27028,0.234424 -0.031,0.317536 0.0997,0.03461 0.22482,0.167395 0.27802,0.295163 0.11853,0.284587 0.2141,0.295887 0.29006,0.03399 0.0317,-0.109105 0.15318,-0.246164 0.26995,-0.30437 0.11677,-0.05821 0.21238,-0.135137 0.21238,-0.171077 0,-0.03597 -0.0956,-0.113063 -0.21238,-0.171275 -0.11677,-0.05821 -0.2383,-0.195078 -0.26995,-0.304183 -0.0368,-0.126942 -0.0851,-0.190447 -0.13351,-0.190447 z"
         id="path3082" />
      <path
         style="fill:none;stroke:#8d6c9f;stroke-width:1.165;stroke-linecap:round;stroke-linejoin:round;stroke-miterlimit:4;stroke-dasharray:none;stroke-opacity:1"
         d="m 123.09828,110.54257 2.64326,0.76598 2.01606,-0.67419"
         id="path3084" />
      <path
         style="fill:none;stroke:#8d6c9f;stroke-width:1.165;stroke-linecap:round;stroke-linejoin:round;stroke-miterlimit:4;stroke-dasharray:none;stroke-opacity:1"
         d="m 130.14105,110.01567 1.01329,-0.35974"
         id="path3086" />
    </g>
  </g>
</svg>
