<?xml version="1.0" encoding="UTF-8" standalone="no"?>
<svg
   xmlns:dc="http://purl.org/dc/elements/1.1/"
   xmlns:cc="http://creativecommons.org/ns#"
   xmlns:rdf="http://www.w3.org/1999/02/22-rdf-syntax-ns#"
   xmlns:svg="http://www.w3.org/2000/svg"
   xmlns="http://www.w3.org/2000/svg"
   xmlns:sodipodi="http://sodipodi.sourceforge.net/DTD/sodipodi-0.dtd"
   xmlns:inkscape="http://www.inkscape.org/namespaces/inkscape"
   width="61.123238mm"
   height="58.792561mm"
   viewBox="0 0 61.123238 58.792561"
   version="1.1"
   id="svg899"
   inkscape:version="1.0.2 (1.0.2+r75+1)"
   sodipodi:docname="inkscape.svg">
  <defs
     id="defs893" />
  <sodipodi:namedview
     id="base"
     pagecolor="#ffffff"
     bordercolor="#666666"
     borderopacity="1.0"
     inkscape:pageopacity="0.0"
     inkscape:pageshadow="2"
     inkscape:zoom="0.70710678"
     inkscape:cx="8.3472967"
     inkscape:cy="253.62444"
     inkscape:document-units="mm"
     inkscape:current-layer="layer1"
     inkscape:document-rotation="0"
     showgrid="false"
     showguides="true"
     inkscape:guide-bbox="true"
     inkscape:snap-nodes="false"
     inkscape:window-width="1920"
     inkscape:window-height="1056"
     inkscape:window-x="0"
     inkscape:window-y="0"
     inkscape:window-maximized="0" />
  <metadata
     id="metadata896">
    <rdf:RDF>
      <cc:Work
         rdf:about="">
        <dc:format>image/svg+xml</dc:format>
        <dc:type
           rdf:resource="http://purl.org/dc/dcmitype/StillImage" />
        <dc:title></dc:title>
      </cc:Work>
    </rdf:RDF>
  </metadata>
  <g
     inkscape:label="Layer 1"
     inkscape:groupmode="layer"
     id="layer1"
     transform="translate(-67.765308,-83.582056)">
    <g
       id="g1510"
       transform="matrix(2.2762956,0,0,2.2762956,-171.67035,-191.96778)">
      <path
         style="fill:#c2cde7;fill-opacity:1;stroke:none;stroke-width:0.264583px;stroke-linecap:butt;stroke-linejoin:miter;stroke-opacity:1"
         d="m 128.59214,139.96182 -0.52594,1.13214 2.32312,0.54124 1.18847,-0.58594 -0.53205,-0.91385 -1.34358,-0.47571 z"
         id="path1541" />
      <path
         style="fill:#c2cde7;fill-opacity:1;stroke:none;stroke-width:0.264583px;stroke-linecap:butt;stroke-linejoin:miter;stroke-opacity:1"
         d="m 127.00156,142.83006 0.7523,0.42644 0.54153,0.49995 -0.0603,0.79344 -1.13611,0.0923 -0.62531,-0.45145 0.0287,-0.8554 z"
         id="path1543" />
      <path
         style="fill:#c2cde7;fill-opacity:1;stroke:none;stroke-width:0.264583px;stroke-linecap:butt;stroke-linejoin:miter;stroke-opacity:1"
         d="m 110.70398,142.27982 -1.55496,0.43749 -0.17094,0.82986 0.27956,0.95563 0.74887,0.32738 0.8494,-0.39875 0.63331,-0.83934 0.2604,-0.7534 -0.381,-0.39973 z"
         id="path1545" />
      <path
         style="fill:#c2cde7;fill-opacity:1;stroke-width:0.264583"
         d="m 117.107,145.14721 c -0.32155,-0.77631 -1.23227,-1.35724 -2.12772,-1.35724 -0.73417,0 -0.87667,-0.42605 -0.39063,-1.16785 0.86321,-1.31742 0.49219,-1.78053 -2.32451,-2.90147 -1.41883,-0.56464 -2.57937,-1.10042 -2.57897,-1.19063 3.9e-4,-0.0902 0.44547,-0.40213 0.98906,-0.69317 1.04129,-0.55751 1.4219,-1.36869 0.82219,-1.7523 -0.19622,-0.12551 -1.30926,-0.52572 -2.47343,-0.88934 -2.66706,-0.83306 -2.89033,-0.97927 -2.69027,-1.76173 0.13517,-0.40098 3.80581,-4.50411 4.28946,-4.46017 h 2.04755 2.04756 l 0.7137,-1.45521 c 0.66664,-1.35926 1.13263,-1.83865 1.13263,-1.1652 0,0.1595 0.18639,0.93118 0.41421,1.71485 l 0.41421,1.42484 1.57171,-0.7934 1.57171,-0.7934 1.03139,0.52618 c 1.1052,0.56383 1.34677,0.42143 1.34677,-0.79391 0,-0.27402 0.2198,-0.61585 0.48844,-0.75963 0.4141,-0.22161 0.99807,0.25365 3.83646,3.12228 3.76708,3.80723 4.01406,4.33863 2.46221,5.29773 -0.48719,0.3011 -1.69228,0.85101 -2.67796,1.22202 -4.09859,1.54271 -4.55872,2.12354 -2.62769,3.31699 4.15396,2.07239 -6.05811,2.65441 -3.71041,4.76288 0.36788,0.30531 0.31344,0.40113 -0.46302,0.81506 -0.48395,0.25799 -1.31195,0.47406 -1.83999,0.48016 -0.81249,0.009 -1.00845,-0.10567 -1.27466,-0.74834 z m 2.89059,-4.92621 c 1.79148,-0.92641 1.14977,-2.45371 -1.37317,-3.26823 -2.27437,-0.73427 -4.59938,-1.17 -5.20959,-0.97633 -0.60121,0.19082 -0.89084,0.82341 -0.68046,1.48624 0.18697,0.58911 2.15201,1.82087 4.09383,2.56618 1.76076,0.67581 2.1844,0.7015 3.16939,0.19214 z"
         id="path1514"
         sodipodi:nodetypes="ssssssssccccssscccssssssccscsssssss" />
      <path
         id="path1536"
         style="fill:#d5dbf0;fill-opacity:1;stroke-width:0.999999"
         d="m 447.81055,463.62305 c -0.23109,0.01 -0.43522,0.075 -0.63086,0.17968 -1.01533,0.54342 -1.84766,1.83543 -1.84766,2.8711 0,2.5565 -0.28491,3.85353 -1.25586,4.13672 2.29778,6.02904 9.05474,24.66513 5.43164,27.32617 -2.9875,2.19422 -2.55932,6.37267 -2.02539,8.73828 1.55706,-1.80564 5.82035,-3.78508 13.38086,-6.63086 3.72541,-1.40224 8.27975,-3.48112 10.1211,-4.61914 5.86525,-3.62494 4.93309,-5.63195 -9.30469,-20.02148 -9.3868,-9.48681 -12.25152,-12.04954 -13.86914,-11.98047 z"
         transform="matrix(0.26458333,0,0,0.26458333,5.0859735,4.1641331)" />
      <path
         style="fill:#8d6c9f;fill-opacity:1;stroke-width:0.264583"
         d="m 116.99053,146.28544 c -0.34725,-0.38693 -0.82349,-0.92811 -1.0583,-1.20262 -0.23482,-0.2745 -0.7246,-0.4991 -1.0884,-0.4991 -0.3638,0 -0.89689,-0.23542 -1.18463,-0.52316 -0.55421,-0.55422 -0.49296,-1.10889 0.21318,-1.93049 0.53611,-0.62377 0.31362,-0.79434 -2.1802,-1.67153 -1.15132,-0.40498 -2.39761,-0.99806 -2.76953,-1.31797 -0.59327,-0.51031 -0.6309,-0.63625 -0.30679,-1.02677 0.20317,-0.24482 0.78927,-0.66052 1.30243,-0.92379 l 0.93302,-0.47866 -2.29989,-0.70151 c -2.28764,-0.69778 -3.36488,-1.42905 -3.36488,-2.28423 0,-0.77641 1.41764,-2.39516 6.51816,-7.44284 5.44113,-5.38476 5.92886,-5.69218 7.79271,-4.91193 1.0826,0.4532 10.99565,10.37009 11.7138,11.71835 0.40739,0.76482 0.43947,1.04887 0.18583,1.6454 -0.43594,1.02527 -1.32935,1.5962 -4.20164,2.68504 -1.38654,0.52561 -2.56271,1.08082 -2.6137,1.2338 -0.051,0.15297 0.2169,0.44383 0.5953,0.64634 1.83112,0.97999 1.20773,2.45517 -1.35892,3.21576 -0.86125,0.25521 -1.83504,0.60762 -2.16397,0.78312 l -0.59806,0.31909 0.57075,0.60753 c 0.48478,0.51602 0.51774,0.67137 0.21887,1.03149 -0.48844,0.58855 -2.04717,1.33721 -3.23156,1.55214 -0.86004,0.15607 -1.07633,0.0863 -1.62358,-0.52346 z m 3.23112,-0.87005 c 0.77646,-0.41393 0.8309,-0.50975 0.46302,-0.81506 -0.99665,-0.82715 -0.22917,-1.88403 1.85401,-2.55313 3.15033,-1.01186 3.37053,-1.27397 1.8564,-2.20975 -1.93103,-1.19345 -1.4709,-1.77428 2.62769,-3.31699 0.98568,-0.37101 2.19077,-0.92092 2.67796,-1.22202 1.67733,-1.03665 1.48026,-1.35137 -4.74343,-7.57506 -5.41382,-5.41382 -5.66892,-5.62924 -6.66601,-5.62924 -0.99461,0 -1.25562,0.21784 -6.41982,5.35781 -2.96068,2.9468 -5.45396,5.63848 -5.54064,5.98153 -0.19767,0.78237 0.0266,0.92915 2.69216,1.76173 1.16417,0.36362 2.27721,0.76383 2.47343,0.88934 0.59971,0.38361 0.2191,1.19479 -0.82219,1.7523 -0.54359,0.29104 -0.98867,0.60297 -0.98906,0.69317 -4e-4,0.0902 1.16014,0.62599 2.57897,1.19063 2.8167,1.12094 3.18772,1.58405 2.32451,2.90147 -0.48604,0.7418 -0.34354,1.16785 0.39063,1.16785 0.89545,0 1.80617,0.58093 2.12772,1.35724 0.26621,0.64267 0.46217,0.75772 1.27466,0.74834 0.52804,-0.006 1.35604,-0.22217 1.83999,-0.48016 z m -3.39345,-5.38653 c -1.94182,-0.74531 -3.90686,-1.97707 -4.09383,-2.56618 -0.21038,-0.66283 0.0793,-1.29542 0.68046,-1.48624 0.61021,-0.19367 2.93522,0.24206 5.20959,0.97633 2.52294,0.81452 3.16465,2.34182 1.37317,3.26823 -0.98499,0.50936 -1.40863,0.48367 -3.16939,-0.19214 z m 3.04271,-1.13368 c 0,-0.41626 -0.36937,-0.65269 -1.73115,-1.1081 -1.97022,-0.65888 -4.48817,-1.05872 -4.48328,-0.71192 0.002,0.12788 0.42192,0.50374 0.93361,0.83523 2.43123,1.57504 5.28082,2.10645 5.28082,0.98479 z m -10.71182,6.00941 c -0.65749,-0.53241 -0.79654,-1.66886 -0.2803,-2.29089 0.55194,-0.66504 2.01748,-1.01775 2.71094,-0.65245 0.88192,0.4646 1.01013,0.78701 0.61603,1.54912 -0.78979,1.52729 -2.12676,2.13911 -3.04667,1.39422 z m 1.95014,-1.2376 c 0.57215,-0.8732 0.54995,-0.93535 -0.33405,-0.93535 -0.86286,0 -1.48994,0.59045 -1.26092,1.18726 0.23589,0.61473 1.11846,0.47534 1.59497,-0.25191 z m 15.36424,1.06105 c -0.71065,-0.71065 -0.7081,-1.46262 0.008,-2.21864 0.27992,-0.29573 0.47458,-0.28266 1.17359,0.0788 0.99724,0.51569 1.54208,1.65644 1.02459,2.14522 -0.74419,0.70291 -1.49925,0.70107 -2.20571,-0.005 z m 1.46723,-0.62057 c 0,-0.11641 -0.14287,-0.35454 -0.3175,-0.52916 -0.46646,-0.46646 -0.74083,-0.38807 -0.74083,0.21166 0,0.35278 0.17639,0.52917 0.52917,0.52917 0.29104,0 0.52916,-0.0952 0.52916,-0.21167 z m 0.60834,-2.19763 c -1.10909,-0.32075 -1.24207,-0.58978 -0.75604,-1.52964 0.79118,-1.52999 3.04138,-1.6381 3.98913,-0.19165 0.56543,0.86296 0.17353,1.62103 -0.95469,1.84668 -1.00293,0.20058 -1.18606,0.19051 -2.2784,-0.12539 z m 2.56666,-0.97737 c 0,-0.76296 -1.70666,-1.15084 -2.32833,-0.52916 -0.57017,0.57017 -0.33856,0.74083 1.00542,0.74083 0.7276,0 1.32291,-0.0952 1.32291,-0.21167 z"
         id="path1512" />
      <ellipse
         style="fill:#8d6c9f;fill-opacity:1;stroke:none;stroke-width:2.17707;stroke-linecap:round;paint-order:markers stroke fill"
         id="path1520"
         cx="168.39896"
         cy="35.570969"
         rx="0.61588293"
         ry="1.2184153"
         transform="rotate(38.546069)"
         inkscape:transform-center-x="8.6897888"
         inkscape:transform-center-y="11.072962" />
      <ellipse
         style="fill:#8d6c9f;fill-opacity:1;stroke:none;stroke-width:2.17707;stroke-linecap:round;paint-order:markers stroke fill"
         id="ellipse1522"
         cx="19.189569"
         cy="183.42607"
         rx="0.61588293"
         ry="1.2184153"
         transform="rotate(-37.706629)"
         inkscape:transform-center-x="-8.690712"
         inkscape:transform-center-y="11.072229" />
      <ellipse
         style="fill:#8d6c9f;fill-opacity:1;stroke:none;stroke-width:2.17707;stroke-linecap:round;paint-order:markers stroke fill"
         id="ellipse1524"
         cx="59.366547"
         cy="173.38339"
         rx="0.61588293"
         ry="1.2184153"
         transform="rotate(-23.75237)"
         inkscape:transform-center-x="-5.7642023"
         inkscape:transform-center-y="12.841216" />
      <ellipse
         style="fill:#8d6c9f;fill-opacity:1;stroke:none;stroke-width:2.17707;stroke-linecap:round;paint-order:markers stroke fill"
         id="ellipse1532"
         cx="162.95331"
         cy="62.08667"
         rx="0.61588293"
         ry="1.2184153"
         transform="rotate(29.239107)"
         inkscape:transform-center-x="6.7846257"
         inkscape:transform-center-y="12.332544" />
    </g>
  </g>
</svg>
