<?xml version="1.0" encoding="UTF-8" standalone="no"?>
<svg
   xmlns:dc="http://purl.org/dc/elements/1.1/"
   xmlns:cc="http://creativecommons.org/ns#"
   xmlns:rdf="http://www.w3.org/1999/02/22-rdf-syntax-ns#"
   xmlns:svg="http://www.w3.org/2000/svg"
   xmlns="http://www.w3.org/2000/svg"
   xmlns:sodipodi="http://sodipodi.sourceforge.net/DTD/sodipodi-0.dtd"
   xmlns:inkscape="http://www.inkscape.org/namespaces/inkscape"
   width="66.670059mm"
   height="68.48291mm"
   viewBox="0 0 66.670059 68.48291"
   version="1.1"
   id="svg1831"
   inkscape:version="1.0.2 (1.0.2+r75+1)"
   sodipodi:docname="js.svg">
  <defs
     id="defs1825" />
  <sodipodi:namedview
     id="base"
     pagecolor="#ffffff"
     bordercolor="#666666"
     borderopacity="1.0"
     inkscape:pageopacity="0.0"
     inkscape:pageshadow="2"
     inkscape:zoom="0.7"
     inkscape:cx="171.11384"
     inkscape:cy="65.382584"
     inkscape:document-units="mm"
     inkscape:current-layer="layer1"
     inkscape:document-rotation="0"
     showgrid="false"
     showguides="true"
     inkscape:guide-bbox="true"
     inkscape:window-width="1920"
     inkscape:window-height="1056"
     inkscape:window-x="0"
     inkscape:window-y="0"
     inkscape:window-maximized="0" />
  <metadata
     id="metadata1828">
    <rdf:RDF>
      <cc:Work
         rdf:about="">
        <dc:format>image/svg+xml</dc:format>
        <dc:type
           rdf:resource="http://purl.org/dc/dcmitype/StillImage" />
        <dc:title></dc:title>
      </cc:Work>
    </rdf:RDF>
  </metadata>
  <g
     inkscape:label="Layer 1"
     inkscape:groupmode="layer"
     id="layer1"
     transform="translate(-36.824951,-71.238327)">
    <g
       id="g2470">
      <path
         id="path2412"
         style="fill:#f6d397;fill-opacity:1;stroke:#8d6c9f;stroke-width:5.0321;stroke-linecap:butt;stroke-linejoin:round;stroke-miterlimit:4;stroke-dasharray:none;stroke-opacity:1;paint-order:markers stroke fill"
         d="m 41.571847,73.75438 c -1.416702,-0.0017 -2.402297,0.731183 -2.212111,2.528257 1.355245,12.805883 4.418333,35.257613 6.160264,51.627573 0.161527,1.51807 1.043349,2.67072 2.83001,3.23357 7.234339,2.27889 11.964359,3.99731 18.535766,5.58715 1.689411,0.40871 2.009931,0.47426 3.274188,0.47426 1.264256,0 1.585875,-0.0652 3.275289,-0.47426 6.571407,-1.58984 11.301427,-3.30826 18.535764,-5.58715 1.786659,-0.56285 2.667381,-1.7155 2.828904,-3.23357 1.741938,-16.36996 4.805026,-38.82169 6.160269,-51.627573 0.1902,-1.797074 -0.79431,-2.529941 -2.211008,-2.528257 l -28.589218,0.03426 z" />
      <path
         style="fill:#f9e3ae;fill-opacity:1;stroke:none;stroke-width:0.590949px;stroke-linecap:butt;stroke-linejoin:miter;stroke-opacity:1"
         d="m 70.02831,78.960084 0.308642,53.988566 18.914457,-5.39138 c 0,0 2.610715,-1.18823 2.816308,-3.94284 0.205594,-2.75459 4.245966,-41.765442 4.245966,-41.765442 0,0 0.182702,-3.101293 -2.656939,-3.040135 -2.839708,0.06115 -23.628434,0.151231 -23.628434,0.151231 z"
         id="path2417" />
      <path
         style="fill:#faefde;fill-opacity:1;stroke:#8d6c9f;stroke-width:4.83555;stroke-linecap:butt;stroke-linejoin:round;stroke-miterlimit:4;stroke-dasharray:none;stroke-opacity:1;paint-order:markers stroke fill"
         d="m 61.84683,90.557348 0.0224,27.541652 c 0,0 -0.236917,2.44882 -3.011545,1.75319 -2.774633,-0.69562 -7.690731,-2.03573 -7.690731,-2.03573 l 0.345877,4.40888 13.735616,4.22369 -0.01697,-35.987267 z"
         id="path2419" />
      <path
         style="fill:#faefde;fill-opacity:1;stroke:#8d6c9f;stroke-width:4.6122;stroke-linecap:butt;stroke-linejoin:round;stroke-miterlimit:4;stroke-dasharray:none;stroke-opacity:1;paint-order:markers stroke fill"
         d="m 74.671933,90.10236 0.08157,23.29854 8.579837,-1.5994 c 0,0 1.984937,-0.63737 1.984937,2.1366 v 3.55222 c 0,0 -0.06752,1.8351 -2.2679,2.18328 -2.20039,0.34816 -8.43319,2.06667 -8.43319,2.06667 v 4.82371 l 13.108305,-3.87625 0.819038,-15.70976 -8.775107,1.17733 c 0,0 -1.519449,0.26 -1.525678,-1.09062 -0.0063,-1.35061 0,-11.469552 0,-11.469552 0,0 -0.369492,-1.531585 1.625543,-1.61264 1.995041,-0.08108 10.307009,0.131554 10.307009,0.131554 l 0.01675,-3.774215 z"
         id="path2423"
         sodipodi:nodetypes="cccscscccccscsccc" />
      <ellipse
         style="fill:#8d6c9f;fill-opacity:1;stroke:none;stroke-width:4.6122;stroke-linejoin:round;stroke-miterlimit:4;stroke-dasharray:none;stroke-opacity:1;paint-order:markers stroke fill"
         id="path2433"
         cx="46.592548"
         cy="78.597954"
         rx="1.3431362"
         ry="2.4624124" />
      <ellipse
         style="fill:#8d6c9f;fill-opacity:1;stroke:none;stroke-width:4.6122;stroke-linejoin:round;stroke-miterlimit:4;stroke-dasharray:none;stroke-opacity:1;paint-order:markers stroke fill"
         id="ellipse2435"
         cx="52.466278"
         cy="78.597954"
         rx="1.3431362"
         ry="2.4624124" />
      <ellipse
         style="fill:#8d6c9f;fill-opacity:1;stroke:none;stroke-width:4.6122;stroke-linejoin:round;stroke-miterlimit:4;stroke-dasharray:none;stroke-opacity:1;paint-order:markers stroke fill"
         id="ellipse2437"
         cx="58.340004"
         cy="78.597954"
         rx="1.3431362"
         ry="2.4624124" />
      <ellipse
         style="fill:#8d6c9f;fill-opacity:1;stroke:none;stroke-width:4.6122;stroke-linejoin:round;stroke-miterlimit:4;stroke-dasharray:none;stroke-opacity:1;paint-order:markers stroke fill"
         id="ellipse2439"
         cx="64.213737"
         cy="78.597954"
         rx="1.3431362"
         ry="2.4624124" />
      <ellipse
         style="fill:#8d6c9f;fill-opacity:1;stroke:none;stroke-width:4.6122;stroke-linejoin:round;stroke-miterlimit:4;stroke-dasharray:none;stroke-opacity:1;paint-order:markers stroke fill"
         id="ellipse2441"
         cx="70.087456"
         cy="78.597954"
         rx="1.3431362"
         ry="2.4624124" />
      <ellipse
         style="fill:#8d6c9f;fill-opacity:1;stroke:none;stroke-width:4.6122;stroke-linejoin:round;stroke-miterlimit:4;stroke-dasharray:none;stroke-opacity:1;paint-order:markers stroke fill"
         id="ellipse2443"
         cx="75.961159"
         cy="78.597954"
         rx="1.3431362"
         ry="2.4624124" />
      <ellipse
         style="fill:#8d6c9f;fill-opacity:1;stroke:none;stroke-width:4.6122;stroke-linejoin:round;stroke-miterlimit:4;stroke-dasharray:none;stroke-opacity:1;paint-order:markers stroke fill"
         id="ellipse2445"
         cx="81.834877"
         cy="78.597954"
         rx="1.3431362"
         ry="2.4624124" />
      <ellipse
         style="fill:#8d6c9f;fill-opacity:1;stroke:none;stroke-width:4.6122;stroke-linejoin:round;stroke-miterlimit:4;stroke-dasharray:none;stroke-opacity:1;paint-order:markers stroke fill"
         id="ellipse2447"
         cx="87.708595"
         cy="78.597954"
         rx="1.3431362"
         ry="2.4624124" />
      <ellipse
         style="fill:#8d6c9f;fill-opacity:1;stroke:none;stroke-width:4.6122;stroke-linejoin:round;stroke-miterlimit:4;stroke-dasharray:none;stroke-opacity:1;paint-order:markers stroke fill"
         id="ellipse2449"
         cx="93.582314"
         cy="78.597954"
         rx="1.3431362"
         ry="2.4624124" />
      <ellipse
         style="fill:#8d6c9f;fill-opacity:1;stroke:none;stroke-width:4.6122;stroke-linejoin:round;stroke-miterlimit:4;stroke-dasharray:none;stroke-opacity:1;paint-order:markers stroke fill"
         id="ellipse2451"
         cx="99.456032"
         cy="78.597954"
         rx="1.3431362"
         ry="2.4624124" />
      <ellipse
         style="fill:#8d6c9f;fill-opacity:1;stroke:none;stroke-width:4.6122;stroke-linejoin:round;stroke-miterlimit:4;stroke-dasharray:none;stroke-opacity:1;paint-order:markers stroke fill"
         id="ellipse2453"
         cx="40.71883"
         cy="78.597954"
         rx="1.3431362"
         ry="2.4624124" />
    </g>
  </g>
</svg>
