<?xml version="1.0" encoding="UTF-8" standalone="no"?>
<svg
   xmlns:dc="http://purl.org/dc/elements/1.1/"
   xmlns:cc="http://creativecommons.org/ns#"
   xmlns:rdf="http://www.w3.org/1999/02/22-rdf-syntax-ns#"
   xmlns:svg="http://www.w3.org/2000/svg"
   xmlns="http://www.w3.org/2000/svg"
   xmlns:sodipodi="http://sodipodi.sourceforge.net/DTD/sodipodi-0.dtd"
   xmlns:inkscape="http://www.inkscape.org/namespaces/inkscape"
   width="14.369148mm"
   height="24.624853mm"
   viewBox="0 0 14.369148 24.624853"
   version="1.1"
   id="svg8"
   sodipodi:docname="Logo.svg"
   inkscape:version="1.0.2 (1.0.2+r75+1)">
  <defs
     id="defs2" />
  <sodipodi:namedview
     id="base"
     pagecolor="#ffffff"
     bordercolor="#666666"
     borderopacity="1.0"
     inkscape:pageopacity="0.0"
     inkscape:pageshadow="2"
     inkscape:zoom="2.8284272"
     inkscape:cx="-22.873568"
     inkscape:cy="41.906437"
     inkscape:document-units="mm"
     inkscape:current-layer="layer1"
     inkscape:document-rotation="0"
     showgrid="false"
     inkscape:window-width="1920"
     inkscape:window-height="1056"
     inkscape:window-x="0"
     inkscape:window-y="0"
     inkscape:window-maximized="0"
     showguides="true"
     inkscape:guide-bbox="true">
    <sodipodi:guide
       position="-44.601135,19.580555"
       orientation="1,0"
       id="guide884" />
  </sodipodi:namedview>
  <metadata
     id="metadata5">
    <rdf:RDF>
      <cc:Work
         rdf:about="">
        <dc:format>image/svg+xml</dc:format>
        <dc:type
           rdf:resource="http://purl.org/dc/dcmitype/StillImage" />
      </cc:Work>
    </rdf:RDF>
  </metadata>
  <g
     inkscape:label="Layer 1"
     inkscape:groupmode="layer"
     id="layer1"
     transform="translate(-115.30148,-64.382632)">
    <text
       xml:space="preserve"
       style="font-weight:800;font-size:25.4px;line-height:1.25;font-family:Inter;-inkscape-font-specification:'Inter Ultra-Bold';stroke-width:0.264583"
       x="3.483851"
       y="140.27731"
       id="text835"><tspan
         sodipodi:role="line"
         id="tspan833"
         x="3.483851"
         y="140.27731"
         style="stroke-width:0.264583">JP</tspan></text>
    <path
       d="M 66.237369,81.69017 V 63.217443 h 7.630824 q 2.074574,0 3.580895,0.81179 1.515341,0.80277 2.33615,2.245952 0.82081,1.434162 0.82081,3.337358 0,1.912216 -0.838849,3.346377 -0.82983,1.425142 -2.372231,2.209873 -1.5424,0.78473 -3.662073,0.78473 h -4.708381 v -3.517756 h 3.878551 q 1.010227,0 1.686719,-0.351776 0.685511,-0.351775 1.037287,-0.983167 0.351775,-0.640412 0.351775,-1.488281 0,-0.85689 -0.351775,-1.479262 -0.351776,-0.631392 -1.037287,-0.974147 -0.685512,-0.342756 -1.686719,-0.342756 H 70.702213 V 81.69017 Z"
       id="path905"
       style="font-weight:800;font-size:25.4px;line-height:1.25;font-family:Inter;-inkscape-font-specification:'Inter Ultra-Bold';stroke-width:0.264583" />
    <path
       id="rect859"
       style="opacity:0.999;fill:#e29999;stroke-width:4.75618"
       d="m 66.237059,69.426931 v 11.984284 c -8.1e-5,3.551804 3.21636,6.431144 7.184059,6.431131 3.9679,2.67e-4 7.184654,-2.879148 7.184573,-6.431131 v -0.01034 -11.973944 h -4.636249 v 11.570354 0.0041 c 0,1.259811 -1.045435,2.435537 -2.548324,2.435511 -1.502889,2.6e-5 -2.720795,-1.090155 -2.720766,-2.435511 V 69.426931 Z"
       sodipodi:nodetypes="cccsccccscccc" />
    <g
       aria-label="J"
       id="text844"
       style="font-weight:800;font-size:25.4px;line-height:1.25;font-family:Inter;-inkscape-font-specification:'Inter Ultra-Bold';stroke-width:0.264583"
       transform="rotate(90,59.653842,69.533063)">
      <path
         d="m 60.785075,63.81977 h 4.401704 v 11.767778 c -0.006,1.196639 -0.29163,2.242946 -0.856889,3.138921 -0.565246,0.889962 -1.346969,1.581486 -2.34517,2.074573 -0.992188,0.493087 -2.14072,0.739631 -3.445597,0.739631 -1.154545,0 -2.203859,-0.201444 -3.14794,-0.604332 -0.938068,-0.402889 -1.686719,-1.028268 -2.245952,-1.876137 -0.553219,-0.847869 -0.826822,-1.933262 -0.820809,-3.256179 h 4.446803 c 0.01804,0.475047 0.108239,0.880942 0.270597,1.217685 0.168371,0.330729 0.399882,0.58028 0.694531,0.748651 0.29465,0.168371 0.646426,0.252556 1.055327,0.252556 0.426941,0 0.787737,-0.0902 1.082386,-0.270596 0.29465,-0.186411 0.517141,-0.460015 0.667472,-0.82081 0.156345,-0.360795 0.237524,-0.808783 0.243537,-1.343963 z"
         id="path856"
         sodipodi:nodetypes="cccccscccccsscccc" />
    </g>
    <path
       d="M 87.368711,80.12527 V 64.630999 h 7.630824 c 1.383049,0 2.576681,0.270597 3.580895,0.81179 1.010227,0.53518 1.78894,1.283831 2.33615,2.245952 0.54721,0.956108 0.82081,2.068561 0.82081,3.337358 0,1.274811 -0.27962,2.39027 -0.83885,3.346377 -0.55322,0.950095 -1.343963,1.686719 -2.37223,2.209873 -1.028267,0.523153 -2.248958,0.78473 -3.662073,0.78473 h -4.708381 v -3.517756 h 3.878551 c 0.673485,0 1.235724,-0.117259 1.686719,-0.351776 0.457007,-0.234517 0.80277,-0.562239 1.037287,-0.983167 0.234517,-0.426941 0.351775,-0.923035 0.351775,-1.488281 0,-0.57126 -0.117258,-1.064347 -0.351775,-1.479262 -0.234517,-0.420928 -0.58028,-0.745644 -1.037287,-0.974147 -0.457008,-0.228504 -1.019248,-0.342756 -1.686719,-0.342756 H 91.833555 V 80.12527 Z"
       id="path932"
       style="font-weight:800;font-size:25.4px;line-height:1.25;font-family:Inter;-inkscape-font-specification:'Inter Ultra-Bold';stroke-width:0.264583"
       sodipodi:nodetypes="ccsccscssccsccscssccc" />
    <path
       id="path934"
       style="opacity:0.999;fill:#e29999;stroke-width:4.75618"
       d="m 87.368711,83.103726 c -8.1e-5,3.551804 3.21605,6.152189 7.183749,6.152176 3.9679,2.67e-4 7.18465,-2.879148 7.18457,-6.431131 v -0.01034 -11.973944 h -4.636246 v 11.570354 0.0041 c 0,1.259811 -1.045435,2.435537 -2.548324,2.435511 -1.502889,2.6e-5 -2.718934,-0.40137 -2.718905,-1.746726 -1.692567,0 -3.263864,0 -4.464844,0 z"
       sodipodi:nodetypes="ccsccccsccc" />
    <path
       id="path941"
       style="font-weight:800;font-size:25.4px;line-height:1.25;font-family:Inter;-inkscape-font-specification:'Inter Ultra-Bold';fill:#006370;fill-opacity:1;stroke-width:0.999999"
       d="M 0.19726562,0.15429688 V 58.714844 H 17.072266 V 48.291016 h 11.455078 c 3.058893,0 5.87136,-0.335797 8.453125,-0.984375 v 20.046875 0.01563 c 0,4.76149 -3.950645,9.205176 -9.63086,9.205078 -5.680214,9.8e-5 -10.277457,-1.516753 -10.277343,-6.601563 H 0.19726562 C 0.19696326,83.396797 12.353578,93.224659 27.349609,93.224609 c 14.996788,0.001 27.1546,-10.881823 27.154297,-24.30664 v -0.03906 -44.486328 c 4.9e-5,-0.02311 0.002,-0.04522 0.002,-0.06836 0,-0.02382 -0.0019,-0.04652 -0.002,-0.07031 v -0.630859 h -0.01758 C 54.388963,19.120756 53.368099,15.145586 51.402344,11.710938 49.334148,8.0745747 46.390458,5.2453838 42.572266,3.2226562 38.776826,1.1772024 34.266338,0.15429688 29.039062,0.15429688 Z M 17.072266,13.755859 h 8.318359 c 2.522721,0 4.647718,0.433238 6.375,1.296875 1.727282,0.863634 3.0355,2.090732 3.921875,3.681641 0.791451,1.400303 1.208238,3.048456 1.292969,4.919922 v 1.335937 c -0.08486,1.857233 -0.501676,3.518384 -1.292969,4.958985 -0.886375,1.590909 -2.194593,2.830433 -3.921875,3.716797 -1.704567,0.886363 -3.829526,1.328125 -6.375,1.328125 h -8.318359 z"
       transform="matrix(0.26458333,0,0,0.26458333,115.24929,64.341808)" />
    <path
       id="path1597"
       style="font-weight:800;font-size:25.4px;line-height:1.25;font-family:Inter;-inkscape-font-specification:'Inter Ultra-Bold';fill:#e29999;fill-opacity:1;stroke-width:0.264583"
       d="m 142.24579,64.382632 v 15.494145 h 4.46484 v -2.757971 h 3.03083 c 0.80933,0 1.55346,-0.08885 2.23655,-0.260449 v 5.304069 0.0041 c 0,1.259811 -1.04527,2.435536 -2.54816,2.43551 -1.50289,2.6e-5 -2.71925,-0.401307 -2.71922,-1.746663 h -4.46484 c -8e-5,3.551802 3.21636,6.152091 7.18406,6.152077 3.9679,2.65e-4 7.18465,-2.879148 7.18457,-6.431131 v -0.01033 -11.770341 c 2e-5,-0.0061 5.3e-4,-0.01196 5.3e-4,-0.01809 0,-0.0063 -5e-4,-0.01231 -5.3e-4,-0.0186 v -0.166915 h -0.005 c -0.0258,-1.191233 -0.29586,-2.242996 -0.81597,-3.151747 -0.54721,-0.962121 -1.32606,-1.710678 -2.33629,-2.245858 -1.00421,-0.541193 -2.19761,-0.811837 -3.58066,-0.811837 z m 4.46484,3.598747 h 2.2009 c 0.66747,0 1.22971,0.114628 1.68672,0.343131 0.45701,0.228504 0.80315,0.553173 1.03767,0.974101 0.2094,0.370497 0.31968,0.806571 0.34209,1.30173 v 0.353466 c -0.0225,0.491393 -0.13273,0.930906 -0.34209,1.312065 -0.23452,0.420928 -0.58066,0.748885 -1.03767,0.983403 -0.451,0.234516 -1.01323,0.351399 -1.68672,0.351399 h -2.2009 z" />
  </g>
</svg>
