<?xml version="1.0" encoding="UTF-8" standalone="no"?>
<svg
   xmlns:dc="http://purl.org/dc/elements/1.1/"
   xmlns:cc="http://creativecommons.org/ns#"
   xmlns:rdf="http://www.w3.org/1999/02/22-rdf-syntax-ns#"
   xmlns:svg="http://www.w3.org/2000/svg"
   xmlns="http://www.w3.org/2000/svg"
   xmlns:xlink="http://www.w3.org/1999/xlink"
   xmlns:sodipodi="http://sodipodi.sourceforge.net/DTD/sodipodi-0.dtd"
   xmlns:inkscape="http://www.inkscape.org/namespaces/inkscape"
   width="280.2442mm"
   height="280.2442mm"
   viewBox="0 0 280.2442 280.2442"
   version="1.1"
   id="svg8"
   sodipodi:docname="mphys.svg"
   inkscape:version="1.0.2 (1.0.2+r75+1)">
  <defs
     id="defs2">
    <linearGradient
       inkscape:collect="always"
       id="linearGradient2232">
      <stop
         style="stop-color:#22eb43;stop-opacity:1"
         offset="0"
         id="stop2228" />
      <stop
         style="stop-color:#d21414;stop-opacity:1"
         offset="1"
         id="stop2230" />
    </linearGradient>
    <inkscape:perspective
       sodipodi:type="inkscape:persp3d"
       inkscape:vp_x="0 : 174.22145 : 1"
       inkscape:vp_y="-1.8369702e-13 : 999.99998 : 0"
       inkscape:vp_z="614.56811 : 174.22145 : 1"
       inkscape:persp3d-origin="307.28405 : 138.88053 : 1"
       id="perspective2166" />
    <linearGradient
       inkscape:collect="always"
       id="linearGradient1808">
      <stop
         style="stop-color:#009013;stop-opacity:1"
         offset="0"
         id="stop1804" />
      <stop
         style="stop-color:#b0feb3;stop-opacity:0.19786458"
         offset="1"
         id="stop1806" />
    </linearGradient>
    <linearGradient
       inkscape:collect="always"
       id="linearGradient957">
      <stop
         style="stop-color:#e0fcff;stop-opacity:1"
         offset="0"
         id="stop953" />
      <stop
         style="stop-color:#a0cfe4;stop-opacity:0"
         offset="1"
         id="stop955" />
    </linearGradient>
    <linearGradient
       inkscape:collect="always"
       id="linearGradient939">
      <stop
         style="stop-color:#c96e6e;stop-opacity:1"
         offset="0"
         id="stop935" />
      <stop
         style="stop-color:#bc1414;stop-opacity:0;"
         offset="1"
         id="stop937" />
    </linearGradient>
    <linearGradient
       inkscape:collect="always"
       id="linearGradient915">
      <stop
         style="stop-color:#c96e6e;stop-opacity:1"
         offset="0"
         id="stop911" />
      <stop
         style="stop-color:#bc1414;stop-opacity:0;"
         offset="1"
         id="stop913" />
    </linearGradient>
    <clipPath
       clipPathUnits="userSpaceOnUse"
       id="clipPath905">
      <rect
         style="opacity:0.999;fill:#000000;fill-opacity:1;stroke:none;stroke-width:1.1;stroke-miterlimit:4;stroke-dasharray:none;stroke-opacity:1"
         id="rect907"
         width="233.92039"
         height="119.67435"
         x="-189.61923"
         y="65.346115" />
    </clipPath>
    <radialGradient
       inkscape:collect="always"
       xlink:href="#linearGradient939"
       id="radialGradient919"
       cx="-26.39653"
       cy="186.33594"
       fx="-26.39653"
       fy="186.33594"
       r="105.54934"
       gradientUnits="userSpaceOnUse"
       gradientTransform="matrix(-1.4811234,0.00503917,-0.00292947,-0.86566413,38.861949,277.5726)" />
    <radialGradient
       inkscape:collect="always"
       xlink:href="#linearGradient915"
       id="radialGradient933"
       gradientUnits="userSpaceOnUse"
       gradientTransform="matrix(-3.446549,-0.06777571,-0.01585093,-1.1388065,-235.8324,323.19496)"
       cx="-26.39653"
       cy="186.33594"
       fx="-26.39653"
       fy="186.33594"
       r="105.54934" />
    <radialGradient
       inkscape:collect="always"
       xlink:href="#linearGradient957"
       id="radialGradient951"
       cx="-115.84729"
       cy="98.615143"
       fx="-115.84729"
       fy="98.615143"
       r="412.96899"
       gradientTransform="matrix(0.62390264,5.7090722e-5,-5.0802075e-5,0.49360015,-43.564594,58.170064)"
       gradientUnits="userSpaceOnUse" />
    <clipPath
       clipPathUnits="userSpaceOnUse"
       id="clipPath996">
      <rect
         style="opacity:0.999;fill:#e0fcff;fill-opacity:1;stroke:none;stroke-width:2.662;stroke-miterlimit:4;stroke-dasharray:5.324, 10.648;stroke-dashoffset:0;stroke-opacity:1"
         id="rect998"
         width="547.74811"
         height="206.08804"
         x="-211.40492"
         y="455.91791" />
    </clipPath>
    <filter
       style="color-interpolation-filters:sRGB"
       inkscape:label="Posterize Basic"
       id="filter1632">
      <feGaussianBlur
         stdDeviation="7.59671"
         result="blur1"
         id="feGaussianBlur1620" />
      <feComponentTransfer
         in="blur1"
         result="component1"
         id="feComponentTransfer1628">
        <feFuncR
           type="discrete"
           tableValues="0 0.25 0.5 0.75 1 1"
           id="feFuncR1622" />
        <feFuncG
           type="discrete"
           tableValues="0 0.25 0.5 0.75 1 1"
           id="feFuncG1624" />
        <feFuncB
           type="discrete"
           tableValues="0 0.25 0.5 0.75 1 1"
           id="feFuncB1626" />
      </feComponentTransfer>
      <feComposite
         in="component1"
         in2="SourceGraphic"
         operator="in"
         id="feComposite1630" />
    </filter>
    <filter
       style="color-interpolation-filters:sRGB"
       inkscape:label="Posterize Basic"
       id="filter1646">
      <feGaussianBlur
         stdDeviation="7.59671"
         result="blur1"
         id="feGaussianBlur1634" />
      <feComponentTransfer
         in="blur1"
         result="component1"
         id="feComponentTransfer1642">
        <feFuncR
           type="discrete"
           tableValues="0 0.25 0.5 0.75 1 1"
           id="feFuncR1636" />
        <feFuncG
           type="discrete"
           tableValues="0 0.25 0.5 0.75 1 1"
           id="feFuncG1638" />
        <feFuncB
           type="discrete"
           tableValues="0 0.25 0.5 0.75 1 1"
           id="feFuncB1640" />
      </feComponentTransfer>
      <feComposite
         in="component1"
         in2="SourceGraphic"
         operator="in"
         id="feComposite1644" />
    </filter>
    <clipPath
       clipPathUnits="userSpaceOnUse"
       id="clipPath1693">
      <rect
         style="opacity:0.999;fill:#cb6969;fill-opacity:0.654411;stroke:none;stroke-width:2.662;stroke-miterlimit:4;stroke-dasharray:5.324, 10.648;stroke-dashoffset:0;stroke-opacity:1"
         id="rect1695"
         width="641.11859"
         height="212.04552"
         x="-259.48172"
         y="472.56439" />
    </clipPath>
    <clipPath
       clipPathUnits="userSpaceOnUse"
       id="clipPath1780">
      <rect
         style="opacity:0.999;fill:#cb6969;fill-opacity:0.654411;stroke:none;stroke-width:2.26297;stroke-miterlimit:4;stroke-dasharray:4.52594, 9.05188;stroke-dashoffset:0;stroke-opacity:1"
         id="rect1782"
         width="522.44537"
         height="180.2603"
         x="-161.66283"
         y="27.983141" />
    </clipPath>
    <linearGradient
       inkscape:collect="always"
       xlink:href="#linearGradient1808"
       id="linearGradient1812"
       x1="101.19817"
       y1="87.455345"
       x2="100.24882"
       y2="76.995293"
       gradientUnits="userSpaceOnUse"
       gradientTransform="rotate(2.1220493,140.92487,143.32417)" />
    <linearGradient
       inkscape:collect="always"
       xlink:href="#linearGradient1808"
       id="linearGradient1830"
       gradientUnits="userSpaceOnUse"
       gradientTransform="matrix(0.99052766,-0.13731338,-0.13731338,-0.99052766,16.749848,246.37526)"
       x1="101.19817"
       y1="87.455345"
       x2="100.24882"
       y2="76.995293" />
    <linearGradient
       inkscape:collect="always"
       xlink:href="#linearGradient2232"
       id="linearGradient2234"
       x1="106.35326"
       y1="78.729042"
       x2="157.92317"
       y2="-36.143402"
       gradientUnits="userSpaceOnUse"
       gradientTransform="matrix(0.93868098,0.34336318,-0.35774519,0.97799831,29.230669,-28.721372)" />
    <linearGradient
       inkscape:collect="always"
       xlink:href="#linearGradient1808"
       id="linearGradient2290"
       gradientUnits="userSpaceOnUse"
       gradientTransform="rotate(2.1220493,-13203.079,-4219.8281)"
       x1="101.19817"
       y1="87.455345"
       x2="100.24882"
       y2="76.995293" />
    <linearGradient
       inkscape:collect="always"
       xlink:href="#linearGradient2232"
       id="linearGradient2292"
       gradientUnits="userSpaceOnUse"
       gradientTransform="matrix(0.93868098,0.34336318,-0.35774519,0.97799831,-141.48043,462.39196)"
       x1="106.35326"
       y1="78.729042"
       x2="157.92317"
       y2="-36.143402" />
    <linearGradient
       inkscape:collect="always"
       xlink:href="#linearGradient1808"
       id="linearGradient2294"
       gradientUnits="userSpaceOnUse"
       gradientTransform="matrix(0.99052766,-0.13731338,-0.13731338,-0.99052766,-153.96125,737.48859)"
       x1="101.19817"
       y1="87.455345"
       x2="100.24882"
       y2="76.995293" />
    <linearGradient
       inkscape:collect="always"
       xlink:href="#linearGradient1808"
       id="linearGradient2296"
       gradientUnits="userSpaceOnUse"
       gradientTransform="rotate(2.1220493,-13203.079,-4219.8281)"
       x1="101.19817"
       y1="87.455345"
       x2="100.24882"
       y2="76.995293" />
    <linearGradient
       inkscape:collect="always"
       xlink:href="#linearGradient1808"
       id="linearGradient2298"
       gradientUnits="userSpaceOnUse"
       gradientTransform="rotate(2.1220493,-13203.079,-4219.8281)"
       x1="101.19817"
       y1="87.455345"
       x2="100.24882"
       y2="76.995293" />
    <radialGradient
       inkscape:collect="always"
       xlink:href="#linearGradient915"
       id="radialGradient2300"
       gradientUnits="userSpaceOnUse"
       gradientTransform="matrix(-3.446549,-0.06777571,-0.01585093,-1.1388065,-235.8324,323.19496)"
       cx="-26.39653"
       cy="186.33594"
       fx="-26.39653"
       fy="186.33594"
       r="105.54934" />
    <radialGradient
       inkscape:collect="always"
       xlink:href="#linearGradient939"
       id="radialGradient2302"
       gradientUnits="userSpaceOnUse"
       gradientTransform="matrix(-1.4811234,0.00503917,-0.00292947,-0.86566413,-131.84915,768.68593)"
       cx="-26.39653"
       cy="186.33594"
       fx="-26.39653"
       fy="186.33594"
       r="105.54934" />
    <radialGradient
       inkscape:collect="always"
       xlink:href="#linearGradient957"
       id="radialGradient2304"
       gradientUnits="userSpaceOnUse"
       gradientTransform="matrix(0.62390264,5.7090722e-5,-5.0802075e-5,0.49360015,-214.2757,549.28339)"
       cx="-115.84729"
       cy="98.615143"
       fx="-115.84729"
       fy="98.615143"
       r="412.96899" />
    <linearGradient
       inkscape:collect="always"
       xlink:href="#linearGradient1808"
       id="linearGradient2343"
       gradientUnits="userSpaceOnUse"
       gradientTransform="rotate(2.1220493,140.92487,143.32417)"
       x1="101.19817"
       y1="87.455345"
       x2="100.24882"
       y2="76.995293" />
    <linearGradient
       inkscape:collect="always"
       xlink:href="#linearGradient1808"
       id="linearGradient2345"
       gradientUnits="userSpaceOnUse"
       gradientTransform="rotate(2.1220493,140.92487,143.32417)"
       x1="101.19817"
       y1="87.455345"
       x2="100.24882"
       y2="76.995293" />
    <clipPath
       clipPathUnits="userSpaceOnUse"
       id="clipPath1606">
      <rect
         style="fill:#cb6969;fill-opacity:0.654411;stroke-width:2.64191"
         id="rect1608"
         width="280.2442"
         height="280.2442"
         x="-189.72594"
         y="426.73328" />
    </clipPath>
  </defs>
  <sodipodi:namedview
     id="base"
     pagecolor="#ffffff"
     bordercolor="#666666"
     borderopacity="1.0"
     inkscape:pageopacity="0.0"
     inkscape:pageshadow="2"
     inkscape:zoom="0.35355339"
     inkscape:cx="361.42144"
     inkscape:cy="459.33442"
     inkscape:document-units="mm"
     inkscape:current-layer="layer1"
     inkscape:document-rotation="0"
     showgrid="false"
     inkscape:window-width="1920"
     inkscape:window-height="1056"
     inkscape:window-x="0"
     inkscape:window-y="0"
     inkscape:window-maximized="0"
     inkscape:snap-nodes="true" />
  <metadata
     id="metadata5">
    <rdf:RDF>
      <cc:Work
         rdf:about="">
        <dc:format>image/svg+xml</dc:format>
        <dc:type
           rdf:resource="http://purl.org/dc/dcmitype/StillImage" />
        <dc:title />
      </cc:Work>
    </rdf:RDF>
  </metadata>
  <g
     inkscape:label="Layer 1"
     inkscape:groupmode="layer"
     id="layer1"
     transform="translate(189.72594,-426.73328)">
    <ellipse
       style="opacity:0.999;fill:url(#radialGradient951);fill-opacity:1;stroke:none;stroke-width:2.75413;stroke-miterlimit:4;stroke-dasharray:5.50826, 11.0165;stroke-dashoffset:0;stroke-opacity:1"
       id="path941"
       cx="291.91034"
       cy="114.85671"
       rx="411.59195"
       ry="202.46439" />
    <circle
       style="opacity:0.999;fill:none;fill-opacity:1;stroke:#828282;stroke-width:1.33297;stroke-miterlimit:4;stroke-dasharray:5.3319, 5.3319;stroke-dashoffset:0;stroke-opacity:1"
       id="circle1408"
       cx="9.3099279"
       cy="118.62485"
       r="83.547829" />
    <ellipse
       style="opacity:0.999;fill:none;fill-opacity:1;stroke:#828282;stroke-width:1.75581;stroke-miterlimit:4;stroke-dasharray:3.51161, 7.02323;stroke-dashoffset:0;stroke-opacity:1"
       id="ellipse1196"
       cx="-306.30344"
       cy="117.38055"
       transform="scale(-1,1)"
       rx="194.61375"
       ry="107.0999" />
    <circle
       style="opacity:0.999;fill:url(#radialGradient919);fill-opacity:1;stroke:none;stroke-width:1.33297;stroke-miterlimit:4;stroke-dasharray:5.3319, 5.3319;stroke-dashoffset:0;stroke-opacity:1;filter:url(#filter1632)"
       id="path909"
       cx="9.3099279"
       cy="118.62485"
       r="83.547829" />
    <ellipse
       style="opacity:0.999;fill:url(#radialGradient933);fill-opacity:1;stroke:none;stroke-width:2.10712;stroke-miterlimit:4;stroke-dasharray:4.21422, 8.42845;stroke-dashoffset:0;stroke-opacity:1;filter:url(#filter1646)"
       id="circle931"
       cx="-306.30344"
       cy="117.38386"
       transform="matrix(-1.0278177,0,0,0.68733025,-3.2289917,36.702382)"
       rx="194.43967"
       ry="154.38307" />
    <g
       id="g929">
      <circle
         style="opacity:0.999;fill:#b1d4e8;fill-opacity:1;stroke-width:3.68858"
         id="circle865"
         cx="102.0722"
         cy="116.31304"
         r="43.060623" />
      <g
         id="g876"
         style="fill:#5ba77a;fill-opacity:0.999929"
         transform="matrix(0.75883556,0,0,0.75883556,24.616184,28.05057)">
        <path
           id="path847"
           style="opacity:0.999;fill:#5ba77a;fill-opacity:0.999929;stroke-width:18.3717"
           d="m 388.125,225.15039 -0.30469,0.0996 19.11328,6.17383 -7.49218,3.49805 5.6289,5.80468 11.63477,-1.91211 -0.63281,6.62305 4.19921,6.66211 -14.84765,-5.43359 -2.77344,7.04882 6.58789,7.88086 3.59961,9.99805 -5.06055,0.5 8.63868,11.60937 -9.07422,1.92579 1.52148,4.7539 -7.11719,5.18164 -6.64648,8.4336 -4.13477,-5.42969 -5.06445,-0.32813 7.28125,8.29297 -3.66016,2.38672 -5.24023,-5.08984 -18.67773,-3.01758 -5.27344,-2.71484 -8.90625,2.65039 -7.95899,6 -4.93945,7.87109 -5.08008,7.63477 -10.81836,10.68945 -7.66992,5.58594 1.30078,9.19531 1.61328,5.35351 4.70118,1.68165 4.87109,-5.78907 2.85352,3.375 0.95703,8.88672 -4.09571,2.48633 0.91407,-6.85742 -4.85157,-0.29297 -3.19336,5.73437 0.0899,6.59375 -1.67774,5.92969 -5.98242,0.53906 -4.61914,4.36719 c 0,0 0.14642,1.89709 -0.56055,2.73633 -0.70697,0.83924 -7.35351,6.18555 -7.35351,6.18555 l -7.33399,3.46289 c 0,0 -3.28353,-1.97541 -3.23828,-1.59961 0.0452,0.37568 -3.04101,5.46094 -3.04101,5.46094 0,0 -5.22708,-1.50049 -5.10157,-1.13282 0.12552,0.36775 2.36719,6.38282 2.36719,6.38282 l 4.96289,9.39648 -3.34179,9.92773 -20.5293,-4.49414 -2.80469,15.96485 -5.36914,7.73437 5.37305,10.87696 4.3164,4.02343 -10.43554,11.38868 -6.27539,15.0625 -8.61133,4.45507 -11.31445,17.38086 1.00195,13.86328 -1.02539,14.87696 7.02929,17.26172 20.05665,23.69921 10.58789,9.11719 17.86718,3.32422 16.02539,-0.74414 16.41016,1.97852 3.20117,6.50195 14.58789,1.66992 2.8711,13.2793 28.74218,24.39844 -3.04492,7.70312 8.11914,7.44141 9.94922,1.19336 9.04297,4.76367 10.73437,0.21484 a 214.47178,214.47178 0 0 0 36.88477,-6.01172 l 9.20703,-5.09961 10.03711,-6.59961 -4.26172,-4.66601 23.8125,-13.91016 -2.02343,-12.96094 c 0,0 -5.27218,-3.50568 -4.33399,-4.82617 0.93819,-1.32045 7.97266,-12.71093 7.97266,-12.71094 l 27.5332,-33.59179 4.61523,-23.72071 -0.29492,-6.21093 -25.45508,20.72461 -9.08984,-9.45508 -23.2207,-10.23438 -26.47071,-37.64257 c 0,0 3.10154,-4.15877 4.69922,-3.58594 1.59765,0.57286 24.70508,19.76826 24.70508,20.76367 0,0.99541 24.97852,31.74414 24.97852,31.74414 l 31.71679,-29.91211 15.375,-24.77148 -2.85156,-16.74024 -10.58984,-6.02343 -10.71289,12.54492 -14.32032,-2.23828 -10.51562,-12.4375 c 0,0 2.907,-4.88766 3.98828,-4.12696 1.08125,0.76071 15.98633,6.11524 15.98633,6.11524 l 19.02148,-5.35157 20.87891,-13.36132 c 0,0 12.97461,2.34446 12.97461,3.56445 0,1.21999 5.80469,2.67187 5.80469,2.67187 l 2.43945,-7.97461 c 0,0 18.16669,34.77624 19.04883,34.59766 0.88214,-0.17839 6.21875,-9.9043 6.21875,-9.9043 l -0.38672,10.70313 4.42969,-6.90234 -2.35938,-7.34766 -4.89648,-12.19922 -1.16211,-30.77539 0.0762,-15.96289 2.52148,-7.11914 5.76368,9.30469 4.69921,1.28515 0.38672,17.11133 5.69727,22.60547 a 214.47178,214.47178 0 0 0 0.0254,-3.24219 A 214.47178,214.47178 0 0 0 388.125,225.15039 Z m -0.32422,85.10938 0.5586,4.81445 -1.75586,3.45898 -8.08204,-0.0293 -6.00976,-6.97461 12.0918,-0.70899 z m -31.9043,9.86718 2.58204,1.23243 -5.76368,9.60351 1.5625,11.85547 4.04102,-0.55664 11.13086,-3.33789 3.51367,1.53125 -13.03711,7.66992 c 0,0 2.10055,2.95547 2.625,3.49805 0.52446,0.54257 -1.02344,4.03515 -1.02344,4.03515 0,0 -3.65039,-3.08037 -3.65039,-3.4375 0,-0.35714 -3.76757,3.7717 -3.76757,4.27344 0,0.50174 1.14843,7.77539 1.14843,7.77539 l -5.46875,3.58203 c 0,0 -13.65708,4.08765 -14.10351,4.00586 -0.44643,-0.0818 -8.24219,-1.6289 -8.24219,-1.6289 l 6.13281,-5.17774 7.92578,-4.52148 1.21289,-8.67383 5.08008,-6.54492 -3.625,-4.12696 0.4668,-8.71875 6.15625,-4.97461 0.60547,-4.57812 z m 97.46094,56.20313 5.00586,0.82422 -0.73242,4.52734 -2.29492,5.05859 c 0,0 9.02269,4.9119 9.6914,5.11524 0.66872,0.20345 8.88672,8.42773 8.88672,8.42773 l 9.35352,15.50391 -9.15039,4.12305 -9.43555,-4.70508 -2.57031,-11.26563 -12.16992,-9.71289 -3.69532,-8.28906 c 0,0 6.51341,-8.87484 7.11133,-9.60742 z m -60.76758,21.79492 10.8125,8.01562 10.35743,-7.02148 16.46679,6.75 5.32032,5.09766 -8.44141,7.49804 -16.91602,-2.69726 -9.30468,9.0625 -8.08789,1.98828 -7.38672,-3.04297 c 0,0 2.652,-16.58236 2.53711,-17.15039 -0.11479,-0.56799 4.64257,-8.5 4.64257,-8.5 z m -62.24414,13.66016 c 0,0 12.7535,7.41842 12.86719,7.88281 0.11369,0.46439 8.58984,7.04883 8.58984,7.04883 0,0 6.54382,9.84284 6.63477,11.99218 0.091,2.14938 7.08389,12.0229 7.38281,12.75 0.29893,0.72711 4.91602,2.55274 4.91602,2.55274 l 6.4414,-8.29492 -3.90625,-8.34375 4.70704,-9.61133 c 0,0 6.59374,5.87549 6.17773,7.14258 -0.41597,1.26705 1.23242,14.35742 1.23242,14.35742 0,0 13.33789,0.63115 13.33789,0.98828 0,0.35717 13.69532,-1.68874 13.69532,-2.20703 0,-0.51825 8.13085,-4.86719 8.13085,-4.86719 0,0 6.25196,6.70722 6.25196,7.57031 0,0.86306 -6.86524,18.63672 -6.86524,18.63672 0,0 -11.61548,4.64355 -12.44531,4.75391 -0.82979,0.11036 -9.17817,1.74411 -11.4375,1.53711 -2.25936,-0.20712 -18.53385,-3.48799 -19.42578,-3.49219 -0.89193,-0.004 -8.73497,1.68393 -9.10547,2.31836 -0.37047,0.63447 -3.50195,5.28821 -3.50195,6.7168 0,1.42854 -2.34989,2.73971 -3.28906,2.91992 -0.93918,0.18028 -9.07418,-1.98294 -10.38086,-2.66016 -1.30668,-0.67718 -10.42383,-6.22656 -10.42383,-6.22656 l -9.71485,-2.36914 -4.07226,-5.98828 c 0,0 2.01858,-6.32088 1.89844,-6.76758 -0.12016,-0.44666 -4.85157,-10.19336 -4.85157,-10.19336 l -19.04687,4.17383 c 0,0 -22.21485,1.21875 -22.21485,2.46875 0,1.25 -5.87109,3.27539 -5.87109,3.27539 l -2.88086,-1.99414 -0.39844,-0.5293 -2.02734,-4.46094 5.46094,-0.65039 4.00586,2.07422 8.57031,-8.54297 0.29492,-11.39843 7.03906,-2.28907 6.22657,-5.35156 -1.47657,-2.99219 7.20703,1.07422 8.33399,-3.29883 c 0,0 4.05859,-3.20796 4.05859,-2.68359 0,0.52441 6.01953,6.81836 6.01953,6.81836 l 2.75,8.60156 c 0,0 6.54093,1.08381 8.15821,2.79102 1.61728,1.70717 12.95898,10.66601 12.95898,10.66601 l -16.74023,1.08789 7.34375,8.60157 11.39062,-5.38867 c 0,0 1.14673,-8.18118 0.69532,-8.64844 -0.45141,-0.46723 -6.28676,-13.93112 -8.13282,-14.69727 -1.84605,-0.76611 -13.24804,-8.05859 -13.24804,-8.05859 z"
           transform="scale(0.26458333)" />
        <path
           style="fill:#5ba77a;fill-opacity:0.999929;stroke:none;stroke-width:0.264583px;stroke-linecap:butt;stroke-linejoin:miter;stroke-opacity:1"
           d="m 78.715358,92.225901 -2.587154,0.804185 -0.191685,3.202028 -2.650863,0.55898 -1.66647,3.039549 0.814199,1.069047 2.21565,-1.011911 1.514332,-2.697953 0.658011,1.26474 -1.326573,1.642094 -1.056759,2.70626 4.478025,-0.47871 1.302203,-2.30141 -1.751304,-2.502555 -0.100012,-2.704697 z"
           id="path851" />
      </g>
    </g>
    <path
       style="fill:url(#linearGradient2343);fill-opacity:1;stroke:none;stroke-width:0.264583px;stroke-linecap:butt;stroke-linejoin:miter;stroke-opacity:1"
       d="m 72.269748,76.516028 5.595427,5.823049 c 0,0 9.833607,4.450884 23.518525,4.666402 13.68488,0.215517 23.47142,-6.802734 23.47142,-6.802734 l 4.55285,-6.996262 c 0,0 -2.5781,-1.946314 -8.70073,2.167111 -6.12266,4.113424 -12.82237,4.574877 -17.97356,4.308469 C 97.582517,79.415652 87.172708,79.842074 83.396589,76.54989 79.620496,73.257681 72.269748,76.51603 72.269748,76.51603 Z"
       id="path1802" />
    <path
       style="fill:url(#linearGradient2345);fill-opacity:1;stroke:none;stroke-width:0.264583px;stroke-linecap:butt;stroke-linejoin:miter;stroke-opacity:1"
       d="m 72.269748,76.516028 5.595427,5.823049 c 0,0 9.833607,4.450884 23.518525,4.666402 13.68488,0.215517 23.47142,-6.802734 23.47142,-6.802734 l 4.55285,-6.996262 c 0,0 -2.5781,-1.946314 -8.70073,2.167111 -6.12266,4.113424 -12.82237,4.574877 -17.97356,4.308469 C 97.582517,79.415652 87.172708,79.842074 83.396589,76.54989 79.620496,73.257681 72.269748,76.51603 72.269748,76.51603 Z"
       id="path1814" />
    <g
       id="g1826"
       style="fill:#ffffff;fill-opacity:0.224869">
      <circle
         style="opacity:0.999;fill:#ffffff;fill-opacity:0.224869;stroke-width:3.68858"
         id="circle1818"
         cx="102.0722"
         cy="116.31304"
         r="43.060623" />
      <g
         id="g1824"
         style="fill:#ffffff;fill-opacity:0.224869"
         transform="matrix(0.75883556,0,0,0.75883556,24.616184,28.05057)">
        <path
           id="path1820"
           style="opacity:0.999;fill:#ffffff;fill-opacity:0.224869;stroke-width:18.3717"
           d="m 388.125,225.15039 -0.30469,0.0996 19.11328,6.17383 -7.49218,3.49805 5.6289,5.80468 11.63477,-1.91211 -0.63281,6.62305 4.19921,6.66211 -14.84765,-5.43359 -2.77344,7.04882 6.58789,7.88086 3.59961,9.99805 -5.06055,0.5 8.63868,11.60937 -9.07422,1.92579 1.52148,4.7539 -7.11719,5.18164 -6.64648,8.4336 -4.13477,-5.42969 -5.06445,-0.32813 7.28125,8.29297 -3.66016,2.38672 -5.24023,-5.08984 -18.67773,-3.01758 -5.27344,-2.71484 -8.90625,2.65039 -7.95899,6 -4.93945,7.87109 -5.08008,7.63477 -10.81836,10.68945 -7.66992,5.58594 1.30078,9.19531 1.61328,5.35351 4.70118,1.68165 4.87109,-5.78907 2.85352,3.375 0.95703,8.88672 -4.09571,2.48633 0.91407,-6.85742 -4.85157,-0.29297 -3.19336,5.73437 0.0899,6.59375 -1.67774,5.92969 -5.98242,0.53906 -4.61914,4.36719 c 0,0 0.14642,1.89709 -0.56055,2.73633 -0.70697,0.83924 -7.35351,6.18555 -7.35351,6.18555 l -7.33399,3.46289 c 0,0 -3.28353,-1.97541 -3.23828,-1.59961 0.0452,0.37568 -3.04101,5.46094 -3.04101,5.46094 0,0 -5.22708,-1.50049 -5.10157,-1.13282 0.12552,0.36775 2.36719,6.38282 2.36719,6.38282 l 4.96289,9.39648 -3.34179,9.92773 -20.5293,-4.49414 -2.80469,15.96485 -5.36914,7.73437 5.37305,10.87696 4.3164,4.02343 -10.43554,11.38868 -6.27539,15.0625 -8.61133,4.45507 -11.31445,17.38086 1.00195,13.86328 -1.02539,14.87696 7.02929,17.26172 20.05665,23.69921 10.58789,9.11719 17.86718,3.32422 16.02539,-0.74414 16.41016,1.97852 3.20117,6.50195 14.58789,1.66992 2.8711,13.2793 28.74218,24.39844 -3.04492,7.70312 8.11914,7.44141 9.94922,1.19336 9.04297,4.76367 10.73437,0.21484 a 214.47178,214.47178 0 0 0 36.88477,-6.01172 l 9.20703,-5.09961 10.03711,-6.59961 -4.26172,-4.66601 23.8125,-13.91016 -2.02343,-12.96094 c 0,0 -5.27218,-3.50568 -4.33399,-4.82617 0.93819,-1.32045 7.97266,-12.71093 7.97266,-12.71094 l 27.5332,-33.59179 4.61523,-23.72071 -0.29492,-6.21093 -25.45508,20.72461 -9.08984,-9.45508 -23.2207,-10.23438 -26.47071,-37.64257 c 0,0 3.10154,-4.15877 4.69922,-3.58594 1.59765,0.57286 24.70508,19.76826 24.70508,20.76367 0,0.99541 24.97852,31.74414 24.97852,31.74414 l 31.71679,-29.91211 15.375,-24.77148 -2.85156,-16.74024 -10.58984,-6.02343 -10.71289,12.54492 -14.32032,-2.23828 -10.51562,-12.4375 c 0,0 2.907,-4.88766 3.98828,-4.12696 1.08125,0.76071 15.98633,6.11524 15.98633,6.11524 l 19.02148,-5.35157 20.87891,-13.36132 c 0,0 12.97461,2.34446 12.97461,3.56445 0,1.21999 5.80469,2.67187 5.80469,2.67187 l 2.43945,-7.97461 c 0,0 18.16669,34.77624 19.04883,34.59766 0.88214,-0.17839 6.21875,-9.9043 6.21875,-9.9043 l -0.38672,10.70313 4.42969,-6.90234 -2.35938,-7.34766 -4.89648,-12.19922 -1.16211,-30.77539 0.0762,-15.96289 2.52148,-7.11914 5.76368,9.30469 4.69921,1.28515 0.38672,17.11133 5.69727,22.60547 a 214.47178,214.47178 0 0 0 0.0254,-3.24219 A 214.47178,214.47178 0 0 0 388.125,225.15039 Z m -0.32422,85.10938 0.5586,4.81445 -1.75586,3.45898 -8.08204,-0.0293 -6.00976,-6.97461 12.0918,-0.70899 z m -31.9043,9.86718 2.58204,1.23243 -5.76368,9.60351 1.5625,11.85547 4.04102,-0.55664 11.13086,-3.33789 3.51367,1.53125 -13.03711,7.66992 c 0,0 2.10055,2.95547 2.625,3.49805 0.52446,0.54257 -1.02344,4.03515 -1.02344,4.03515 0,0 -3.65039,-3.08037 -3.65039,-3.4375 0,-0.35714 -3.76757,3.7717 -3.76757,4.27344 0,0.50174 1.14843,7.77539 1.14843,7.77539 l -5.46875,3.58203 c 0,0 -13.65708,4.08765 -14.10351,4.00586 -0.44643,-0.0818 -8.24219,-1.6289 -8.24219,-1.6289 l 6.13281,-5.17774 7.92578,-4.52148 1.21289,-8.67383 5.08008,-6.54492 -3.625,-4.12696 0.4668,-8.71875 6.15625,-4.97461 0.60547,-4.57812 z m 97.46094,56.20313 5.00586,0.82422 -0.73242,4.52734 -2.29492,5.05859 c 0,0 9.02269,4.9119 9.6914,5.11524 0.66872,0.20345 8.88672,8.42773 8.88672,8.42773 l 9.35352,15.50391 -9.15039,4.12305 -9.43555,-4.70508 -2.57031,-11.26563 -12.16992,-9.71289 -3.69532,-8.28906 c 0,0 6.51341,-8.87484 7.11133,-9.60742 z m -60.76758,21.79492 10.8125,8.01562 10.35743,-7.02148 16.46679,6.75 5.32032,5.09766 -8.44141,7.49804 -16.91602,-2.69726 -9.30468,9.0625 -8.08789,1.98828 -7.38672,-3.04297 c 0,0 2.652,-16.58236 2.53711,-17.15039 -0.11479,-0.56799 4.64257,-8.5 4.64257,-8.5 z m -62.24414,13.66016 c 0,0 12.7535,7.41842 12.86719,7.88281 0.11369,0.46439 8.58984,7.04883 8.58984,7.04883 0,0 6.54382,9.84284 6.63477,11.99218 0.091,2.14938 7.08389,12.0229 7.38281,12.75 0.29893,0.72711 4.91602,2.55274 4.91602,2.55274 l 6.4414,-8.29492 -3.90625,-8.34375 4.70704,-9.61133 c 0,0 6.59374,5.87549 6.17773,7.14258 -0.41597,1.26705 1.23242,14.35742 1.23242,14.35742 0,0 13.33789,0.63115 13.33789,0.98828 0,0.35717 13.69532,-1.68874 13.69532,-2.20703 0,-0.51825 8.13085,-4.86719 8.13085,-4.86719 0,0 6.25196,6.70722 6.25196,7.57031 0,0.86306 -6.86524,18.63672 -6.86524,18.63672 0,0 -11.61548,4.64355 -12.44531,4.75391 -0.82979,0.11036 -9.17817,1.74411 -11.4375,1.53711 -2.25936,-0.20712 -18.53385,-3.48799 -19.42578,-3.49219 -0.89193,-0.004 -8.73497,1.68393 -9.10547,2.31836 -0.37047,0.63447 -3.50195,5.28821 -3.50195,6.7168 0,1.42854 -2.34989,2.73971 -3.28906,2.91992 -0.93918,0.18028 -9.07418,-1.98294 -10.38086,-2.66016 -1.30668,-0.67718 -10.42383,-6.22656 -10.42383,-6.22656 l -9.71485,-2.36914 -4.07226,-5.98828 c 0,0 2.01858,-6.32088 1.89844,-6.76758 -0.12016,-0.44666 -4.85157,-10.19336 -4.85157,-10.19336 l -19.04687,4.17383 c 0,0 -22.21485,1.21875 -22.21485,2.46875 0,1.25 -5.87109,3.27539 -5.87109,3.27539 l -2.88086,-1.99414 -0.39844,-0.5293 -2.02734,-4.46094 5.46094,-0.65039 4.00586,2.07422 8.57031,-8.54297 0.29492,-11.39843 7.03906,-2.28907 6.22657,-5.35156 -1.47657,-2.99219 7.20703,1.07422 8.33399,-3.29883 c 0,0 4.05859,-3.20796 4.05859,-2.68359 0,0.52441 6.01953,6.81836 6.01953,6.81836 l 2.75,8.60156 c 0,0 6.54093,1.08381 8.15821,2.79102 1.61728,1.70717 12.95898,10.66601 12.95898,10.66601 l -16.74023,1.08789 7.34375,8.60157 11.39062,-5.38867 c 0,0 1.14673,-8.18118 0.69532,-8.64844 -0.45141,-0.46723 -6.28676,-13.93112 -8.13282,-14.69727 -1.84605,-0.76611 -13.24804,-8.05859 -13.24804,-8.05859 z"
           transform="scale(0.26458333)" />
        <path
           style="fill:#ffffff;fill-opacity:0.224869;stroke:none;stroke-width:0.264583px;stroke-linecap:butt;stroke-linejoin:miter;stroke-opacity:1"
           d="m 78.715358,92.225901 -2.587154,0.804185 -0.191685,3.202028 -2.650863,0.55898 -1.66647,3.039549 0.814199,1.069047 2.21565,-1.011911 1.514332,-2.697953 0.658011,1.26474 -1.326573,1.642094 -1.056759,2.70626 4.478025,-0.47871 1.302203,-2.30141 -1.751304,-2.502555 -0.100012,-2.704697 z"
           id="path1822" />
      </g>
    </g>
    <path
       style="fill:url(#linearGradient1830);fill-opacity:1;stroke:none;stroke-width:0.264583px;stroke-linecap:butt;stroke-linejoin:miter;stroke-opacity:1"
       d="m 75.069269,158.43016 4.981615,-6.35612 c 0,0 9.33628,-5.41701 22.930186,-7.00735 13.59386,-1.59032 24.03644,4.40841 24.03644,4.40841 l 5.2332,6.50306 c 0,0 -2.36935,2.19566 -8.87453,-1.28135 -6.50521,-3.47699 -13.21736,-3.2625 -18.31567,-2.47954 -5.098269,0.78296 -15.498203,1.40532 -18.924185,5.06049 -3.425955,3.65518 -11.067052,1.15244 -11.067052,1.15244 z"
       id="path1828" />
    <path
       style="fill:none;stroke:url(#linearGradient2234);stroke-width:2.20879;stroke-linecap:butt;stroke-linejoin:miter;stroke-miterlimit:4;stroke-dasharray:8.83517, 4.41759;stroke-dashoffset:0;stroke-opacity:1"
       d="m 102.14774,84.008352 c 0,0 32.93549,-87.5211677 89.34144,-95.661927"
       id="path2226" />
    <path
       style="fill:url(#linearGradient1812);fill-opacity:1;stroke:none;stroke-width:0.264583px;stroke-linecap:butt;stroke-linejoin:miter;stroke-opacity:1"
       d="m 72.269748,76.516028 5.595427,5.823049 c 0,0 9.833607,4.450884 23.518525,4.666402 13.68488,0.215517 23.47142,-6.802734 23.47142,-6.802734 l 4.55285,-6.996262 c 0,0 -2.5781,-1.946314 -8.70073,2.167111 -6.12266,4.113424 -12.82237,4.574877 -17.97356,4.308469 C 97.582517,79.415652 87.172708,79.842074 83.396589,76.54989 79.620496,73.257681 72.269748,76.51603 72.269748,76.51603 Z"
       id="path1816" />
    <g
       id="g2224"
       transform="matrix(0.73394308,0.13530313,-0.13530313,0.73394308,70.722186,-7.0657381)">
      <path
         style="fill:#686868;fill-opacity:0.999756;stroke:none;stroke-width:0.264583px;stroke-linecap:butt;stroke-linejoin:miter;stroke-opacity:1"
         d="m 164.25227,-37.907309 15.846,30.3950736 -17.3435,-28.3742626 z"
         id="path2214" />
      <path
         id="ellipse2184"
         style="opacity:0.999;fill:#5c5c5c;fill-opacity:1;stroke:none;stroke-width:0.723181;stroke-miterlimit:4;stroke-dasharray:1.44636, 2.89273;stroke-dashoffset:0;stroke-opacity:0.45098"
         d="m 149.65946,-34.641344 1.86112,3.22571 0.0125,-0.0072 a 3.1168876,8.4585756 60.016549 0 0 8.85024,-1.582683 3.1168876,8.4585756 60.016549 0 0 5.76903,-6.926866 3.1168876,8.4585756 60.016549 0 0 -0.0932,-0.137645 l -1.7459,-3.026016 z" />
      <ellipse
         style="opacity:0.999;fill:#888888;fill-opacity:0.999756;stroke:none;stroke-width:0.723182;stroke-miterlimit:4;stroke-dasharray:1.44636, 2.89273;stroke-dashoffset:0;stroke-opacity:0.45098"
         id="path2182"
         cx="155.41371"
         cy="44.782391"
         rx="8.4585752"
         ry="3.1168878"
         transform="rotate(-29.98345)" />
      <path
         style="fill:#aeaeae;fill-opacity:0.999756;stroke:none;stroke-width:0.264583px;stroke-linecap:butt;stroke-linejoin:miter;stroke-opacity:1"
         d="m 158.71336,-42.881777 33.54898,-7.030034 -32.00878,9.018489 z"
         id="path2212" />
      <path
         style="fill:#aeaeae;fill-opacity:0.999756;stroke:none;stroke-width:0.264583px;stroke-linecap:butt;stroke-linejoin:miter;stroke-opacity:1"
         d="m 160.49601,-40.86659 -33.54898,7.030034 32.00878,-9.018489 z"
         id="path2216" />
      <path
         style="fill:#686868;fill-opacity:0.999756;stroke:none;stroke-width:0.264583px;stroke-linecap:butt;stroke-linejoin:miter;stroke-opacity:1"
         d="m 159.19701,-40.571866 -16.49121,-30.049893 17.94523,27.997573 z"
         id="path2210" />
    </g>
    <g
       id="g2337"
       clip-path="url(#clipPath1606)">
      <ellipse
         style="opacity:0.999;fill:url(#radialGradient2304);fill-opacity:1;stroke:none;stroke-width:2.75413;stroke-miterlimit:4;stroke-dasharray:5.50826, 11.0165;stroke-dashoffset:0;stroke-opacity:1"
         id="ellipse2236"
         cx="121.19923"
         cy="605.97003"
         rx="411.59195"
         ry="202.46439" />
      <circle
         style="opacity:0.999;fill:none;fill-opacity:1;stroke:#828282;stroke-width:1.33297;stroke-miterlimit:4;stroke-dasharray:5.3319, 5.3319;stroke-dashoffset:0;stroke-opacity:1"
         id="circle2238"
         cx="-161.40117"
         cy="609.73822"
         r="83.547829" />
      <ellipse
         style="opacity:0.999;fill:none;fill-opacity:1;stroke:#828282;stroke-width:1.75581;stroke-miterlimit:4;stroke-dasharray:3.51161, 7.02323;stroke-dashoffset:0;stroke-opacity:1"
         id="ellipse2240"
         cx="-135.59233"
         cy="608.4939"
         transform="scale(-1,1)"
         rx="194.61375"
         ry="107.0999" />
      <circle
         style="opacity:0.999;fill:url(#radialGradient2302);fill-opacity:1;stroke:none;stroke-width:1.33297;stroke-miterlimit:4;stroke-dasharray:5.3319, 5.3319;stroke-dashoffset:0;stroke-opacity:1;filter:url(#filter1632)"
         id="circle2242"
         cx="-161.40117"
         cy="609.73822"
         r="83.547829" />
      <ellipse
         style="opacity:0.999;fill:url(#radialGradient2300);fill-opacity:1;stroke:none;stroke-width:2.10712;stroke-miterlimit:4;stroke-dasharray:4.21422, 8.42845;stroke-dashoffset:0;stroke-opacity:1;filter:url(#filter1646)"
         id="ellipse2244"
         cx="-306.30344"
         cy="117.38386"
         transform="matrix(-1.0278177,0,0,0.68733025,-173.94009,527.81571)"
         rx="194.43967"
         ry="154.38307" />
      <g
         id="g2254"
         transform="translate(-170.7111,491.11333)">
        <circle
           style="opacity:0.999;fill:#b1d4e8;fill-opacity:1;stroke-width:3.68858"
           id="circle2246"
           cx="102.0722"
           cy="116.31304"
           r="43.060623" />
        <g
           id="g2252"
           style="fill:#5ba77a;fill-opacity:0.999929"
           transform="matrix(0.75883556,0,0,0.75883556,24.616184,28.05057)">
          <path
             id="path2248"
             style="opacity:0.999;fill:#5ba77a;fill-opacity:0.999929;stroke-width:18.3717"
             d="m 388.125,225.15039 -0.30469,0.0996 19.11328,6.17383 -7.49218,3.49805 5.6289,5.80468 11.63477,-1.91211 -0.63281,6.62305 4.19921,6.66211 -14.84765,-5.43359 -2.77344,7.04882 6.58789,7.88086 3.59961,9.99805 -5.06055,0.5 8.63868,11.60937 -9.07422,1.92579 1.52148,4.7539 -7.11719,5.18164 -6.64648,8.4336 -4.13477,-5.42969 -5.06445,-0.32813 7.28125,8.29297 -3.66016,2.38672 -5.24023,-5.08984 -18.67773,-3.01758 -5.27344,-2.71484 -8.90625,2.65039 -7.95899,6 -4.93945,7.87109 -5.08008,7.63477 -10.81836,10.68945 -7.66992,5.58594 1.30078,9.19531 1.61328,5.35351 4.70118,1.68165 4.87109,-5.78907 2.85352,3.375 0.95703,8.88672 -4.09571,2.48633 0.91407,-6.85742 -4.85157,-0.29297 -3.19336,5.73437 0.0899,6.59375 -1.67774,5.92969 -5.98242,0.53906 -4.61914,4.36719 c 0,0 0.14642,1.89709 -0.56055,2.73633 -0.70697,0.83924 -7.35351,6.18555 -7.35351,6.18555 l -7.33399,3.46289 c 0,0 -3.28353,-1.97541 -3.23828,-1.59961 0.0452,0.37568 -3.04101,5.46094 -3.04101,5.46094 0,0 -5.22708,-1.50049 -5.10157,-1.13282 0.12552,0.36775 2.36719,6.38282 2.36719,6.38282 l 4.96289,9.39648 -3.34179,9.92773 -20.5293,-4.49414 -2.80469,15.96485 -5.36914,7.73437 5.37305,10.87696 4.3164,4.02343 -10.43554,11.38868 -6.27539,15.0625 -8.61133,4.45507 -11.31445,17.38086 1.00195,13.86328 -1.02539,14.87696 7.02929,17.26172 20.05665,23.69921 10.58789,9.11719 17.86718,3.32422 16.02539,-0.74414 16.41016,1.97852 3.20117,6.50195 14.58789,1.66992 2.8711,13.2793 28.74218,24.39844 -3.04492,7.70312 8.11914,7.44141 9.94922,1.19336 9.04297,4.76367 10.73437,0.21484 a 214.47178,214.47178 0 0 0 36.88477,-6.01172 l 9.20703,-5.09961 10.03711,-6.59961 -4.26172,-4.66601 23.8125,-13.91016 -2.02343,-12.96094 c 0,0 -5.27218,-3.50568 -4.33399,-4.82617 0.93819,-1.32045 7.97266,-12.71093 7.97266,-12.71094 l 27.5332,-33.59179 4.61523,-23.72071 -0.29492,-6.21093 -25.45508,20.72461 -9.08984,-9.45508 -23.2207,-10.23438 -26.47071,-37.64257 c 0,0 3.10154,-4.15877 4.69922,-3.58594 1.59765,0.57286 24.70508,19.76826 24.70508,20.76367 0,0.99541 24.97852,31.74414 24.97852,31.74414 l 31.71679,-29.91211 15.375,-24.77148 -2.85156,-16.74024 -10.58984,-6.02343 -10.71289,12.54492 -14.32032,-2.23828 -10.51562,-12.4375 c 0,0 2.907,-4.88766 3.98828,-4.12696 1.08125,0.76071 15.98633,6.11524 15.98633,6.11524 l 19.02148,-5.35157 20.87891,-13.36132 c 0,0 12.97461,2.34446 12.97461,3.56445 0,1.21999 5.80469,2.67187 5.80469,2.67187 l 2.43945,-7.97461 c 0,0 18.16669,34.77624 19.04883,34.59766 0.88214,-0.17839 6.21875,-9.9043 6.21875,-9.9043 l -0.38672,10.70313 4.42969,-6.90234 -2.35938,-7.34766 -4.89648,-12.19922 -1.16211,-30.77539 0.0762,-15.96289 2.52148,-7.11914 5.76368,9.30469 4.69921,1.28515 0.38672,17.11133 5.69727,22.60547 a 214.47178,214.47178 0 0 0 0.0254,-3.24219 A 214.47178,214.47178 0 0 0 388.125,225.15039 Z m -0.32422,85.10938 0.5586,4.81445 -1.75586,3.45898 -8.08204,-0.0293 -6.00976,-6.97461 12.0918,-0.70899 z m -31.9043,9.86718 2.58204,1.23243 -5.76368,9.60351 1.5625,11.85547 4.04102,-0.55664 11.13086,-3.33789 3.51367,1.53125 -13.03711,7.66992 c 0,0 2.10055,2.95547 2.625,3.49805 0.52446,0.54257 -1.02344,4.03515 -1.02344,4.03515 0,0 -3.65039,-3.08037 -3.65039,-3.4375 0,-0.35714 -3.76757,3.7717 -3.76757,4.27344 0,0.50174 1.14843,7.77539 1.14843,7.77539 l -5.46875,3.58203 c 0,0 -13.65708,4.08765 -14.10351,4.00586 -0.44643,-0.0818 -8.24219,-1.6289 -8.24219,-1.6289 l 6.13281,-5.17774 7.92578,-4.52148 1.21289,-8.67383 5.08008,-6.54492 -3.625,-4.12696 0.4668,-8.71875 6.15625,-4.97461 0.60547,-4.57812 z m 97.46094,56.20313 5.00586,0.82422 -0.73242,4.52734 -2.29492,5.05859 c 0,0 9.02269,4.9119 9.6914,5.11524 0.66872,0.20345 8.88672,8.42773 8.88672,8.42773 l 9.35352,15.50391 -9.15039,4.12305 -9.43555,-4.70508 -2.57031,-11.26563 -12.16992,-9.71289 -3.69532,-8.28906 c 0,0 6.51341,-8.87484 7.11133,-9.60742 z m -60.76758,21.79492 10.8125,8.01562 10.35743,-7.02148 16.46679,6.75 5.32032,5.09766 -8.44141,7.49804 -16.91602,-2.69726 -9.30468,9.0625 -8.08789,1.98828 -7.38672,-3.04297 c 0,0 2.652,-16.58236 2.53711,-17.15039 -0.11479,-0.56799 4.64257,-8.5 4.64257,-8.5 z m -62.24414,13.66016 c 0,0 12.7535,7.41842 12.86719,7.88281 0.11369,0.46439 8.58984,7.04883 8.58984,7.04883 0,0 6.54382,9.84284 6.63477,11.99218 0.091,2.14938 7.08389,12.0229 7.38281,12.75 0.29893,0.72711 4.91602,2.55274 4.91602,2.55274 l 6.4414,-8.29492 -3.90625,-8.34375 4.70704,-9.61133 c 0,0 6.59374,5.87549 6.17773,7.14258 -0.41597,1.26705 1.23242,14.35742 1.23242,14.35742 0,0 13.33789,0.63115 13.33789,0.98828 0,0.35717 13.69532,-1.68874 13.69532,-2.20703 0,-0.51825 8.13085,-4.86719 8.13085,-4.86719 0,0 6.25196,6.70722 6.25196,7.57031 0,0.86306 -6.86524,18.63672 -6.86524,18.63672 0,0 -11.61548,4.64355 -12.44531,4.75391 -0.82979,0.11036 -9.17817,1.74411 -11.4375,1.53711 -2.25936,-0.20712 -18.53385,-3.48799 -19.42578,-3.49219 -0.89193,-0.004 -8.73497,1.68393 -9.10547,2.31836 -0.37047,0.63447 -3.50195,5.28821 -3.50195,6.7168 0,1.42854 -2.34989,2.73971 -3.28906,2.91992 -0.93918,0.18028 -9.07418,-1.98294 -10.38086,-2.66016 -1.30668,-0.67718 -10.42383,-6.22656 -10.42383,-6.22656 l -9.71485,-2.36914 -4.07226,-5.98828 c 0,0 2.01858,-6.32088 1.89844,-6.76758 -0.12016,-0.44666 -4.85157,-10.19336 -4.85157,-10.19336 l -19.04687,4.17383 c 0,0 -22.21485,1.21875 -22.21485,2.46875 0,1.25 -5.87109,3.27539 -5.87109,3.27539 l -2.88086,-1.99414 -0.39844,-0.5293 -2.02734,-4.46094 5.46094,-0.65039 4.00586,2.07422 8.57031,-8.54297 0.29492,-11.39843 7.03906,-2.28907 6.22657,-5.35156 -1.47657,-2.99219 7.20703,1.07422 8.33399,-3.29883 c 0,0 4.05859,-3.20796 4.05859,-2.68359 0,0.52441 6.01953,6.81836 6.01953,6.81836 l 2.75,8.60156 c 0,0 6.54093,1.08381 8.15821,2.79102 1.61728,1.70717 12.95898,10.66601 12.95898,10.66601 l -16.74023,1.08789 7.34375,8.60157 11.39062,-5.38867 c 0,0 1.14673,-8.18118 0.69532,-8.64844 -0.45141,-0.46723 -6.28676,-13.93112 -8.13282,-14.69727 -1.84605,-0.76611 -13.24804,-8.05859 -13.24804,-8.05859 z"
             transform="scale(0.26458333)" />
          <path
             style="fill:#5ba77a;fill-opacity:0.999929;stroke:none;stroke-width:0.264583px;stroke-linecap:butt;stroke-linejoin:miter;stroke-opacity:1"
             d="m 78.715358,92.225901 -2.587154,0.804185 -0.191685,3.202028 -2.650863,0.55898 -1.66647,3.039549 0.814199,1.069047 2.21565,-1.011911 1.514332,-2.697953 0.658011,1.26474 -1.326573,1.642094 -1.056759,2.70626 4.478025,-0.47871 1.302203,-2.30141 -1.751304,-2.502555 -0.100012,-2.704697 z"
             id="path2250" />
        </g>
      </g>
      <path
         style="fill:url(#linearGradient2298);fill-opacity:1;stroke:none;stroke-width:0.264583px;stroke-linecap:butt;stroke-linejoin:miter;stroke-opacity:1"
         d="m -98.441354,567.62936 5.595427,5.82305 c 0,0 9.833607,4.45088 23.518525,4.6664 13.68488,0.21551 23.47142,-6.80274 23.47142,-6.80274 l 4.55285,-6.99626 c 0,0 -2.5781,-1.94631 -8.70073,2.16711 -6.12266,4.11343 -12.82237,4.57488 -17.97356,4.30847 -5.151163,-0.26641 -15.560972,0.16001 -19.337091,-3.13217 -3.776093,-3.29221 -11.126841,-0.0339 -11.126841,-0.0339 z"
         id="path2256" />
      <path
         style="fill:url(#linearGradient2296);fill-opacity:1;stroke:none;stroke-width:0.264583px;stroke-linecap:butt;stroke-linejoin:miter;stroke-opacity:1"
         d="m -98.441354,567.62936 5.595427,5.82305 c 0,0 9.833607,4.45088 23.518525,4.6664 13.68488,0.21551 23.47142,-6.80274 23.47142,-6.80274 l 4.55285,-6.99626 c 0,0 -2.5781,-1.94631 -8.70073,2.16711 -6.12266,4.11343 -12.82237,4.57488 -17.97356,4.30847 -5.151163,-0.26641 -15.560972,0.16001 -19.337091,-3.13217 -3.776093,-3.29221 -11.126841,-0.0339 -11.126841,-0.0339 z"
         id="path2258" />
      <g
         id="g2268"
         style="fill:#ffffff;fill-opacity:0.224869"
         transform="translate(-170.7111,491.11333)">
        <circle
           style="opacity:0.999;fill:#ffffff;fill-opacity:0.224869;stroke-width:3.68858"
           id="circle2260"
           cx="102.0722"
           cy="116.31304"
           r="43.060623" />
        <g
           id="g2266"
           style="fill:#ffffff;fill-opacity:0.224869"
           transform="matrix(0.75883556,0,0,0.75883556,24.616184,28.05057)">
          <path
             id="path2262"
             style="opacity:0.999;fill:#ffffff;fill-opacity:0.224869;stroke-width:18.3717"
             d="m 388.125,225.15039 -0.30469,0.0996 19.11328,6.17383 -7.49218,3.49805 5.6289,5.80468 11.63477,-1.91211 -0.63281,6.62305 4.19921,6.66211 -14.84765,-5.43359 -2.77344,7.04882 6.58789,7.88086 3.59961,9.99805 -5.06055,0.5 8.63868,11.60937 -9.07422,1.92579 1.52148,4.7539 -7.11719,5.18164 -6.64648,8.4336 -4.13477,-5.42969 -5.06445,-0.32813 7.28125,8.29297 -3.66016,2.38672 -5.24023,-5.08984 -18.67773,-3.01758 -5.27344,-2.71484 -8.90625,2.65039 -7.95899,6 -4.93945,7.87109 -5.08008,7.63477 -10.81836,10.68945 -7.66992,5.58594 1.30078,9.19531 1.61328,5.35351 4.70118,1.68165 4.87109,-5.78907 2.85352,3.375 0.95703,8.88672 -4.09571,2.48633 0.91407,-6.85742 -4.85157,-0.29297 -3.19336,5.73437 0.0899,6.59375 -1.67774,5.92969 -5.98242,0.53906 -4.61914,4.36719 c 0,0 0.14642,1.89709 -0.56055,2.73633 -0.70697,0.83924 -7.35351,6.18555 -7.35351,6.18555 l -7.33399,3.46289 c 0,0 -3.28353,-1.97541 -3.23828,-1.59961 0.0452,0.37568 -3.04101,5.46094 -3.04101,5.46094 0,0 -5.22708,-1.50049 -5.10157,-1.13282 0.12552,0.36775 2.36719,6.38282 2.36719,6.38282 l 4.96289,9.39648 -3.34179,9.92773 -20.5293,-4.49414 -2.80469,15.96485 -5.36914,7.73437 5.37305,10.87696 4.3164,4.02343 -10.43554,11.38868 -6.27539,15.0625 -8.61133,4.45507 -11.31445,17.38086 1.00195,13.86328 -1.02539,14.87696 7.02929,17.26172 20.05665,23.69921 10.58789,9.11719 17.86718,3.32422 16.02539,-0.74414 16.41016,1.97852 3.20117,6.50195 14.58789,1.66992 2.8711,13.2793 28.74218,24.39844 -3.04492,7.70312 8.11914,7.44141 9.94922,1.19336 9.04297,4.76367 10.73437,0.21484 a 214.47178,214.47178 0 0 0 36.88477,-6.01172 l 9.20703,-5.09961 10.03711,-6.59961 -4.26172,-4.66601 23.8125,-13.91016 -2.02343,-12.96094 c 0,0 -5.27218,-3.50568 -4.33399,-4.82617 0.93819,-1.32045 7.97266,-12.71093 7.97266,-12.71094 l 27.5332,-33.59179 4.61523,-23.72071 -0.29492,-6.21093 -25.45508,20.72461 -9.08984,-9.45508 -23.2207,-10.23438 -26.47071,-37.64257 c 0,0 3.10154,-4.15877 4.69922,-3.58594 1.59765,0.57286 24.70508,19.76826 24.70508,20.76367 0,0.99541 24.97852,31.74414 24.97852,31.74414 l 31.71679,-29.91211 15.375,-24.77148 -2.85156,-16.74024 -10.58984,-6.02343 -10.71289,12.54492 -14.32032,-2.23828 -10.51562,-12.4375 c 0,0 2.907,-4.88766 3.98828,-4.12696 1.08125,0.76071 15.98633,6.11524 15.98633,6.11524 l 19.02148,-5.35157 20.87891,-13.36132 c 0,0 12.97461,2.34446 12.97461,3.56445 0,1.21999 5.80469,2.67187 5.80469,2.67187 l 2.43945,-7.97461 c 0,0 18.16669,34.77624 19.04883,34.59766 0.88214,-0.17839 6.21875,-9.9043 6.21875,-9.9043 l -0.38672,10.70313 4.42969,-6.90234 -2.35938,-7.34766 -4.89648,-12.19922 -1.16211,-30.77539 0.0762,-15.96289 2.52148,-7.11914 5.76368,9.30469 4.69921,1.28515 0.38672,17.11133 5.69727,22.60547 a 214.47178,214.47178 0 0 0 0.0254,-3.24219 A 214.47178,214.47178 0 0 0 388.125,225.15039 Z m -0.32422,85.10938 0.5586,4.81445 -1.75586,3.45898 -8.08204,-0.0293 -6.00976,-6.97461 12.0918,-0.70899 z m -31.9043,9.86718 2.58204,1.23243 -5.76368,9.60351 1.5625,11.85547 4.04102,-0.55664 11.13086,-3.33789 3.51367,1.53125 -13.03711,7.66992 c 0,0 2.10055,2.95547 2.625,3.49805 0.52446,0.54257 -1.02344,4.03515 -1.02344,4.03515 0,0 -3.65039,-3.08037 -3.65039,-3.4375 0,-0.35714 -3.76757,3.7717 -3.76757,4.27344 0,0.50174 1.14843,7.77539 1.14843,7.77539 l -5.46875,3.58203 c 0,0 -13.65708,4.08765 -14.10351,4.00586 -0.44643,-0.0818 -8.24219,-1.6289 -8.24219,-1.6289 l 6.13281,-5.17774 7.92578,-4.52148 1.21289,-8.67383 5.08008,-6.54492 -3.625,-4.12696 0.4668,-8.71875 6.15625,-4.97461 0.60547,-4.57812 z m 97.46094,56.20313 5.00586,0.82422 -0.73242,4.52734 -2.29492,5.05859 c 0,0 9.02269,4.9119 9.6914,5.11524 0.66872,0.20345 8.88672,8.42773 8.88672,8.42773 l 9.35352,15.50391 -9.15039,4.12305 -9.43555,-4.70508 -2.57031,-11.26563 -12.16992,-9.71289 -3.69532,-8.28906 c 0,0 6.51341,-8.87484 7.11133,-9.60742 z m -60.76758,21.79492 10.8125,8.01562 10.35743,-7.02148 16.46679,6.75 5.32032,5.09766 -8.44141,7.49804 -16.91602,-2.69726 -9.30468,9.0625 -8.08789,1.98828 -7.38672,-3.04297 c 0,0 2.652,-16.58236 2.53711,-17.15039 -0.11479,-0.56799 4.64257,-8.5 4.64257,-8.5 z m -62.24414,13.66016 c 0,0 12.7535,7.41842 12.86719,7.88281 0.11369,0.46439 8.58984,7.04883 8.58984,7.04883 0,0 6.54382,9.84284 6.63477,11.99218 0.091,2.14938 7.08389,12.0229 7.38281,12.75 0.29893,0.72711 4.91602,2.55274 4.91602,2.55274 l 6.4414,-8.29492 -3.90625,-8.34375 4.70704,-9.61133 c 0,0 6.59374,5.87549 6.17773,7.14258 -0.41597,1.26705 1.23242,14.35742 1.23242,14.35742 0,0 13.33789,0.63115 13.33789,0.98828 0,0.35717 13.69532,-1.68874 13.69532,-2.20703 0,-0.51825 8.13085,-4.86719 8.13085,-4.86719 0,0 6.25196,6.70722 6.25196,7.57031 0,0.86306 -6.86524,18.63672 -6.86524,18.63672 0,0 -11.61548,4.64355 -12.44531,4.75391 -0.82979,0.11036 -9.17817,1.74411 -11.4375,1.53711 -2.25936,-0.20712 -18.53385,-3.48799 -19.42578,-3.49219 -0.89193,-0.004 -8.73497,1.68393 -9.10547,2.31836 -0.37047,0.63447 -3.50195,5.28821 -3.50195,6.7168 0,1.42854 -2.34989,2.73971 -3.28906,2.91992 -0.93918,0.18028 -9.07418,-1.98294 -10.38086,-2.66016 -1.30668,-0.67718 -10.42383,-6.22656 -10.42383,-6.22656 l -9.71485,-2.36914 -4.07226,-5.98828 c 0,0 2.01858,-6.32088 1.89844,-6.76758 -0.12016,-0.44666 -4.85157,-10.19336 -4.85157,-10.19336 l -19.04687,4.17383 c 0,0 -22.21485,1.21875 -22.21485,2.46875 0,1.25 -5.87109,3.27539 -5.87109,3.27539 l -2.88086,-1.99414 -0.39844,-0.5293 -2.02734,-4.46094 5.46094,-0.65039 4.00586,2.07422 8.57031,-8.54297 0.29492,-11.39843 7.03906,-2.28907 6.22657,-5.35156 -1.47657,-2.99219 7.20703,1.07422 8.33399,-3.29883 c 0,0 4.05859,-3.20796 4.05859,-2.68359 0,0.52441 6.01953,6.81836 6.01953,6.81836 l 2.75,8.60156 c 0,0 6.54093,1.08381 8.15821,2.79102 1.61728,1.70717 12.95898,10.66601 12.95898,10.66601 l -16.74023,1.08789 7.34375,8.60157 11.39062,-5.38867 c 0,0 1.14673,-8.18118 0.69532,-8.64844 -0.45141,-0.46723 -6.28676,-13.93112 -8.13282,-14.69727 -1.84605,-0.76611 -13.24804,-8.05859 -13.24804,-8.05859 z"
             transform="scale(0.26458333)" />
          <path
             style="fill:#ffffff;fill-opacity:0.224869;stroke:none;stroke-width:0.264583px;stroke-linecap:butt;stroke-linejoin:miter;stroke-opacity:1"
             d="m 78.715358,92.225901 -2.587154,0.804185 -0.191685,3.202028 -2.650863,0.55898 -1.66647,3.039549 0.814199,1.069047 2.21565,-1.011911 1.514332,-2.697953 0.658011,1.26474 -1.326573,1.642094 -1.056759,2.70626 4.478025,-0.47871 1.302203,-2.30141 -1.751304,-2.502555 -0.100012,-2.704697 z"
             id="path2264" />
        </g>
      </g>
      <path
         style="fill:url(#linearGradient2294);fill-opacity:1;stroke:none;stroke-width:0.264583px;stroke-linecap:butt;stroke-linejoin:miter;stroke-opacity:1"
         d="m -95.641833,649.54349 4.981615,-6.35612 c 0,0 9.33628,-5.41701 22.930186,-7.00735 13.59386,-1.59032 24.03644,4.40841 24.03644,4.40841 l 5.2332,6.50306 c 0,0 -2.36935,2.19566 -8.87453,-1.28135 -6.50521,-3.47699 -13.21736,-3.2625 -18.31567,-2.47954 -5.098269,0.78296 -15.498203,1.40532 -18.924185,5.06049 -3.425955,3.65518 -11.067052,1.15244 -11.067052,1.15244 z"
         id="path2270" />
      <path
         style="fill:none;stroke:url(#linearGradient2292);stroke-width:2.20879;stroke-linecap:butt;stroke-linejoin:miter;stroke-miterlimit:4;stroke-dasharray:8.83517, 4.41759;stroke-dashoffset:0;stroke-opacity:1"
         d="m -68.563362,575.12168 c 0,0 32.93549,-87.52117 89.34144,-95.66193"
         id="path2272" />
      <path
         style="fill:url(#linearGradient2290);fill-opacity:1;stroke:none;stroke-width:0.264583px;stroke-linecap:butt;stroke-linejoin:miter;stroke-opacity:1"
         d="m -98.441354,567.62936 5.595427,5.82305 c 0,0 9.833607,4.45088 23.518525,4.6664 13.68488,0.21551 23.47142,-6.80274 23.47142,-6.80274 l 4.55285,-6.99626 c 0,0 -2.5781,-1.94631 -8.70073,2.16711 -6.12266,4.11343 -12.82237,4.57488 -17.97356,4.30847 -5.151163,-0.26641 -15.560972,0.16001 -19.337091,-3.13217 -3.776093,-3.29221 -11.126841,-0.0339 -11.126841,-0.0339 z"
         id="path2274" />
      <g
         id="g2288"
         transform="matrix(0.73394308,0.13530313,-0.13530313,0.73394308,-99.988916,484.04759)">
        <path
           style="fill:#686868;fill-opacity:0.999756;stroke:none;stroke-width:0.264583px;stroke-linecap:butt;stroke-linejoin:miter;stroke-opacity:1"
           d="m 164.25227,-37.907309 15.846,30.3950736 -17.3435,-28.3742626 z"
           id="path2276" />
        <path
           id="path2278"
           style="opacity:0.999;fill:#5c5c5c;fill-opacity:1;stroke:none;stroke-width:0.723181;stroke-miterlimit:4;stroke-dasharray:1.44636, 2.89273;stroke-dashoffset:0;stroke-opacity:0.45098"
           d="m 149.65946,-34.641344 1.86112,3.22571 0.0125,-0.0072 a 3.1168876,8.4585756 60.016549 0 0 8.85024,-1.582683 3.1168876,8.4585756 60.016549 0 0 5.76903,-6.926866 3.1168876,8.4585756 60.016549 0 0 -0.0932,-0.137645 l -1.7459,-3.026016 z" />
        <ellipse
           style="opacity:0.999;fill:#888888;fill-opacity:0.999756;stroke:none;stroke-width:0.723182;stroke-miterlimit:4;stroke-dasharray:1.44636, 2.89273;stroke-dashoffset:0;stroke-opacity:0.45098"
           id="ellipse2280"
           cx="155.41371"
           cy="44.782391"
           rx="8.4585752"
           ry="3.1168878"
           transform="rotate(-29.98345)" />
        <path
           style="fill:#aeaeae;fill-opacity:0.999756;stroke:none;stroke-width:0.264583px;stroke-linecap:butt;stroke-linejoin:miter;stroke-opacity:1"
           d="m 158.71336,-42.881777 33.54898,-7.030034 -32.00878,9.018489 z"
           id="path2282" />
        <path
           style="fill:#aeaeae;fill-opacity:0.999756;stroke:none;stroke-width:0.264583px;stroke-linecap:butt;stroke-linejoin:miter;stroke-opacity:1"
           d="m 160.49601,-40.86659 -33.54898,7.030034 32.00878,-9.018489 z"
           id="path2284" />
        <path
           style="fill:#686868;fill-opacity:0.999756;stroke:none;stroke-width:0.264583px;stroke-linecap:butt;stroke-linejoin:miter;stroke-opacity:1"
           d="m 159.19701,-40.571866 -16.49121,-30.049893 17.94523,27.997573 z"
           id="path2286" />
      </g>
    </g>
  </g>
</svg>
