<?xml version="1.0" encoding="UTF-8" standalone="no"?>
<svg
   xmlns:dc="http://purl.org/dc/elements/1.1/"
   xmlns:cc="http://creativecommons.org/ns#"
   xmlns:rdf="http://www.w3.org/1999/02/22-rdf-syntax-ns#"
   xmlns:svg="http://www.w3.org/2000/svg"
   xmlns="http://www.w3.org/2000/svg"
   xmlns:sodipodi="http://sodipodi.sourceforge.net/DTD/sodipodi-0.dtd"
   xmlns:inkscape="http://www.inkscape.org/namespaces/inkscape"
   width="89.027512mm"
   height="85.543129mm"
   viewBox="0 0 89.027512 85.543129"
   version="1.1"
   id="svg2592"
   inkscape:version="1.0.2 (1.0.2+r75+1)"
   sodipodi:docname="personIcon.svg">
  <defs
     id="defs2586" />
  <sodipodi:namedview
     id="base"
     pagecolor="#ffffff"
     bordercolor="#666666"
     borderopacity="1.0"
     inkscape:pageopacity="0.0"
     inkscape:pageshadow="2"
     inkscape:zoom="0.7"
     inkscape:cx="40.517296"
     inkscape:cy="220.35519"
     inkscape:document-units="mm"
     inkscape:current-layer="layer1"
     inkscape:document-rotation="0"
     showgrid="false"
     inkscape:snap-nodes="false"
     inkscape:window-width="1920"
     inkscape:window-height="1056"
     inkscape:window-x="0"
     inkscape:window-y="0"
     inkscape:window-maximized="0" />
  <metadata
     id="metadata2589">
    <rdf:RDF>
      <cc:Work
         rdf:about="">
        <dc:format>image/svg+xml</dc:format>
        <dc:type
           rdf:resource="http://purl.org/dc/dcmitype/StillImage" />
        <dc:title></dc:title>
      </cc:Work>
    </rdf:RDF>
  </metadata>
  <g
     inkscape:label="Layer 1"
     inkscape:groupmode="layer"
     id="layer1"
     transform="translate(-57.320447,-76.400987)">
    <g
       id="g3181"
       transform="matrix(2.8003064,0,0,2.8003064,-142.97745,-152.78142)">
      <path
         style="fill:#f8eddc;stroke-width:0.264583"
         d="m 82.248954,98.28813 -0.671608,-1.344185 c -0.369384,-0.7393 -0.942106,-1.641841 -1.272717,-2.005643 -1.254965,-1.380958 -1.476175,-3.820437 -0.413902,-4.564482 0.389043,-0.272497 0.472677,-0.710027 0.467882,-2.447725 -0.0037,-1.357825 0.145101,-2.469323 0.415449,-3.102311 0.419979,-0.983331 1.337702,-1.60475 2.167413,-1.60664 0.23877,-5.45e-4 0.953145,-0.2365 1.5875,-0.524345 1.443927,-0.655198 4.193798,-0.705335 5.935024,-0.112039 2.285439,0.778727 4.640202,3.120405 4.873188,5.288243 0.06816,0.634164 -0.559684,0.169562 -1.069863,0.241807 -0.523977,0.0742 -0.490093,0.820265 -0.342488,1.408368 0.09584,0.381875 0.932207,0.425299 1.106228,1.032781 0.436423,1.523489 0.69436,3.051831 -0.636068,4.506265 -0.268044,0.293028 -0.789914,1.137661 -1.159713,1.876962 l -0.672361,1.344185 c -4.335023,4.750029 -5.762744,4.065229 -10.313964,0.0088 z"
         id="path3189"
         sodipodi:nodetypes="cssscsssssssssscc" />
      <path
         style="fill:#f6d98d;stroke-width:0.264583"
         d="m 72.340648,111.60757 c -0.347825,-0.38435 -0.487788,-0.73285 -0.487788,-2.89868 0,-5.12052 0.623829,-5.66551 6.268328,-8.18648 2.110052,-0.942405 3.396629,-1.340366 4.234054,-1.869905 3.994465,3.101645 4.601262,4.506465 10.443851,-0.105295 -0.254694,0.560579 1.696423,0.827161 3.775609,1.75508 5.811318,2.59354 6.348968,3.28181 6.348968,8.44336 0,2.35 -0.2185,2.35645 -0.62865,2.7276 -0.43822,0.39658 -1.3302,0.66611 -14.873078,0.66611 -14.150459,0 -14.66692,-0.0739 -15.081294,-0.53179 z"
         id="path3187"
         sodipodi:nodetypes="sssccsssss" />
      <path
         style="fill:#cca2a4;stroke-width:0.264583"
         d="m 80.502764,89.832942 c 1.073785,0.112831 1.809351,-1.227031 2.402907,-1.265101 0.265423,-0.01702 0.548934,-0.470052 0.881925,-0.790022 l 0.607117,-0.937138 2.24991,0.875702 c 2.042187,0.794853 5.10947,0.877107 5.10947,0.33612 0,-0.145521 0.428125,-0.01383 0.772994,-0.01383 1.573638,0.960474 1.53773,-0.152393 2.214323,-0.0013 0.587148,0.147364 0.508715,0.537532 0.508715,-0.07144 0,-1.862692 -1.904682,-4.34147 -4.043244,-5.287458 -2.020005,-0.893544 -4.030077,-0.931463 -6.750032,-0.07771 -3.582102,1.124372 -4.173391,1.747327 -4.173391,5.294506 0,1.738945 0.219306,1.937684 0.219306,1.937684"
         id="path3185"
         sodipodi:nodetypes="csscssccssssc" />
      <path
         id="path3207"
         style="fill:#efc88e;fill-opacity:1;stroke:none;stroke-width:4.91815;stroke-linecap:round;stroke-linejoin:round;paint-order:markers stroke fill"
         d="m 350.73633,372.46094 c -22.08223,17.43027 -24.37547,12.12119 -39.47266,0.39844 -1.69915,1.07444 -3.9472,2.02977 -6.84375,3.21289 a 32.51646,39.296466 0 0 0 27.60547,18.53125 32.51646,39.296466 0 0 0 27.19922,-17.76172 c -5.28643,-1.83636 -9.20511,-2.80314 -8.48828,-4.38086 z"
         transform="scale(0.26458333)" />
      <path
         style="fill:#8d6c9e;stroke-width:0.264583"
         d="m 72.056303,111.85117 c -0.453451,-0.45345 -0.529167,-0.88194 -0.529167,-2.99468 0,-3.04397 0.515059,-4.91107 1.674651,-6.07066 0.537357,-0.53736 2.348237,-1.53404 4.834439,-2.66081 l 3.975248,-1.801605 -0.757114,-1.500988 c -0.416413,-0.825543 -0.974573,-1.740625 -1.240356,-2.033516 -0.782161,-0.861936 -1.078535,-1.619812 -1.078535,-2.757994 0,-0.83264 0.138616,-1.160452 0.625634,-1.479558 0.583224,-0.382143 0.61668,-0.535064 0.493553,-2.255928 -0.141993,-1.984532 0.334789,-3.78974 1.205426,-4.564026 0.249432,-0.221828 1.406012,-0.739801 2.570179,-1.151052 5.159729,-1.822713 9.789156,-0.191636 11.395693,4.015022 0.528898,1.384898 0.382445,1.993209 -0.428795,1.781064 -0.53188,-0.139089 -0.560165,-0.08317 -0.378427,0.748142 0.10803,0.494158 0.47849,1.160673 0.823244,1.481147 0.964269,0.896356 0.754046,2.912072 -0.436271,4.183183 -0.274274,0.292891 -0.839269,1.20775 -1.255544,2.03302 l -0.756863,1.500492 3.95031,1.782647 c 4.471402,2.01779 5.516752,2.86204 6.139252,4.95822 0.22612,0.76144 0.39427,2.3792 0.39427,3.7932 0,3.89232 1.65996,3.52385 -15.874995,3.52385 -14.463888,0 -14.829265,-0.0126 -15.345832,-0.52917 z m 30.162497,-3.31579 c 0,-4.54068 -0.51843,-5.18433 -6.240335,-7.74758 l -3.724012,-1.668252 -0.885045,0.826755 c -1.352632,1.263547 -2.356011,1.691297 -3.967273,1.691297 -1.605924,0 -2.614873,-0.42797 -3.950641,-1.675761 l -0.868414,-0.81122 -2.815993,1.218701 c -4.285427,1.85464 -5.655803,2.65387 -6.387867,3.72551 -0.596947,0.87386 -0.670071,1.27351 -0.749763,4.09773 l -0.08831,3.12945 h 14.83883 14.838823 z m -28.46349,1.37266 c -0.253923,-0.66171 -0.0059,-1.62874 0.417659,-1.62874 0.275339,0 0.396875,0.27683 0.396875,0.90399 0,0.93814 -0.546168,1.4241 -0.814534,0.72475 z m 2.645833,0 c -0.253923,-0.66171 -0.0059,-1.62874 0.41766,-1.62874 0.275338,0 0.396875,0.27683 0.396875,0.90399 0,0.93814 -0.546168,1.4241 -0.814535,0.72475 z m 2.645834,0 c -0.253924,-0.66171 -0.0059,-1.62874 0.417659,-1.62874 0.275339,0 0.396875,0.27683 0.396875,0.90399 0,0.93814 -0.546168,1.4241 -0.814534,0.72475 z m 2.645833,0 c -0.253923,-0.66171 -0.0059,-1.62874 0.417659,-1.62874 0.275339,0 0.396875,0.27683 0.396875,0.90399 0,0.93814 -0.546168,1.4241 -0.814534,0.72475 z m 2.645833,0 c -0.253923,-0.66171 -0.0059,-1.62874 0.417659,-1.62874 0.275339,0 0.396875,0.27683 0.396875,0.90399 0,0.93814 -0.546168,1.4241 -0.814534,0.72475 z m 2.645833,0 c -0.253923,-0.66171 -0.0059,-1.62874 0.417659,-1.62874 0.275339,0 0.396875,0.27683 0.396875,0.90399 0,0.93814 -0.546167,1.4241 -0.814534,0.72475 z m 2.645833,0 c -0.253923,-0.66171 -0.0059,-1.62874 0.41766,-1.62874 0.275338,0 0.396875,0.27683 0.396875,0.90399 0,0.93814 -0.546168,1.4241 -0.814535,0.72475 z m 2.645834,0 c -0.253924,-0.66171 -0.0059,-1.62874 0.417659,-1.62874 0.275339,0 0.396875,0.27683 0.396875,0.90399 0,0.93814 -0.546168,1.4241 -0.814534,0.72475 z m 2.645833,0 c -0.253923,-0.66171 -0.0059,-1.62874 0.417659,-1.62874 0.275339,0 0.396875,0.27683 0.396875,0.90399 0,0.93814 -0.546168,1.4241 -0.814534,0.72475 z m 2.645832,0 c -0.253924,-0.66171 -0.0059,-1.62874 0.41766,-1.62874 0.275339,0 0.396875,0.27683 0.396875,0.90399 0,0.93814 -0.546168,1.4241 -0.814535,0.72475 z m 2.645832,0 c -0.253922,-0.66171 -0.006,-1.62874 0.41766,-1.62874 0.27534,0 0.39688,0.27683 0.39688,0.90399 0,0.93814 -0.54617,1.4241 -0.81454,0.72475 z m -11.126715,-9.53457 c 1.280361,-0.534964 2.71061,-2.137043 3.67299,-4.114258 0.465336,-0.956036 1.052917,-1.890585 1.305736,-2.076777 0.523036,-0.385197 1.050192,-2.025431 0.832924,-2.591623 -0.0796,-0.207426 -0.370108,-0.377138 -0.645581,-0.377138 -0.323263,0 -0.500859,-0.186287 -0.500859,-0.52537 0,-0.288953 -0.148828,-1.082642 -0.330729,-1.763753 -0.213487,-0.799381 -0.236935,-1.271221 -0.06615,-1.331015 0.923593,-0.32335 0.978117,-0.532202 0.423005,-1.620309 -1.432619,-2.808166 -5.328666,-3.974117 -8.945892,-2.677193 -2.946965,1.056608 -3.04509,1.114106 -3.415908,2.001597 -0.222918,0.53352 -0.364329,1.850867 -0.364329,3.394003 0,2.298138 -0.04447,2.52204 -0.500859,2.52204 -0.275473,0 -0.576365,0.196765 -0.668651,0.437256 -0.223176,0.581588 0.302731,2.123238 0.86596,2.538486 0.247337,0.182352 0.830434,1.11376 1.29577,2.069796 1.796245,3.690395 4.406878,5.215528 7.042569,4.114258 z M 82.73428,88.168266 c -0.141494,-0.368729 1.044921,-2.246259 1.419416,-2.246259 0.09032,0 0.940241,0.310461 1.88872,0.689912 1.112776,0.44518 2.461819,0.740448 3.803033,0.832377 1.722543,0.118066 2.063693,0.21515 1.991921,0.566859 -0.07122,0.349005 -0.438875,0.416431 -2.06968,0.379568 -1.771416,-0.04004 -2.742339,-0.281831 -5.017397,-1.249485 -0.272087,-0.115727 -0.556112,0.08803 -0.874855,0.627622 -0.518705,0.878097 -0.905515,1.013481 -1.141158,0.399406 z"
         id="path3183" />
    </g>
  </g>
</svg>
