<?xml version="1.0" encoding="UTF-8" standalone="no"?>
<svg
   xmlns:dc="http://purl.org/dc/elements/1.1/"
   xmlns:cc="http://creativecommons.org/ns#"
   xmlns:rdf="http://www.w3.org/1999/02/22-rdf-syntax-ns#"
   xmlns:svg="http://www.w3.org/2000/svg"
   xmlns="http://www.w3.org/2000/svg"
   xmlns:xlink="http://www.w3.org/1999/xlink"
   xmlns:sodipodi="http://sodipodi.sourceforge.net/DTD/sodipodi-0.dtd"
   xmlns:inkscape="http://www.inkscape.org/namespaces/inkscape"
   width="400.68613mm"
   height="400.68613mm"
   viewBox="0 0 400.68612 400.68613"
   version="1.1"
   id="svg8"
   sodipodi:docname="phd.svg"
   inkscape:version="1.0.2 (1.0.2+r75+1)">
  <defs
     id="defs2">
    <linearGradient
       inkscape:collect="always"
       id="linearGradient957">
      <stop
         style="stop-color:#e0fcff;stop-opacity:1"
         offset="0"
         id="stop953" />
      <stop
         style="stop-color:#a0cfe4;stop-opacity:0"
         offset="1"
         id="stop955" />
    </linearGradient>
    <linearGradient
       inkscape:collect="always"
       id="linearGradient939">
      <stop
         style="stop-color:#c96e6e;stop-opacity:1"
         offset="0"
         id="stop935" />
      <stop
         style="stop-color:#bc1414;stop-opacity:0;"
         offset="1"
         id="stop937" />
    </linearGradient>
    <linearGradient
       inkscape:collect="always"
       id="linearGradient915">
      <stop
         style="stop-color:#c96e6e;stop-opacity:1"
         offset="0"
         id="stop911" />
      <stop
         style="stop-color:#bc1414;stop-opacity:0;"
         offset="1"
         id="stop913" />
    </linearGradient>
    <clipPath
       clipPathUnits="userSpaceOnUse"
       id="clipPath905">
      <rect
         style="opacity:0.999;fill:#000000;fill-opacity:1;stroke:none;stroke-width:1.1;stroke-miterlimit:4;stroke-dasharray:none;stroke-opacity:1"
         id="rect907"
         width="233.92039"
         height="119.67435"
         x="-189.61923"
         y="65.346115" />
    </clipPath>
    <radialGradient
       inkscape:collect="always"
       xlink:href="#linearGradient939"
       id="radialGradient919"
       cx="-26.39653"
       cy="186.33594"
       fx="-26.39653"
       fy="186.33594"
       r="105.54934"
       gradientUnits="userSpaceOnUse"
       gradientTransform="matrix(-1.4811234,0.00503917,-0.00292947,-0.86566413,38.861949,277.5726)" />
    <radialGradient
       inkscape:collect="always"
       xlink:href="#linearGradient915"
       id="radialGradient933"
       gradientUnits="userSpaceOnUse"
       gradientTransform="matrix(-3.446549,-0.06777571,-0.01585093,-1.1388065,-235.8324,323.19496)"
       cx="-26.39653"
       cy="186.33594"
       fx="-26.39653"
       fy="186.33594"
       r="105.54934" />
    <radialGradient
       inkscape:collect="always"
       xlink:href="#linearGradient957"
       id="radialGradient951"
       cx="-115.84729"
       cy="98.615143"
       fx="-115.84729"
       fy="98.615143"
       r="412.96899"
       gradientTransform="matrix(0.62390264,5.7090722e-5,-5.0802075e-5,0.49360015,-43.564594,58.170064)"
       gradientUnits="userSpaceOnUse" />
    <clipPath
       clipPathUnits="userSpaceOnUse"
       id="clipPath996">
      <rect
         style="opacity:0.999;fill:#e0fcff;fill-opacity:1;stroke:none;stroke-width:2.662;stroke-miterlimit:4;stroke-dasharray:5.324, 10.648;stroke-dashoffset:0;stroke-opacity:1"
         id="rect998"
         width="547.74811"
         height="206.08804"
         x="-211.40492"
         y="455.91791" />
    </clipPath>
    <filter
       style="color-interpolation-filters:sRGB"
       inkscape:label="Posterize Basic"
       id="filter1632">
      <feGaussianBlur
         stdDeviation="7.59671"
         result="blur1"
         id="feGaussianBlur1620" />
      <feComponentTransfer
         in="blur1"
         result="component1"
         id="feComponentTransfer1628">
        <feFuncR
           type="discrete"
           tableValues="0 0.25 0.5 0.75 1 1"
           id="feFuncR1622" />
        <feFuncG
           type="discrete"
           tableValues="0 0.25 0.5 0.75 1 1"
           id="feFuncG1624" />
        <feFuncB
           type="discrete"
           tableValues="0 0.25 0.5 0.75 1 1"
           id="feFuncB1626" />
      </feComponentTransfer>
      <feComposite
         in="component1"
         in2="SourceGraphic"
         operator="in"
         id="feComposite1630" />
    </filter>
    <filter
       style="color-interpolation-filters:sRGB"
       inkscape:label="Posterize Basic"
       id="filter1646">
      <feGaussianBlur
         stdDeviation="7.59671"
         result="blur1"
         id="feGaussianBlur1634" />
      <feComponentTransfer
         in="blur1"
         result="component1"
         id="feComponentTransfer1642">
        <feFuncR
           type="discrete"
           tableValues="0 0.25 0.5 0.75 1 1"
           id="feFuncR1636" />
        <feFuncG
           type="discrete"
           tableValues="0 0.25 0.5 0.75 1 1"
           id="feFuncG1638" />
        <feFuncB
           type="discrete"
           tableValues="0 0.25 0.5 0.75 1 1"
           id="feFuncB1640" />
      </feComponentTransfer>
      <feComposite
         in="component1"
         in2="SourceGraphic"
         operator="in"
         id="feComposite1644" />
    </filter>
    <clipPath
       clipPathUnits="userSpaceOnUse"
       id="clipPath1693">
      <rect
         style="opacity:0.999;fill:#cb6969;fill-opacity:0.654411;stroke:none;stroke-width:2.662;stroke-miterlimit:4;stroke-dasharray:5.324, 10.648;stroke-dashoffset:0;stroke-opacity:1"
         id="rect1695"
         width="641.11859"
         height="212.04552"
         x="-259.48172"
         y="472.56439" />
    </clipPath>
    <radialGradient
       inkscape:collect="always"
       xlink:href="#linearGradient957"
       id="radialGradient1750"
       gradientUnits="userSpaceOnUse"
       gradientTransform="matrix(0.62390264,5.7090722e-5,-5.0802075e-5,0.49360015,-43.564594,58.170064)"
       cx="-115.84729"
       cy="98.615143"
       fx="-115.84729"
       fy="98.615143"
       r="412.96899" />
    <radialGradient
       inkscape:collect="always"
       xlink:href="#linearGradient939"
       id="radialGradient1752"
       gradientUnits="userSpaceOnUse"
       gradientTransform="matrix(-1.4811234,0.00503917,-0.00292947,-0.86566413,38.861949,277.5726)"
       cx="-26.39653"
       cy="186.33594"
       fx="-26.39653"
       fy="186.33594"
       r="105.54934" />
    <radialGradient
       inkscape:collect="always"
       xlink:href="#linearGradient915"
       id="radialGradient1754"
       gradientUnits="userSpaceOnUse"
       gradientTransform="matrix(-3.446549,-0.06777571,-0.01585093,-1.1388065,-235.8324,323.19496)"
       cx="-26.39653"
       cy="186.33594"
       fx="-26.39653"
       fy="186.33594"
       r="105.54934" />
    <clipPath
       clipPathUnits="userSpaceOnUse"
       id="clipPath2239">
      <rect
         style="fill:#cb6969;fill-opacity:0.654411;stroke-width:1.41542"
         id="rect2241"
         width="340.62399"
         height="340.62399"
         x="-159.81976"
         y="-56.351017" />
    </clipPath>
  </defs>
  <sodipodi:namedview
     id="base"
     pagecolor="#ffffff"
     bordercolor="#666666"
     borderopacity="1.0"
     inkscape:pageopacity="0.0"
     inkscape:pageshadow="2"
     inkscape:zoom="0.25"
     inkscape:cx="925.63278"
     inkscape:cy="793.05527"
     inkscape:document-units="mm"
     inkscape:current-layer="layer1"
     inkscape:document-rotation="0"
     showgrid="false"
     inkscape:window-width="1920"
     inkscape:window-height="1056"
     inkscape:window-x="0"
     inkscape:window-y="0"
     inkscape:window-maximized="0" />
  <metadata
     id="metadata5">
    <rdf:RDF>
      <cc:Work
         rdf:about="">
        <dc:format>image/svg+xml</dc:format>
        <dc:type
           rdf:resource="http://purl.org/dc/dcmitype/StillImage" />
        <dc:title />
      </cc:Work>
    </rdf:RDF>
  </metadata>
  <g
     inkscape:label="Layer 1"
     inkscape:groupmode="layer"
     id="layer1"
     transform="translate(327.8779,-357.69849)">
    <ellipse
       style="opacity:0.999;fill:url(#radialGradient951);fill-opacity:1;stroke:none;stroke-width:2.75413;stroke-miterlimit:4;stroke-dasharray:5.50826, 11.0165;stroke-dashoffset:0;stroke-opacity:1"
       id="path941"
       cx="291.91034"
       cy="114.85671"
       rx="411.59195"
       ry="202.46439" />
    <circle
       style="opacity:0.999;fill:none;fill-opacity:1;stroke:#828282;stroke-width:1.33297;stroke-miterlimit:4;stroke-dasharray:5.3319, 5.3319;stroke-dashoffset:0;stroke-opacity:1"
       id="circle1408"
       cx="9.3099279"
       cy="118.62485"
       r="83.547829" />
    <ellipse
       style="opacity:0.999;fill:none;fill-opacity:1;stroke:#828282;stroke-width:1.75581;stroke-miterlimit:4;stroke-dasharray:3.51161, 7.02323;stroke-dashoffset:0;stroke-opacity:1"
       id="ellipse1196"
       cx="-306.30344"
       cy="117.38055"
       transform="scale(-1,1)"
       rx="194.61375"
       ry="107.0999" />
    <circle
       style="opacity:0.999;fill:url(#radialGradient919);fill-opacity:1;stroke:none;stroke-width:1.33297;stroke-miterlimit:4;stroke-dasharray:5.3319, 5.3319;stroke-dashoffset:0;stroke-opacity:1;filter:url(#filter1632)"
       id="path909"
       cx="9.3099279"
       cy="118.62485"
       r="83.547829" />
    <ellipse
       style="opacity:0.999;fill:url(#radialGradient933);fill-opacity:1;stroke:none;stroke-width:2.10712;stroke-miterlimit:4;stroke-dasharray:4.21422, 8.42845;stroke-dashoffset:0;stroke-opacity:1;filter:url(#filter1646)"
       id="circle931"
       cx="-306.30344"
       cy="117.38386"
       transform="matrix(-1.0278177,0,0,0.68733025,-8.5206587,36.702382)"
       rx="194.43967"
       ry="154.38307" />
    <g
       id="g929">
      <circle
         style="opacity:0.999;fill:#b1d4e8;fill-opacity:1;stroke-width:3.68858"
         id="circle865"
         cx="102.0722"
         cy="116.31304"
         r="43.060623" />
      <g
         id="g876"
         style="fill:#5ba77a;fill-opacity:0.999929"
         transform="matrix(0.75883556,0,0,0.75883556,24.616184,28.05057)">
        <path
           id="path847"
           style="opacity:0.999;fill:#5ba77a;fill-opacity:0.999929;stroke-width:18.3717"
           d="m 388.125,225.15039 -0.30469,0.0996 19.11328,6.17383 -7.49218,3.49805 5.6289,5.80468 11.63477,-1.91211 -0.63281,6.62305 4.19921,6.66211 -14.84765,-5.43359 -2.77344,7.04882 6.58789,7.88086 3.59961,9.99805 -5.06055,0.5 8.63868,11.60937 -9.07422,1.92579 1.52148,4.7539 -7.11719,5.18164 -6.64648,8.4336 -4.13477,-5.42969 -5.06445,-0.32813 7.28125,8.29297 -3.66016,2.38672 -5.24023,-5.08984 -18.67773,-3.01758 -5.27344,-2.71484 -8.90625,2.65039 -7.95899,6 -4.93945,7.87109 -5.08008,7.63477 -10.81836,10.68945 -7.66992,5.58594 1.30078,9.19531 1.61328,5.35351 4.70118,1.68165 4.87109,-5.78907 2.85352,3.375 0.95703,8.88672 -4.09571,2.48633 0.91407,-6.85742 -4.85157,-0.29297 -3.19336,5.73437 0.0899,6.59375 -1.67774,5.92969 -5.98242,0.53906 -4.61914,4.36719 c 0,0 0.14642,1.89709 -0.56055,2.73633 -0.70697,0.83924 -7.35351,6.18555 -7.35351,6.18555 l -7.33399,3.46289 c 0,0 -3.28353,-1.97541 -3.23828,-1.59961 0.0452,0.37568 -3.04101,5.46094 -3.04101,5.46094 0,0 -5.22708,-1.50049 -5.10157,-1.13282 0.12552,0.36775 2.36719,6.38282 2.36719,6.38282 l 4.96289,9.39648 -3.34179,9.92773 -20.5293,-4.49414 -2.80469,15.96485 -5.36914,7.73437 5.37305,10.87696 4.3164,4.02343 -10.43554,11.38868 -6.27539,15.0625 -8.61133,4.45507 -11.31445,17.38086 1.00195,13.86328 -1.02539,14.87696 7.02929,17.26172 20.05665,23.69921 10.58789,9.11719 17.86718,3.32422 16.02539,-0.74414 16.41016,1.97852 3.20117,6.50195 14.58789,1.66992 2.8711,13.2793 28.74218,24.39844 -3.04492,7.70312 8.11914,7.44141 9.94922,1.19336 9.04297,4.76367 10.73437,0.21484 a 214.47178,214.47178 0 0 0 36.88477,-6.01172 l 9.20703,-5.09961 10.03711,-6.59961 -4.26172,-4.66601 23.8125,-13.91016 -2.02343,-12.96094 c 0,0 -5.27218,-3.50568 -4.33399,-4.82617 0.93819,-1.32045 7.97266,-12.71093 7.97266,-12.71094 l 27.5332,-33.59179 4.61523,-23.72071 -0.29492,-6.21093 -25.45508,20.72461 -9.08984,-9.45508 -23.2207,-10.23438 -26.47071,-37.64257 c 0,0 3.10154,-4.15877 4.69922,-3.58594 1.59765,0.57286 24.70508,19.76826 24.70508,20.76367 0,0.99541 24.97852,31.74414 24.97852,31.74414 l 31.71679,-29.91211 15.375,-24.77148 -2.85156,-16.74024 -10.58984,-6.02343 -10.71289,12.54492 -14.32032,-2.23828 -10.51562,-12.4375 c 0,0 2.907,-4.88766 3.98828,-4.12696 1.08125,0.76071 15.98633,6.11524 15.98633,6.11524 l 19.02148,-5.35157 20.87891,-13.36132 c 0,0 12.97461,2.34446 12.97461,3.56445 0,1.21999 5.80469,2.67187 5.80469,2.67187 l 2.43945,-7.97461 c 0,0 18.16669,34.77624 19.04883,34.59766 0.88214,-0.17839 6.21875,-9.9043 6.21875,-9.9043 l -0.38672,10.70313 4.42969,-6.90234 -2.35938,-7.34766 -4.89648,-12.19922 -1.16211,-30.77539 0.0762,-15.96289 2.52148,-7.11914 5.76368,9.30469 4.69921,1.28515 0.38672,17.11133 5.69727,22.60547 a 214.47178,214.47178 0 0 0 0.0254,-3.24219 A 214.47178,214.47178 0 0 0 388.125,225.15039 Z m -0.32422,85.10938 0.5586,4.81445 -1.75586,3.45898 -8.08204,-0.0293 -6.00976,-6.97461 12.0918,-0.70899 z m -31.9043,9.86718 2.58204,1.23243 -5.76368,9.60351 1.5625,11.85547 4.04102,-0.55664 11.13086,-3.33789 3.51367,1.53125 -13.03711,7.66992 c 0,0 2.10055,2.95547 2.625,3.49805 0.52446,0.54257 -1.02344,4.03515 -1.02344,4.03515 0,0 -3.65039,-3.08037 -3.65039,-3.4375 0,-0.35714 -3.76757,3.7717 -3.76757,4.27344 0,0.50174 1.14843,7.77539 1.14843,7.77539 l -5.46875,3.58203 c 0,0 -13.65708,4.08765 -14.10351,4.00586 -0.44643,-0.0818 -8.24219,-1.6289 -8.24219,-1.6289 l 6.13281,-5.17774 7.92578,-4.52148 1.21289,-8.67383 5.08008,-6.54492 -3.625,-4.12696 0.4668,-8.71875 6.15625,-4.97461 0.60547,-4.57812 z m 97.46094,56.20313 5.00586,0.82422 -0.73242,4.52734 -2.29492,5.05859 c 0,0 9.02269,4.9119 9.6914,5.11524 0.66872,0.20345 8.88672,8.42773 8.88672,8.42773 l 9.35352,15.50391 -9.15039,4.12305 -9.43555,-4.70508 -2.57031,-11.26563 -12.16992,-9.71289 -3.69532,-8.28906 c 0,0 6.51341,-8.87484 7.11133,-9.60742 z m -60.76758,21.79492 10.8125,8.01562 10.35743,-7.02148 16.46679,6.75 5.32032,5.09766 -8.44141,7.49804 -16.91602,-2.69726 -9.30468,9.0625 -8.08789,1.98828 -7.38672,-3.04297 c 0,0 2.652,-16.58236 2.53711,-17.15039 -0.11479,-0.56799 4.64257,-8.5 4.64257,-8.5 z m -62.24414,13.66016 c 0,0 12.7535,7.41842 12.86719,7.88281 0.11369,0.46439 8.58984,7.04883 8.58984,7.04883 0,0 6.54382,9.84284 6.63477,11.99218 0.091,2.14938 7.08389,12.0229 7.38281,12.75 0.29893,0.72711 4.91602,2.55274 4.91602,2.55274 l 6.4414,-8.29492 -3.90625,-8.34375 4.70704,-9.61133 c 0,0 6.59374,5.87549 6.17773,7.14258 -0.41597,1.26705 1.23242,14.35742 1.23242,14.35742 0,0 13.33789,0.63115 13.33789,0.98828 0,0.35717 13.69532,-1.68874 13.69532,-2.20703 0,-0.51825 8.13085,-4.86719 8.13085,-4.86719 0,0 6.25196,6.70722 6.25196,7.57031 0,0.86306 -6.86524,18.63672 -6.86524,18.63672 0,0 -11.61548,4.64355 -12.44531,4.75391 -0.82979,0.11036 -9.17817,1.74411 -11.4375,1.53711 -2.25936,-0.20712 -18.53385,-3.48799 -19.42578,-3.49219 -0.89193,-0.004 -8.73497,1.68393 -9.10547,2.31836 -0.37047,0.63447 -3.50195,5.28821 -3.50195,6.7168 0,1.42854 -2.34989,2.73971 -3.28906,2.91992 -0.93918,0.18028 -9.07418,-1.98294 -10.38086,-2.66016 -1.30668,-0.67718 -10.42383,-6.22656 -10.42383,-6.22656 l -9.71485,-2.36914 -4.07226,-5.98828 c 0,0 2.01858,-6.32088 1.89844,-6.76758 -0.12016,-0.44666 -4.85157,-10.19336 -4.85157,-10.19336 l -19.04687,4.17383 c 0,0 -22.21485,1.21875 -22.21485,2.46875 0,1.25 -5.87109,3.27539 -5.87109,3.27539 l -2.88086,-1.99414 -0.39844,-0.5293 -2.02734,-4.46094 5.46094,-0.65039 4.00586,2.07422 8.57031,-8.54297 0.29492,-11.39843 7.03906,-2.28907 6.22657,-5.35156 -1.47657,-2.99219 7.20703,1.07422 8.33399,-3.29883 c 0,0 4.05859,-3.20796 4.05859,-2.68359 0,0.52441 6.01953,6.81836 6.01953,6.81836 l 2.75,8.60156 c 0,0 6.54093,1.08381 8.15821,2.79102 1.61728,1.70717 12.95898,10.66601 12.95898,10.66601 l -16.74023,1.08789 7.34375,8.60157 11.39062,-5.38867 c 0,0 1.14673,-8.18118 0.69532,-8.64844 -0.45141,-0.46723 -6.28676,-13.93112 -8.13282,-14.69727 -1.84605,-0.76611 -13.24804,-8.05859 -13.24804,-8.05859 z"
           transform="scale(0.26458333)" />
        <path
           style="fill:#5ba77a;fill-opacity:0.999929;stroke:none;stroke-width:0.264583px;stroke-linecap:butt;stroke-linejoin:miter;stroke-opacity:1"
           d="m 78.715358,92.225901 -2.587154,0.804185 -0.191685,3.202028 -2.650863,0.55898 -1.66647,3.039549 0.814199,1.069047 2.21565,-1.011911 1.514332,-2.697953 0.658011,1.26474 -1.326573,1.642094 -1.056759,2.70626 4.478025,-0.47871 1.302203,-2.30141 -1.751304,-2.502555 -0.100012,-2.704697 z"
           id="path851" />
      </g>
    </g>
    <path
       id="path898"
       style="fill:#000000;fill-opacity:1;stroke:none;stroke-width:1.1;stroke-miterlimit:4;stroke-dasharray:none;stroke-opacity:1"
       d="m -107.1205,83.304023 c -0.90565,0.324939 -0.58761,1.473495 -0.70162,2.211672 -0.0632,1.521481 0.16944,3.114077 -0.27885,4.581297 -0.78124,1.096516 -0.46312,2.453858 -0.64298,3.705691 -0.049,2.19796 -0.26164,4.386637 -0.57457,6.560057 -0.4027,4.51864 -0.48158,9.04023 -0.68284,13.57996 -0.5731,-0.0332 -1.09161,0.30729 -1.11131,0.91994 -0.33474,2.78752 -0.40174,5.55221 -0.5508,8.35349 -0.60717,0.16199 -1.46435,-0.0655 -1.40838,-0.83233 -0.0117,-2.94033 -0.0232,-5.89829 -0.0831,-8.84512 -0.1135,-0.85533 0.12808,-1.82375 -0.32102,-2.59403 -0.38836,-0.65187 -1.27775,-0.17733 -1.30664,0.46875 -0.19334,1.76618 -0.14799,3.55221 -0.17969,5.32812 -0.72534,0.0621 -0.95656,0.76896 -0.94922,1.39454 -0.27479,2.40072 -0.28067,4.79848 -0.47461,7.22656 -0.78407,0.0277 -1.1135,0.79074 -1.11349,1.47663 -0.17036,0.98142 0.19724,2.19987 -0.63651,2.9472 -0.60069,1.28763 0.066,2.82264 -0.59375,4.11328 -0.42742,0.97759 -0.30603,2.08464 -0.80622,3.05396 -0.35993,0.69167 -0.0574,1.50927 -0.37737,2.22143 -1.77484,0.33698 -3.57192,0.3919 -5.35547,0.42773 -0.85652,-0.13047 -1.75419,-0.57729 -2.58216,-0.10032 -1.5385,0.38555 -3.14718,0.20396 -4.71715,0.3168 -15.34497,0.259 -30.69318,0.17551 -46.03975,0.20986 -24.63564,0.0143 -49.27226,-0.0212 -73.90687,0.20957 -1.25606,0.0588 -2.62857,-0.0142 -3.77556,0.49105 1.4818,0.74945 3.18346,0.80482 4.81641,0.75781 7.15163,0.12517 14.30703,0.0234 21.45937,0.15045 24.97986,0.0461 49.95961,-0.0817 74.93944,-0.10618 8.5697,-0.0458 17.14361,-0.0371 25.70861,-0.32552 0.86951,-0.0607 1.66784,-0.33225 2.56446,-0.41406 1.70065,0.44844 3.49937,0.46184 5.20545,0.0591 0.91921,-0.0283 1.83328,0.0954 2.74962,0.14402 0.19678,-0.75916 0.37938,-1.52194 0.56836,-2.2832 0.41787,0.33751 1.11014,0.96098 1.54883,0.29101 0.0767,-0.66772 0.38325,-0.54111 0.83203,-0.61914 0.37225,-0.34878 0.95894,-0.19659 1.19531,0.22461 0.59789,0.44612 0.90359,-0.51794 0.90858,-0.9744 0.14405,-0.46256 -0.17275,-1.23958 0.48628,-1.32231 0.91759,-0.48869 0.65636,-1.74201 0.80385,-2.60584 -0.15233,-1.00114 0.38034,-0.5506 0.89709,-0.13804 0.70425,0.33817 1.13914,-0.60079 1.03961,-1.18655 0.13743,-2.0831 0.0416,-4.1743 0.19077,-6.25723 0.57103,0.15204 1.312,-0.0122 1.39062,-0.69727 0.22721,-3.82065 0.14593,-7.72566 0.34946,-11.58641 0.12722,-3.17042 0.1889,-6.36408 0.47856,-9.5137 0.26665,-0.55713 0.53831,-1.50716 0.7839,-0.4143 0.4571,0.9248 0.18601,2.01622 0.31106,3.017 0.15893,4.9886 0.38033,9.95643 0.9253,14.9199 0.1749,1.59633 0.11129,3.22162 0.29625,4.80798 0.16692,0.62663 1.07744,0.81249 1.29688,0.10742 0.49829,-1.04873 0.18166,-2.27991 0.51562,-3.35742 0.19018,-0.42222 0.83796,-0.67089 1.20391,-0.51774 0.31762,0.35686 0.38496,0.91186 0.83977,1.11202 0.46555,0.7174 0.12514,1.62173 0.26238,2.42192 0.0598,0.9139 -0.0192,1.9318 0.43613,2.74747 0.44604,0.40908 1.356235,0.13157 1.15488,-0.56941 0.171375,-6.05683 0.336365,-12.11382 0.501365,-18.17082 0.57127,0.84089 1.40255,1.6223 1.36719,2.7207 -0.0856,0.61951 0.66126,1.42998 1.1914,0.78711 0.60845,-1.55906 0.43769,-3.28801 0.68158,-4.92403 0.17115,-2.34569 0.48413,-4.68193 0.94928,-6.98417 0.022,-0.49817 -0.0782,-1.08191 0.47678,-1.31201 0.42527,-0.60306 0.54267,0.35552 0.65799,0.69482 0.64062,3.77732 0.67725,7.61519 1.4304,11.29868 0.5463,2.1203 0.52517,4.33079 0.85569,6.48817 0.24242,1.94869 0.42382,3.94115 0.82328,5.84596 0.23024,0.56304 0.95651,0.46462 1.14454,-0.0723 0.44403,-1.09274 0.42034,-2.31782 0.60657,-3.47253 0.50867,-4.68811 0.50859,-9.43721 1.30042,-14.08956 0.22479,-0.35784 0.45991,-1.85179 0.67219,-0.83329 0.61575,1.51272 0.56787,3.18965 0.75901,4.79241 0.28646,3.47852 0.31724,6.95895 0.6911,10.42328 0.019,0.60488 0.89042,1.11049 1.2168,0.42969 0.37857,-0.98404 0.21358,-2.09154 0.37777,-3.12664 0.16825,-1.61012 0.16223,-3.25226 0.40251,-4.84487 0.20776,-0.44861 0.3849,-1.68413 0.65268,-0.59037 0.60578,0.83271 0.23164,1.94139 0.7311,2.7982 0.47491,0.62844 1.25599,-0.0137 1.255,-0.63796 -0.002,-0.56565 0.80233,-0.69619 1.01067,-0.26892 0.16692,0.53927 0.31569,1.37417 1.07058,1.27984 0.9802,-0.0466 1.31502,-1.08665 1.35125,-1.91006 0.51065,-0.30477 1.02039,-0.6164 1.00781,0.24023 0.30227,2.19391 0.37624,4.43863 0.91016,6.58984 0.49111,0.72315 1.75479,0.49046 1.89493,-0.40547 0.25057,-0.42631 0.5977,-1.67976 0.66562,-0.54132 0.55011,2.76256 1.4674,5.45725 1.63895,8.28576 -0.0807,0.68047 0.82566,1.16925 1.25167,0.55166 0.51788,-1.3917 0.4882,-2.95361 0.8071,-4.39373 0.22913,-0.43716 0.46484,-1.65705 0.68101,-0.55218 0.55779,1.20569 0.37153,2.58648 0.60565,3.87215 0.12547,0.67708 0.13158,1.43715 0.46093,2.0386 0.83997,0.38863 1.4213,-0.65486 1.56445,-1.34375 0.29604,-1.41932 0.11047,-2.89272 0.42527,-4.31302 0.47483,-3.95427 0.47283,-7.9188 0.69166,-11.90345 -0.19644,-0.60515 0.47148,-1.162 1.01465,-0.80806 0.52708,0.1665 0.83158,-0.64559 0.91742,-1.07069 0.14773,-0.60823 0.29546,-1.21647 0.44319,-1.8247 0.41169,1.17825 0.58741,2.4502 1.12891,3.57422 0.35698,0.53857 1.00177,0.15037 1.37695,-0.14844 0.37678,0.49359 1.01422,0.41316 1.55469,0.51953 0.52312,1.95193 0.42736,4.14011 1.55469,5.88086 0.78233,0.66578 0.25108,2.10999 1.26757,2.54688 0.71643,0.0713 0.91843,-0.86228 1.15872,-1.381 0.41102,-0.94651 0.30403,-2.08231 1.03963,-2.87845 1.59442,-2.15257 1.41469,-4.97391 1.88946,-7.48973 -0.10539,-0.88578 0.45757,-0.39302 0.94735,-0.22348 0.80195,-0.0505 0.75335,-1.10808 1.08521,-1.64655 0.27233,-1.0319 0.37701,-0.59135 0.43943,0.22043 0.31775,1.9817 0.45305,4.01048 0.97731,5.90464 0.5573,0.12215 1.00145,0.5881 0.90134,1.18546 0.23747,2.23883 0.19775,4.54886 0.91702,6.70321 0.37453,0.51958 1.21379,0.2092 1.17969,-0.42969 0.18495,-0.89195 0.23979,-1.96998 0.96094,-2.5918 0.42358,-0.14688 0.54343,-0.74342 1.08984,-0.68945 0.53792,-0.48279 0.70797,-0.14617 1.18354,0.22049 0.48263,0.11876 1.03615,0.39428 0.94726,0.97931 0.33421,2.2572 0.88942,4.48443 0.94537,6.77676 0.10149,0.91193 0.0508,1.99294 0.65625,2.73047 0.69322,0.20174 1.0542,-0.6197 0.96662,-1.19386 0.0187,-0.87616 0.32357,-1.73155 0.79705,-2.44481 0.86098,-0.53944 1.07428,-1.57588 1.47852,-2.43555 0.38188,0.32105 0.95184,0.84957 1.39453,0.29883 0.46158,-0.60686 0.53549,-1.42235 0.83399,-2.11523 0.2994,0.70557 0.21774,1.64275 0.80468,2.18359 0.79486,0.39726 1.22356,-0.73957 1.2461,-1.36523 0.13778,-0.92658 0.0266,-2.13835 0.98582,-2.64961 0.7305,-0.66715 0.7379,-1.73343 1.0298,-2.61797 0.82857,-0.12911 0.9618,-1.06543 1.16602,-1.72266 1.11722,-0.25369 0.99886,-1.57322 1.14795,-2.45545 0.26392,-1.64863 0.28576,-3.29398 0.56565,-4.92998 0.23096,-0.57047 0.45634,-1.58508 0.70852,-0.46946 0.35199,0.79322 0.41975,1.67977 0.87595,2.4415 0.49695,0.78267 0.16976,1.97893 1.02224,2.53253 0.65095,0.23105 1.06434,-0.49058 1.51172,-0.82226 0.43934,0.98426 0.44214,2.16187 1.10547,3.03515 0.54818,0.23919 1.02738,0.71437 1.01367,1.36524 0.40512,2.30198 0.49726,4.75823 1.76715,6.79565 0.13231,0.6953 0.44863,0.56929 0.90208,0.25715 0.5473,-0.1753 1.33079,0.0864 1.22139,0.77142 0.0638,0.63281 0.87792,1.32819 1.40039,0.70312 0.33901,-0.43395 0.32766,-1.02963 0.71876,-1.42578 0.18365,-0.49539 0.33813,-1.05243 0.88476,-1.24805 0.91844,-0.90525 0.95205,-2.30025 1.35547,-3.46093 0.41553,0.28997 0.91376,1.16146 1.47656,0.67578 0.74431,-0.83465 0.81089,-2.02656 1.4375005,-2.93946 0.39276,0.39775 1.07431,0.8831 1.54297,0.30469 0.555572,-0.91217 0.969587,-1.90788 1.449219,-2.86328 0.494286,2.19324 0.658311,4.43534 0.98697,6.65377 0.108241,0.55957 0.122996,1.48076 0.911468,1.44193 0.611776,-0.0193 0.553964,-1.0411 1.203125,-0.57812 0.496445,-0.36322 1.225604,-0.0654 1.215883,0.57635 0.189219,0.70451 0.605016,1.84079 1.543883,1.5174 1.085839,-0.38366 1.555185,-1.54323 2.191406,-2.40625 0.297174,1.08222 0.341387,2.40771 1.3457029,3.11914 0.266745,0.69728 0.08421,1.86381 0.978515,2.09961 1.248568,0.0787 1.989381,-1.27685 2.108762,-2.36657 0.09766,-0.52889 0.196774,-1.05748 0.293582,-1.58656 1.082406,0.007 1.256352,-1.25501 1.444237,-2.07016 0.386755,-1.54879 0.85836,-3.12686 1.684338,-4.49337 0.719003,-0.56933 0.921956,-1.45452 1.0608776,-2.31147 0.133785,-0.65701 0.308474,-1.20331 0.952819,-0.57283 0.700431,0.19047 1.148669,-0.56918 1.553041,-1.00725 0.93862,1.30495 1.831348,2.64953 2.789707,3.93443 0.475456,0.55918 1.226697,0.78091 1.930996,0.58901 0.213599,0.85664 0.201451,2.2028 1.236328,2.47656 0.375785,-0.23557 1.163372,-0.14558 1.234375,0.47852 0.376965,0.9565 0.905498,2.1401 2.021484,2.37695 0.418349,-0.34628 1.059596,-0.35577 1.365235,0.14063 0.501876,0.36283 1.009534,-0.11849 1.303554,-0.45583 1.094595,-0.20691 1.049181,-1.55576 1.510899,-2.34495 0.644463,-0.98132 0.794704,-2.16604 0.914062,-3.30664 0.656843,0.23286 1.311727,0.64595 1.376746,1.40587 0.14799,0.60049 0.757372,0.90146 1.259891,1.09124 0.291948,0.63192 1.120797,0.67356 1.580601,0.20403 0.511188,-0.45824 0.359726,0.67047 0.550341,0.97268 0.218289,0.83688 0.156152,2.01065 1.029296,2.45508 0.790405,0.0187 1.005957,-0.897 1.373047,-1.41406 0.42375,-0.33075 0.888592,0.0419 1.183594,0.36133 0.475064,-0.0849 0.931615,0.14042 1.302734,0.39453 0.461371,0.0725 1.074215,-0.88376 1.278453,-0.44996 0.377736,1.43729 0.840654,2.99818 2.043813,3.96754 0.448235,-0.26673 0.70064,-0.76618 1.064453,-1.13086 0.528394,1.24261 0.598992,2.69678 1.422808,3.79832 0.769144,1.05101 2.588453,0.28573 2.539223,-0.96453 0.306333,-1.38122 0.490366,-2.75164 0.727422,-4.1541 0.486423,0.35859 1.116296,1.03411 1.732422,0.50195 0.720899,-0.58919 0.325228,-1.84726 1.270912,-2.2768 0.635958,-0.79667 0.595674,0.36273 0.787682,0.84711 0.226326,0.93333 0.789045,2.01691 1.89089,2.01642 0.769385,0.14924 1.976202,0.21397 2.165879,-0.78445 0.155614,-0.92488 0.504874,-1.80251 1.17045,-2.48239 0.512333,-0.98364 0.401759,0.33431 0.518875,0.81097 0.222525,1.27413 0.142021,2.71437 0.884765,3.81836 0.68583,0.2304 1.20099,-0.46191 1.6875,-0.82813 0.469367,0.91167 0.57269,2.19913 1.556641,2.72461 0.728746,0.31672 0.897956,-0.65047 1.330078,-0.96094 0.549152,-0.43658 1.192039,0.33061 1.711761,-0.15213 0.549659,-0.27696 1.203268,-0.48942 1.362471,-1.17195 0.791515,-2.57505 1.120555,-5.27344 1.968737,-7.83607 0.507766,0.39097 1.218963,1.22126 1.886718,0.66406 0.417456,-0.52197 1.155951,-0.6502 1.736329,-0.9375 0.476584,0.24442 1.043793,0.18223 1.451171,-0.16601 0.832558,0.34501 1.337899,1.10401 1.886719,1.76367 1.150005,0.84619 3.070048,0.44725 3.5625,-0.96289 0.269991,-0.45638 0.958999,-0.46501 1.181641,0.0351 0.386703,0.38233 1.222474,0.13191 1.240234,0.81836 0.267707,0.71206 1.36113,0.9098 1.748047,0.19141 0.371363,-0.42763 0.941712,-0.21457 1.304688,0.0762 0.610243,0.0889 0.963178,-0.55709 1.042968,-1.07227 0.773092,0.0108 0.94742,-1.02643 1.730469,-1.0332 0.844417,-0.58586 0.806034,-1.78111 1.332031,-2.59961 0.311239,-0.66172 0.482856,-1.37326 0.671875,-2.07617 0.899599,0.33429 2.197574,1.02912 2.960938,0.084 0.236653,-0.45911 0.750935,-1.04687 1.279297,-0.5957 0.364083,0.61192 1.003863,1.68777 1.847653,1.20508 0.74022,-0.62074 0.88533,-1.6703 1.41407,-2.45117 0.75873,0.71787 1.89114,1.53129 2.93914,0.87707 0.43029,-0.0113 0.50208,0.94534 1.09276,0.99183 0.71892,-0.1067 1.0299,0.1192 0.96823,0.8811 0.13344,0.87586 0.48786,1.79718 1.275263,2.28125 0.44717,1.59066 1.11128,3.10691 1.70117,4.64648 1.38,-1.11507 2.77135,-2.28961 3.68164,-3.83789 0.52155,0.0352 1.117,-0.12344 1.31055,-0.66797 1.54428,-0.60187 2.16074,-2.26241 2.84399,-3.62187 0.70968,-1.12301 1.96712,-1.7173 2.87157,-2.62319 0.17422,-0.54663 0.91477,-0.8439 1.30787,-0.33306 0.49018,0.37451 1.13067,0.34391 1.67578,0.11719 0.21724,0.60254 0.75262,1.64345 1.53125,1.20703 0.46894,-0.71751 -0.26834,-1.52434 -0.59101,-2.16536 -0.29573,-0.49993 -0.88933,-0.7846 -1.42852,-0.50652 -0.9704,-0.0152 -1.28976,-1.17788 -1.6021,-1.9187 -0.20032,-0.45744 -0.38948,-1.42635 -0.61749,-0.41968 -0.46243,0.96673 -0.79866,2.03623 -1.33217,2.94297 -1.69438,1.01935 -2.97028,2.63271 -3.72824,4.44111 -0.54051,1.0031 -1.57315,1.60387 -2.62429,1.93477 -0.88172,0.60443 -1.03008,1.8402 -2.01953,2.32617 -0.38814,0.29353 -1.06122,0.26798 -1.13581,-0.30705 -0.45753,-0.8529 -0.58197,-1.88715 -1.05951,-2.70076 -0.63596,-0.26541 -0.72761,-0.93347 -0.78747,-1.53313 -0.13835,-0.79833 -0.544943,-1.88125 -1.528933,-1.79304 -0.82971,-0.2478 -0.74187,-1.59153 -1.72852,-1.65039 -0.62789,-0.1115 -0.71808,0.85268 -1.37305,0.74414 -0.86118,-0.0838 -1.45939,-1.27792 -2.41406,-0.91992 -0.53813,0.59482 -0.62198,1.47981 -1.0227,2.17063 -0.23846,0.47017 -0.5681,-0.79844 -0.858637,-1.06263 -0.289117,-0.53987 -0.982152,-1.21319 -1.572211,-0.64768 -0.569469,0.47984 -0.855296,1.19923 -1.33942,1.75647 -0.955551,-0.0652 -2.138419,-0.66348 -2.958984,0.0762 -0.502991,0.92689 -0.596585,2.0273 -1.183622,2.91573 -0.350139,1.11335 -1.059625,2.31005 -2.316378,2.50419 -0.732549,-0.16488 -0.916412,-1.39155 -1.802734,-1.06641 -0.295962,0.28944 -0.548118,0.87502 -1.080078,0.61914 -0.305858,-0.2317 -0.607282,-0.20546 -0.962891,-0.24609 -0.703035,-0.26911 -0.496144,-1.46265 -1.392578,-1.50586 -0.789687,-0.0581 -0.988818,1.00314 -1.224452,1.51097 -0.230806,0.76669 -0.595158,1.48114 -1.084142,2.11598 -1.233493,-0.74257 -2.316246,-1.77131 -3.021484,-3.0293 -0.647629,-0.54557 -1.248034,0.48101 -1.828324,0.57901 -1.002156,-0.41727 -1.502933,1.12211 -2.503708,0.75693 -0.773477,-0.47697 -1.685519,-0.32946 -2.546875,-0.26172 -0.689624,2.90362 -1.228252,5.91261 -2.158203,8.78711 -0.474797,-0.32654 -1.13069,-0.64818 -1.59375,-0.10547 -0.280982,0.40968 -0.810661,0.95065 -1.296875,0.49024 -0.517985,-0.75438 -0.701647,-1.99164 -1.748047,-2.20703 -0.55254,0.0887 -1.185614,0.55606 -1.044921,-0.36328 -0.221991,-1.34349 -0.177359,-2.77079 -0.707032,-4.03711 -0.704838,-0.61855 -1.754242,0.14374 -1.886718,0.93945 -0.460058,0.87335 -1.574388,1.36247 -1.570313,2.46094 -0.09325,1.03698 -1.690145,0.78031 -1.75,-0.14258 -0.259871,-0.858 -0.737439,-2.02661 -1.767578,-2.11133 -0.639979,0.2108 -1.29696,0.43019 -1.845703,0.82422 -0.71769,0.20048 -0.9718,-0.83924 -1.707032,-0.70313 -0.656775,-0.0515 -0.710783,0.64526 -0.757476,1.12772 -0.413628,2.22647 -0.658089,4.48593 -1.236664,6.67892 -0.619193,-1.42332 -0.822901,-2.99435 -1.517578,-4.38281 -0.259848,-0.49771 -0.856533,-1.10223 -1.414063,-0.61328 -0.542895,0.61652 -0.915897,0.65899 -1.004944,-0.23591 -0.465369,-1.26311 -0.526387,-2.82324 -1.606384,-3.75042 -0.551951,-0.19844 -0.871153,0.43438 -1.233779,0.65659 -0.627786,0.18277 -1.424233,0.0911 -1.680283,-0.60581 -0.431573,-0.53106 -1.334035,-0.45801 -1.579964,0.2178 -0.436832,0.96318 -0.598263,0.28615 -0.757927,-0.40139 -0.257032,-0.66429 -0.353228,-1.86471 -1.273438,-1.86719 -0.646281,0.15787 -0.866428,0.86182 -1.205078,1.35157 -0.741147,-0.9277 -1.155372,-2.1295 -2.204178,-2.77853 -0.525557,-0.45437 -1.620978,-0.75123 -1.885981,0.14115 -0.617308,1.26989 -0.651685,2.76055 -1.400075,3.97722 -0.04457,0.53684 -0.416082,1.17316 -1.033203,0.90039 -0.322572,-0.48341 -0.494479,-1.25663 -1.242188,-1.20703 -0.481842,0.009 -0.67245,0.74841 -1.216541,0.46368 -0.608102,-0.44923 -0.473405,-1.39191 -0.990981,-1.95307 -0.215885,-0.48676 -0.691789,-0.48425 -1.106931,-0.33483 -0.903825,-0.0984 -0.570311,-1.30871 -1.1215,-1.80097 -0.427802,-0.52691 -1.191054,-0.37732 -1.587875,0.10513 -0.333248,0.0256 -0.610584,-0.66718 -0.849219,-0.97603 -0.314422,-0.73912 -0.685842,-1.45267 -1.289062,-1.9961 -0.701273,-0.84029 -0.588243,-2.10059 -1.316406,-2.89648 -0.575775,-0.3033 -1.139265,0.20469 -1.322266,0.71875 -0.425471,0.50649 -1.269156,0.0751 -1.6486136,0.70954 -0.819182,0.96016 -0.914251,2.28631 -1.335088,3.42107 -0.265633,0.49827 -0.94453,0.6202 -1.038381,1.25467 -0.475345,1.62628 -0.899201,3.27943 -1.540381,4.8521 -0.127267,0.49401 -0.49413,0.74482 -0.871244,1.02674 -0.587476,0.89279 -0.60861,2.0232 -0.921761,3.02494 -0.421732,-0.74333 -1.222256,-1.24786 -1.482421,-2.07227 -0.349399,-1.19619 -0.526398,-2.64081 -1.6471779,-3.42233 -0.747527,-0.28518 -1.16295,0.69117 -1.17145,1.29924 -0.149215,0.57087 -0.152124,1.45055 -0.907935,1.5313 -0.745657,-0.34865 -0.661712,-1.33651 -0.935749,-2.01091 -0.360997,-1.05009 -0.342014,-2.18662 -0.662557,-3.23625 -0.109686,-0.61087 -0.945855,-0.76207 -1.165366,-0.13956 -0.259004,0.77941 -0.441721,1.58326 -0.763672,2.34765 -0.522485,-1.1269 -0.6492,-2.35021 -0.884133,-3.55395 -0.239738,-0.91623 -0.490957,-1.99489 -1.27407,-2.59058 -0.772704,-0.25083 -1.373964,0.54136 -1.421878,1.23633 -0.23169,0.54217 -0.90505,0.38684 -1.26367,0.0781 -0.9869305,0.0378 -1.2771605,1.23806 -1.5878905,1.99218 -0.29173,0.59222 -1.07783,0.29498 -1.16236,-0.28102 -0.0799,-0.54331 -0.79894,-1.01636 -1.18334,-0.44749 -0.83893,1.91986 -0.65616,4.20815 -1.50391,6.19726 -0.53747,-0.1593 -0.99295,0.68169 -1.48047,0.16407 -0.35862,-0.62817 -0.3715,-1.48415 -0.89062,-2.06641 -0.3748,-0.57268 -1.05946,-0.66178 -1.66211,-0.47656 -0.82535,-0.0452 -0.66397,-1.0112 -0.75734,-1.58324 -0.16113,-1.04507 -0.28202,-2.28288 -1.09227,-3.02809 -0.95009,-0.42213 -0.84189,-1.61872 -1.19231,-2.44023 -0.32406,-1.04022 -0.50186,-2.14582 -0.91121,-3.14766 -0.44838,-0.53805 -1.26055,-0.30008 -1.52467,0.2999 -0.52379,0.96073 -0.59168,0.22431 -0.66674,-0.48537 -0.32939,-1.87507 -0.52829,-3.81297 -1.47003,-5.54193 -0.26385,-0.49964 -1.03531,-1.26446 -1.50067,-0.54213 -0.4608,0.98752 -0.3059,2.13595 -0.49725,3.19133 -0.23947,2.55759 -0.37146,5.12702 -0.74689,7.67 -1.06239,0.41631 -1.00592,1.68325 -1.20312,2.59179 -0.1566,0.68248 -1.08735,0.7864 -1.118,1.55221 -0.17496,0.38619 -0.12824,1.24821 -0.71599,1.08646 -0.3137,0.37656 -0.81277,0.71654 -1.26757,0.33399 0.0358,-0.60995 -0.81099,-1.31387 -1.24024,-0.65235 -0.65631,0.96507 -0.47552,2.21272 -0.75586,3.30274 -0.70077,-0.32916 -1.74521,-0.24329 -2.01497,0.60237 -0.17678,0.35821 0.17094,1.60324 -0.425,1.01057 -0.33742,-0.4962 -0.71416,-0.006 -1.15573,-0.0719 -0.69044,-0.32039 -0.49657,-1.25026 -0.69555,-1.87441 -0.19715,-0.91766 -0.19152,-1.92703 -0.57463,-2.78181 -0.3841,-0.49641 -1.19775,-0.0658 -1.43532,-0.69356 -0.3244,-0.49179 -1.03628,-1.16145 -1.60114,-0.65022 -0.23194,0.44539 -0.6721,0.73605 -1.17188,0.71874 -0.47679,0.37757 -0.92198,0.80254 -1.39453,1.18946 -0.26131,-1.83994 -0.20642,-3.80832 -1.0293,-5.50781 -0.96676,-0.58403 -0.67735,-1.85806 -0.92715,-2.79055 -0.42189,-2.91622 -0.59574,-5.8095 -1.40292,-8.64696 -0.32419,-0.54725 -1.16012,-0.41975 -1.2461,0.24219 -0.46049,1.17255 -0.40218,2.45951 -0.68945,3.67383 -0.79188,-0.0673 -1.34581,0.58038 -1.46761,1.30795 -0.78322,3.05508 -0.43759,6.35353 -1.69072,9.28984 -0.34743,0.57545 -0.85034,1.04629 -1.12683,1.66784 -0.75356,-0.1086 -1.3367,-0.65665 -1.51562,-1.39258 -0.41579,-1.30344 -0.0693,-2.75678 -0.71702,-4.01043 -0.22293,-0.50859 -0.60712,-1.05203 -1.21072,-1.0716 -0.82432,-0.55615 -0.39686,-1.71074 -0.76449,-2.51855 -0.074,-0.52648 -0.62989,-0.98484 -1.0974,-0.54335 -0.75274,0.68543 -0.52439,-0.44033 -0.64762,-0.94902 -0.054,-0.76044 -0.53806,-1.39441 -0.95345,-1.95969 -0.0535,-0.604 -0.10886,-1.73905 -0.96868,-1.60166 -0.81817,0.5466 -0.43819,1.69057 -0.76757,2.47266 -0.27315,0.62547 -1.09783,-0.0261 -1.35268,0.60501 -0.432,0.93057 -0.58757,1.8473 -0.7623,2.82474 -0.42402,3.75989 -0.5536,7.53812 -0.76588,11.30658 -0.0326,0.6289 -0.0651,1.25781 -0.0977,1.88671 -0.43432,-0.64139 -0.62377,-1.50007 -1.22852,-1.99414 -0.50472,-0.34615 -0.87416,0.40092 -1.34375,0.0937 -0.72045,-0.11614 -1.07191,0.66694 -1.00195,1.26954 -3.8e-4,0.44957 -0.88528,0.9322 -0.98263,0.31597 -0.50175,-1.28609 -0.31218,-2.73696 -0.55291,-4.08788 -0.16305,-1.03728 -0.2772,-2.14797 -0.77501,-3.07575 -0.59348,-0.41861 -1.32735,0.19909 -1.28515,0.85547 -0.13209,0.67633 -0.83699,0.66003 -1.06836,0.0859 -0.40224,-3.11755 -0.591,-6.29555 -1.08399,-9.4082 -0.39377,-0.76056 -1.80553,-0.60597 -1.77506,0.35904 -0.52422,2.45131 -0.41947,4.99657 -1.09212,7.42416 -0.51217,-1.03475 -0.58323,-2.359 -1.52344,-3.12695 -0.33017,-0.35472 -1.17442,0.0463 -1.04294,-0.64139 -0.23711,-2.24052 -0.50577,-4.54687 -1.60116,-6.55577 -0.21915,-0.88091 -0.44239,-0.0999 -0.39719,0.37563 -0.0788,1.46947 -0.49773,2.89448 -1.19543,4.1897 -0.32533,0.99402 -0.44481,0.65668 -0.4833,-0.2044 -0.38124,-2.59457 -0.46694,-5.26954 -1.30077,-7.77138 -0.19297,-0.624548 -1.15053,-1.323526 -1.60734,-0.557492 -0.37387,0.991742 -0.22505,2.089392 -0.37416,3.131622 -0.14888,2.31502 -0.7413,4.5724 -0.90572,6.85662 -0.19892,1.41204 -0.1741,2.86344 -0.44056,4.2571 -0.1925,0.58665 -0.36403,1.5757 -0.6448,0.46959 -0.59207,-1.24414 -0.58691,-2.65851 -0.91397,-3.98241 -0.47556,-2.76258 -0.51707,-5.5962 -0.96851,-8.33631 -0.2446,-1.29248 -0.29747,-2.679192 -0.88782,-3.867828 -0.57907,-0.226777 -0.72696,-0.520349 -0.625,-1.138672 -0.0166,-0.604435 -0.79979,-1.303278 -1.2795,-0.68033 -0.38569,0.512583 -0.14792,1.276481 -0.70683,1.678377 -0.5307,1.014521 -0.30969,2.223793 -0.54663,3.317343 -0.0819,1.01885 -0.21212,2.03171 -0.71681,2.93971 -0.18255,-0.0176 -0.47886,-0.99443 -0.56794,-1.41514 -0.0844,-1.29192 -0.2547,-2.49505 -0.64323,-3.748163 -0.0192,-0.496027 -0.23731,-1.305358 -0.9043,-1.02539 -0.833045,0.404057 -0.550245,1.470005 -0.771475,2.201173 -0.37445,2.66851 -0.37438,5.32099 -0.53065,8.01125 -0.13397,0.38928 -0.0859,1.91348 -0.44126,0.92255 -0.38711,-0.49267 -0.42802,-1.58273 -1.25856,-1.46114 -0.90685,0.45172 -0.43763,1.72419 -1.01953,2.43359 -0.27171,0.56137 0.021,1.51899 -0.78711,1.6543 -0.71562,0.27314 -1.09376,-0.56465 -0.96875,-1.15469 -0.38783,-8.63424 -0.39093,-17.285927 -0.91498,-25.913856 -0.0615,-0.507931 -0.11638,-1.302018 -0.71197,-1.445131 z"
       clip-path="url(#clipPath905)"
       transform="translate(-3.0372562,3.8370789)" />
    <g
       id="g1748"
       transform="matrix(1.1763297,0,0,1.1763297,-139.87717,423.98586)"
       clip-path="url(#clipPath2239)">
      <ellipse
         style="opacity:0.999;fill:url(#radialGradient1750);fill-opacity:1;stroke:none;stroke-width:2.75413;stroke-miterlimit:4;stroke-dasharray:5.50826, 11.0165;stroke-dashoffset:0;stroke-opacity:1"
         id="ellipse1715"
         cx="291.91034"
         cy="114.85671"
         rx="411.59195"
         ry="202.46439" />
      <circle
         style="opacity:0.999;fill:none;fill-opacity:1;stroke:#828282;stroke-width:1.33297;stroke-miterlimit:4;stroke-dasharray:5.3319, 5.3319;stroke-dashoffset:0;stroke-opacity:1"
         id="circle1717"
         cx="9.3099279"
         cy="118.62485"
         r="83.547829" />
      <ellipse
         style="opacity:0.999;fill:none;fill-opacity:1;stroke:#828282;stroke-width:1.75581;stroke-miterlimit:4;stroke-dasharray:3.51161, 7.02323;stroke-dashoffset:0;stroke-opacity:1"
         id="ellipse1719"
         cx="-306.30344"
         cy="117.38055"
         transform="scale(-1,1)"
         rx="194.61375"
         ry="107.0999" />
      <circle
         style="opacity:0.999;fill:url(#radialGradient1752);fill-opacity:1;stroke:none;stroke-width:1.33297;stroke-miterlimit:4;stroke-dasharray:5.3319, 5.3319;stroke-dashoffset:0;stroke-opacity:1;filter:url(#filter1632)"
         id="circle1721"
         cx="9.3099279"
         cy="118.62485"
         r="83.547829" />
      <ellipse
         style="opacity:0.999;fill:url(#radialGradient1754);fill-opacity:1;stroke:none;stroke-width:2.10712;stroke-miterlimit:4;stroke-dasharray:4.21422, 8.42845;stroke-dashoffset:0;stroke-opacity:1;filter:url(#filter1646)"
         id="ellipse1723"
         cx="-306.30344"
         cy="117.38386"
         transform="matrix(-1.0278177,0,0,0.68733025,-8.5206587,36.702382)"
         rx="194.43967"
         ry="154.38307" />
      <g
         id="g1733">
        <circle
           style="opacity:0.999;fill:#b1d4e8;fill-opacity:1;stroke-width:3.68858"
           id="circle1725"
           cx="102.0722"
           cy="116.31304"
           r="43.060623" />
        <g
           id="g1731"
           style="fill:#5ba77a;fill-opacity:0.999929"
           transform="matrix(0.75883556,0,0,0.75883556,24.616184,28.05057)">
          <path
             id="path1727"
             style="opacity:0.999;fill:#5ba77a;fill-opacity:0.999929;stroke-width:18.3717"
             d="m 388.125,225.15039 -0.30469,0.0996 19.11328,6.17383 -7.49218,3.49805 5.6289,5.80468 11.63477,-1.91211 -0.63281,6.62305 4.19921,6.66211 -14.84765,-5.43359 -2.77344,7.04882 6.58789,7.88086 3.59961,9.99805 -5.06055,0.5 8.63868,11.60937 -9.07422,1.92579 1.52148,4.7539 -7.11719,5.18164 -6.64648,8.4336 -4.13477,-5.42969 -5.06445,-0.32813 7.28125,8.29297 -3.66016,2.38672 -5.24023,-5.08984 -18.67773,-3.01758 -5.27344,-2.71484 -8.90625,2.65039 -7.95899,6 -4.93945,7.87109 -5.08008,7.63477 -10.81836,10.68945 -7.66992,5.58594 1.30078,9.19531 1.61328,5.35351 4.70118,1.68165 4.87109,-5.78907 2.85352,3.375 0.95703,8.88672 -4.09571,2.48633 0.91407,-6.85742 -4.85157,-0.29297 -3.19336,5.73437 0.0899,6.59375 -1.67774,5.92969 -5.98242,0.53906 -4.61914,4.36719 c 0,0 0.14642,1.89709 -0.56055,2.73633 -0.70697,0.83924 -7.35351,6.18555 -7.35351,6.18555 l -7.33399,3.46289 c 0,0 -3.28353,-1.97541 -3.23828,-1.59961 0.0452,0.37568 -3.04101,5.46094 -3.04101,5.46094 0,0 -5.22708,-1.50049 -5.10157,-1.13282 0.12552,0.36775 2.36719,6.38282 2.36719,6.38282 l 4.96289,9.39648 -3.34179,9.92773 -20.5293,-4.49414 -2.80469,15.96485 -5.36914,7.73437 5.37305,10.87696 4.3164,4.02343 -10.43554,11.38868 -6.27539,15.0625 -8.61133,4.45507 -11.31445,17.38086 1.00195,13.86328 -1.02539,14.87696 7.02929,17.26172 20.05665,23.69921 10.58789,9.11719 17.86718,3.32422 16.02539,-0.74414 16.41016,1.97852 3.20117,6.50195 14.58789,1.66992 2.8711,13.2793 28.74218,24.39844 -3.04492,7.70312 8.11914,7.44141 9.94922,1.19336 9.04297,4.76367 10.73437,0.21484 a 214.47178,214.47178 0 0 0 36.88477,-6.01172 l 9.20703,-5.09961 10.03711,-6.59961 -4.26172,-4.66601 23.8125,-13.91016 -2.02343,-12.96094 c 0,0 -5.27218,-3.50568 -4.33399,-4.82617 0.93819,-1.32045 7.97266,-12.71093 7.97266,-12.71094 l 27.5332,-33.59179 4.61523,-23.72071 -0.29492,-6.21093 -25.45508,20.72461 -9.08984,-9.45508 -23.2207,-10.23438 -26.47071,-37.64257 c 0,0 3.10154,-4.15877 4.69922,-3.58594 1.59765,0.57286 24.70508,19.76826 24.70508,20.76367 0,0.99541 24.97852,31.74414 24.97852,31.74414 l 31.71679,-29.91211 15.375,-24.77148 -2.85156,-16.74024 -10.58984,-6.02343 -10.71289,12.54492 -14.32032,-2.23828 -10.51562,-12.4375 c 0,0 2.907,-4.88766 3.98828,-4.12696 1.08125,0.76071 15.98633,6.11524 15.98633,6.11524 l 19.02148,-5.35157 20.87891,-13.36132 c 0,0 12.97461,2.34446 12.97461,3.56445 0,1.21999 5.80469,2.67187 5.80469,2.67187 l 2.43945,-7.97461 c 0,0 18.16669,34.77624 19.04883,34.59766 0.88214,-0.17839 6.21875,-9.9043 6.21875,-9.9043 l -0.38672,10.70313 4.42969,-6.90234 -2.35938,-7.34766 -4.89648,-12.19922 -1.16211,-30.77539 0.0762,-15.96289 2.52148,-7.11914 5.76368,9.30469 4.69921,1.28515 0.38672,17.11133 5.69727,22.60547 a 214.47178,214.47178 0 0 0 0.0254,-3.24219 A 214.47178,214.47178 0 0 0 388.125,225.15039 Z m -0.32422,85.10938 0.5586,4.81445 -1.75586,3.45898 -8.08204,-0.0293 -6.00976,-6.97461 12.0918,-0.70899 z m -31.9043,9.86718 2.58204,1.23243 -5.76368,9.60351 1.5625,11.85547 4.04102,-0.55664 11.13086,-3.33789 3.51367,1.53125 -13.03711,7.66992 c 0,0 2.10055,2.95547 2.625,3.49805 0.52446,0.54257 -1.02344,4.03515 -1.02344,4.03515 0,0 -3.65039,-3.08037 -3.65039,-3.4375 0,-0.35714 -3.76757,3.7717 -3.76757,4.27344 0,0.50174 1.14843,7.77539 1.14843,7.77539 l -5.46875,3.58203 c 0,0 -13.65708,4.08765 -14.10351,4.00586 -0.44643,-0.0818 -8.24219,-1.6289 -8.24219,-1.6289 l 6.13281,-5.17774 7.92578,-4.52148 1.21289,-8.67383 5.08008,-6.54492 -3.625,-4.12696 0.4668,-8.71875 6.15625,-4.97461 0.60547,-4.57812 z m 97.46094,56.20313 5.00586,0.82422 -0.73242,4.52734 -2.29492,5.05859 c 0,0 9.02269,4.9119 9.6914,5.11524 0.66872,0.20345 8.88672,8.42773 8.88672,8.42773 l 9.35352,15.50391 -9.15039,4.12305 -9.43555,-4.70508 -2.57031,-11.26563 -12.16992,-9.71289 -3.69532,-8.28906 c 0,0 6.51341,-8.87484 7.11133,-9.60742 z m -60.76758,21.79492 10.8125,8.01562 10.35743,-7.02148 16.46679,6.75 5.32032,5.09766 -8.44141,7.49804 -16.91602,-2.69726 -9.30468,9.0625 -8.08789,1.98828 -7.38672,-3.04297 c 0,0 2.652,-16.58236 2.53711,-17.15039 -0.11479,-0.56799 4.64257,-8.5 4.64257,-8.5 z m -62.24414,13.66016 c 0,0 12.7535,7.41842 12.86719,7.88281 0.11369,0.46439 8.58984,7.04883 8.58984,7.04883 0,0 6.54382,9.84284 6.63477,11.99218 0.091,2.14938 7.08389,12.0229 7.38281,12.75 0.29893,0.72711 4.91602,2.55274 4.91602,2.55274 l 6.4414,-8.29492 -3.90625,-8.34375 4.70704,-9.61133 c 0,0 6.59374,5.87549 6.17773,7.14258 -0.41597,1.26705 1.23242,14.35742 1.23242,14.35742 0,0 13.33789,0.63115 13.33789,0.98828 0,0.35717 13.69532,-1.68874 13.69532,-2.20703 0,-0.51825 8.13085,-4.86719 8.13085,-4.86719 0,0 6.25196,6.70722 6.25196,7.57031 0,0.86306 -6.86524,18.63672 -6.86524,18.63672 0,0 -11.61548,4.64355 -12.44531,4.75391 -0.82979,0.11036 -9.17817,1.74411 -11.4375,1.53711 -2.25936,-0.20712 -18.53385,-3.48799 -19.42578,-3.49219 -0.89193,-0.004 -8.73497,1.68393 -9.10547,2.31836 -0.37047,0.63447 -3.50195,5.28821 -3.50195,6.7168 0,1.42854 -2.34989,2.73971 -3.28906,2.91992 -0.93918,0.18028 -9.07418,-1.98294 -10.38086,-2.66016 -1.30668,-0.67718 -10.42383,-6.22656 -10.42383,-6.22656 l -9.71485,-2.36914 -4.07226,-5.98828 c 0,0 2.01858,-6.32088 1.89844,-6.76758 -0.12016,-0.44666 -4.85157,-10.19336 -4.85157,-10.19336 l -19.04687,4.17383 c 0,0 -22.21485,1.21875 -22.21485,2.46875 0,1.25 -5.87109,3.27539 -5.87109,3.27539 l -2.88086,-1.99414 -0.39844,-0.5293 -2.02734,-4.46094 5.46094,-0.65039 4.00586,2.07422 8.57031,-8.54297 0.29492,-11.39843 7.03906,-2.28907 6.22657,-5.35156 -1.47657,-2.99219 7.20703,1.07422 8.33399,-3.29883 c 0,0 4.05859,-3.20796 4.05859,-2.68359 0,0.52441 6.01953,6.81836 6.01953,6.81836 l 2.75,8.60156 c 0,0 6.54093,1.08381 8.15821,2.79102 1.61728,1.70717 12.95898,10.66601 12.95898,10.66601 l -16.74023,1.08789 7.34375,8.60157 11.39062,-5.38867 c 0,0 1.14673,-8.18118 0.69532,-8.64844 -0.45141,-0.46723 -6.28676,-13.93112 -8.13282,-14.69727 -1.84605,-0.76611 -13.24804,-8.05859 -13.24804,-8.05859 z"
             transform="scale(0.26458333)" />
          <path
             style="fill:#5ba77a;fill-opacity:0.999929;stroke:none;stroke-width:0.264583px;stroke-linecap:butt;stroke-linejoin:miter;stroke-opacity:1"
             d="m 78.715358,92.225901 -2.587154,0.804185 -0.191685,3.202028 -2.650863,0.55898 -1.66647,3.039549 0.814199,1.069047 2.21565,-1.011911 1.514332,-2.697953 0.658011,1.26474 -1.326573,1.642094 -1.056759,2.70626 4.478025,-0.47871 1.302203,-2.30141 -1.751304,-2.502555 -0.100012,-2.704697 z"
             id="path1729" />
        </g>
      </g>
      <path
         id="path1735"
         style="fill:#000000;fill-opacity:1;stroke:none;stroke-width:1.1;stroke-miterlimit:4;stroke-dasharray:none;stroke-opacity:1"
         d="m -107.1205,83.304023 c -0.90565,0.324939 -0.58761,1.473495 -0.70162,2.211672 -0.0632,1.521481 0.16944,3.114077 -0.27885,4.581297 -0.78124,1.096516 -0.46312,2.453858 -0.64298,3.705691 -0.049,2.19796 -0.26164,4.386637 -0.57457,6.560057 -0.4027,4.51864 -0.48158,9.04023 -0.68284,13.57996 -0.5731,-0.0332 -1.09161,0.30729 -1.11131,0.91994 -0.33474,2.78752 -0.40174,5.55221 -0.5508,8.35349 -0.60717,0.16199 -1.46435,-0.0655 -1.40838,-0.83233 -0.0117,-2.94033 -0.0232,-5.89829 -0.0831,-8.84512 -0.1135,-0.85533 0.12808,-1.82375 -0.32102,-2.59403 -0.38836,-0.65187 -1.27775,-0.17733 -1.30664,0.46875 -0.19334,1.76618 -0.14799,3.55221 -0.17969,5.32812 -0.72534,0.0621 -0.95656,0.76896 -0.94922,1.39454 -0.27479,2.40072 -0.28067,4.79848 -0.47461,7.22656 -0.78407,0.0277 -1.1135,0.79074 -1.11349,1.47663 -0.17036,0.98142 0.19724,2.19987 -0.63651,2.9472 -0.60069,1.28763 0.066,2.82264 -0.59375,4.11328 -0.42742,0.97759 -0.30603,2.08464 -0.80622,3.05396 -0.35993,0.69167 -0.0574,1.50927 -0.37737,2.22143 -1.77484,0.33698 -3.57192,0.3919 -5.35547,0.42773 -0.85652,-0.13047 -1.75419,-0.57729 -2.58216,-0.10032 -1.5385,0.38555 -3.14718,0.20396 -4.71715,0.3168 -15.34497,0.259 -30.69318,0.17551 -46.03975,0.20986 -24.63564,0.0143 -49.27226,-0.0212 -73.90687,0.20957 -1.25606,0.0588 -2.62857,-0.0142 -3.77556,0.49105 1.4818,0.74945 3.18346,0.80482 4.81641,0.75781 7.15163,0.12517 14.30703,0.0234 21.45937,0.15045 24.97986,0.0461 49.95961,-0.0817 74.93944,-0.10618 8.5697,-0.0458 17.14361,-0.0371 25.70861,-0.32552 0.86951,-0.0607 1.66784,-0.33225 2.56446,-0.41406 1.70065,0.44844 3.49937,0.46184 5.20545,0.0591 0.91921,-0.0283 1.83328,0.0954 2.74962,0.14402 0.19678,-0.75916 0.37938,-1.52194 0.56836,-2.2832 0.41787,0.33751 1.11014,0.96098 1.54883,0.29101 0.0767,-0.66772 0.38325,-0.54111 0.83203,-0.61914 0.37225,-0.34878 0.95894,-0.19659 1.19531,0.22461 0.59789,0.44612 0.90359,-0.51794 0.90858,-0.9744 0.14405,-0.46256 -0.17275,-1.23958 0.48628,-1.32231 0.91759,-0.48869 0.65636,-1.74201 0.80385,-2.60584 -0.15233,-1.00114 0.38034,-0.5506 0.89709,-0.13804 0.70425,0.33817 1.13914,-0.60079 1.03961,-1.18655 0.13743,-2.0831 0.0416,-4.1743 0.19077,-6.25723 0.57103,0.15204 1.312,-0.0122 1.39062,-0.69727 0.22721,-3.82065 0.14593,-7.72566 0.34946,-11.58641 0.12722,-3.17042 0.1889,-6.36408 0.47856,-9.5137 0.26665,-0.55713 0.53831,-1.50716 0.7839,-0.4143 0.4571,0.9248 0.18601,2.01622 0.31106,3.017 0.15893,4.9886 0.38033,9.95643 0.9253,14.9199 0.1749,1.59633 0.11129,3.22162 0.29625,4.80798 0.16692,0.62663 1.07744,0.81249 1.29688,0.10742 0.49829,-1.04873 0.18166,-2.27991 0.51562,-3.35742 0.19018,-0.42222 0.83796,-0.67089 1.20391,-0.51774 0.31762,0.35686 0.38496,0.91186 0.83977,1.11202 0.46555,0.7174 0.12514,1.62173 0.26238,2.42192 0.0598,0.9139 -0.0192,1.9318 0.43613,2.74747 0.44604,0.40908 1.356235,0.13157 1.15488,-0.56941 0.171375,-6.05683 0.336365,-12.11382 0.501365,-18.17082 0.57127,0.84089 1.40255,1.6223 1.36719,2.7207 -0.0856,0.61951 0.66126,1.42998 1.1914,0.78711 0.60845,-1.55906 0.43769,-3.28801 0.68158,-4.92403 0.17115,-2.34569 0.48413,-4.68193 0.94928,-6.98417 0.022,-0.49817 -0.0782,-1.08191 0.47678,-1.31201 0.42527,-0.60306 0.54267,0.35552 0.65799,0.69482 0.64062,3.77732 0.67725,7.61519 1.4304,11.29868 0.5463,2.1203 0.52517,4.33079 0.85569,6.48817 0.24242,1.94869 0.42382,3.94115 0.82328,5.84596 0.23024,0.56304 0.95651,0.46462 1.14454,-0.0723 0.44403,-1.09274 0.42034,-2.31782 0.60657,-3.47253 0.50867,-4.68811 0.50859,-9.43721 1.30042,-14.08956 0.22479,-0.35784 0.45991,-1.85179 0.67219,-0.83329 0.61575,1.51272 0.56787,3.18965 0.75901,4.79241 0.28646,3.47852 0.31724,6.95895 0.6911,10.42328 0.019,0.60488 0.89042,1.11049 1.2168,0.42969 0.37857,-0.98404 0.21358,-2.09154 0.37777,-3.12664 0.16825,-1.61012 0.16223,-3.25226 0.40251,-4.84487 0.20776,-0.44861 0.3849,-1.68413 0.65268,-0.59037 0.60578,0.83271 0.23164,1.94139 0.7311,2.7982 0.47491,0.62844 1.25599,-0.0137 1.255,-0.63796 -0.002,-0.56565 0.80233,-0.69619 1.01067,-0.26892 0.16692,0.53927 0.31569,1.37417 1.07058,1.27984 0.9802,-0.0466 1.31502,-1.08665 1.35125,-1.91006 0.51065,-0.30477 1.02039,-0.6164 1.00781,0.24023 0.30227,2.19391 0.37624,4.43863 0.91016,6.58984 0.49111,0.72315 1.75479,0.49046 1.89493,-0.40547 0.25057,-0.42631 0.5977,-1.67976 0.66562,-0.54132 0.55011,2.76256 1.4674,5.45725 1.63895,8.28576 -0.0807,0.68047 0.82566,1.16925 1.25167,0.55166 0.51788,-1.3917 0.4882,-2.95361 0.8071,-4.39373 0.22913,-0.43716 0.46484,-1.65705 0.68101,-0.55218 0.55779,1.20569 0.37153,2.58648 0.60565,3.87215 0.12547,0.67708 0.13158,1.43715 0.46093,2.0386 0.83997,0.38863 1.4213,-0.65486 1.56445,-1.34375 0.29604,-1.41932 0.11047,-2.89272 0.42527,-4.31302 0.47483,-3.95427 0.47283,-7.9188 0.69166,-11.90345 -0.19644,-0.60515 0.47148,-1.162 1.01465,-0.80806 0.52708,0.1665 0.83158,-0.64559 0.91742,-1.07069 0.14773,-0.60823 0.29546,-1.21647 0.44319,-1.8247 0.41169,1.17825 0.58741,2.4502 1.12891,3.57422 0.35698,0.53857 1.00177,0.15037 1.37695,-0.14844 0.37678,0.49359 1.01422,0.41316 1.55469,0.51953 0.52312,1.95193 0.42736,4.14011 1.55469,5.88086 0.78233,0.66578 0.25108,2.10999 1.26757,2.54688 0.71643,0.0713 0.91843,-0.86228 1.15872,-1.381 0.41102,-0.94651 0.30403,-2.08231 1.03963,-2.87845 1.59442,-2.15257 1.41469,-4.97391 1.88946,-7.48973 -0.10539,-0.88578 0.45757,-0.39302 0.94735,-0.22348 0.80195,-0.0505 0.75335,-1.10808 1.08521,-1.64655 0.27233,-1.0319 0.37701,-0.59135 0.43943,0.22043 0.31775,1.9817 0.45305,4.01048 0.97731,5.90464 0.5573,0.12215 1.00145,0.5881 0.90134,1.18546 0.23747,2.23883 0.19775,4.54886 0.91702,6.70321 0.37453,0.51958 1.21379,0.2092 1.17969,-0.42969 0.18495,-0.89195 0.23979,-1.96998 0.96094,-2.5918 0.42358,-0.14688 0.54343,-0.74342 1.08984,-0.68945 0.53792,-0.48279 0.70797,-0.14617 1.18354,0.22049 0.48263,0.11876 1.03615,0.39428 0.94726,0.97931 0.33421,2.2572 0.88942,4.48443 0.94537,6.77676 0.10149,0.91193 0.0508,1.99294 0.65625,2.73047 0.69322,0.20174 1.0542,-0.6197 0.96662,-1.19386 0.0187,-0.87616 0.32357,-1.73155 0.79705,-2.44481 0.86098,-0.53944 1.07428,-1.57588 1.47852,-2.43555 0.38188,0.32105 0.95184,0.84957 1.39453,0.29883 0.46158,-0.60686 0.53549,-1.42235 0.83399,-2.11523 0.2994,0.70557 0.21774,1.64275 0.80468,2.18359 0.79486,0.39726 1.22356,-0.73957 1.2461,-1.36523 0.13778,-0.92658 0.0266,-2.13835 0.98582,-2.64961 0.7305,-0.66715 0.7379,-1.73343 1.0298,-2.61797 0.82857,-0.12911 0.9618,-1.06543 1.16602,-1.72266 1.11722,-0.25369 0.99886,-1.57322 1.14795,-2.45545 0.26392,-1.64863 0.28576,-3.29398 0.56565,-4.92998 0.23096,-0.57047 0.45634,-1.58508 0.70852,-0.46946 0.35199,0.79322 0.41975,1.67977 0.87595,2.4415 0.49695,0.78267 0.16976,1.97893 1.02224,2.53253 0.65095,0.23105 1.06434,-0.49058 1.51172,-0.82226 0.43934,0.98426 0.44214,2.16187 1.10547,3.03515 0.54818,0.23919 1.02738,0.71437 1.01367,1.36524 0.40512,2.30198 0.49726,4.75823 1.76715,6.79565 0.13231,0.6953 0.44863,0.56929 0.90208,0.25715 0.5473,-0.1753 1.33079,0.0864 1.22139,0.77142 0.0638,0.63281 0.87792,1.32819 1.40039,0.70312 0.33901,-0.43395 0.32766,-1.02963 0.71876,-1.42578 0.18365,-0.49539 0.33813,-1.05243 0.88476,-1.24805 0.91844,-0.90525 0.95205,-2.30025 1.35547,-3.46093 0.41553,0.28997 0.91376,1.16146 1.47656,0.67578 0.74431,-0.83465 0.81089,-2.02656 1.4375005,-2.93946 0.39276,0.39775 1.07431,0.8831 1.54297,0.30469 0.555572,-0.91217 0.969587,-1.90788 1.449219,-2.86328 0.494286,2.19324 0.658311,4.43534 0.98697,6.65377 0.108241,0.55957 0.122996,1.48076 0.911468,1.44193 0.611776,-0.0193 0.553964,-1.0411 1.203125,-0.57812 0.496445,-0.36322 1.225604,-0.0654 1.215883,0.57635 0.189219,0.70451 0.605016,1.84079 1.543883,1.5174 1.085839,-0.38366 1.555185,-1.54323 2.191406,-2.40625 0.297174,1.08222 0.341387,2.40771 1.3457029,3.11914 0.266745,0.69728 0.08421,1.86381 0.978515,2.09961 1.248568,0.0787 1.989381,-1.27685 2.108762,-2.36657 0.09766,-0.52889 0.196774,-1.05748 0.293582,-1.58656 1.082406,0.007 1.256352,-1.25501 1.444237,-2.07016 0.386755,-1.54879 0.85836,-3.12686 1.684338,-4.49337 0.719003,-0.56933 0.921956,-1.45452 1.0608776,-2.31147 0.133785,-0.65701 0.308474,-1.20331 0.952819,-0.57283 0.700431,0.19047 1.148669,-0.56918 1.553041,-1.00725 0.93862,1.30495 1.831348,2.64953 2.789707,3.93443 0.475456,0.55918 1.226697,0.78091 1.930996,0.58901 0.213599,0.85664 0.201451,2.2028 1.236328,2.47656 0.375785,-0.23557 1.163372,-0.14558 1.234375,0.47852 0.376965,0.9565 0.905498,2.1401 2.021484,2.37695 0.418349,-0.34628 1.059596,-0.35577 1.365235,0.14063 0.501876,0.36283 1.009534,-0.11849 1.303554,-0.45583 1.094595,-0.20691 1.049181,-1.55576 1.510899,-2.34495 0.644463,-0.98132 0.794704,-2.16604 0.914062,-3.30664 0.656843,0.23286 1.311727,0.64595 1.376746,1.40587 0.14799,0.60049 0.757372,0.90146 1.259891,1.09124 0.291948,0.63192 1.120797,0.67356 1.580601,0.20403 0.511188,-0.45824 0.359726,0.67047 0.550341,0.97268 0.218289,0.83688 0.156152,2.01065 1.029296,2.45508 0.790405,0.0187 1.005957,-0.897 1.373047,-1.41406 0.42375,-0.33075 0.888592,0.0419 1.183594,0.36133 0.475064,-0.0849 0.931615,0.14042 1.302734,0.39453 0.461371,0.0725 1.074215,-0.88376 1.278453,-0.44996 0.377736,1.43729 0.840654,2.99818 2.043813,3.96754 0.448235,-0.26673 0.70064,-0.76618 1.064453,-1.13086 0.528394,1.24261 0.598992,2.69678 1.422808,3.79832 0.769144,1.05101 2.588453,0.28573 2.539223,-0.96453 0.306333,-1.38122 0.490366,-2.75164 0.727422,-4.1541 0.486423,0.35859 1.116296,1.03411 1.732422,0.50195 0.720899,-0.58919 0.325228,-1.84726 1.270912,-2.2768 0.635958,-0.79667 0.595674,0.36273 0.787682,0.84711 0.226326,0.93333 0.789045,2.01691 1.89089,2.01642 0.769385,0.14924 1.976202,0.21397 2.165879,-0.78445 0.155614,-0.92488 0.504874,-1.80251 1.17045,-2.48239 0.512333,-0.98364 0.401759,0.33431 0.518875,0.81097 0.222525,1.27413 0.142021,2.71437 0.884765,3.81836 0.68583,0.2304 1.20099,-0.46191 1.6875,-0.82813 0.469367,0.91167 0.57269,2.19913 1.556641,2.72461 0.728746,0.31672 0.897956,-0.65047 1.330078,-0.96094 0.549152,-0.43658 1.192039,0.33061 1.711761,-0.15213 0.549659,-0.27696 1.203268,-0.48942 1.362471,-1.17195 0.791515,-2.57505 1.120555,-5.27344 1.968737,-7.83607 0.507766,0.39097 1.218963,1.22126 1.886718,0.66406 0.417456,-0.52197 1.155951,-0.6502 1.736329,-0.9375 0.476584,0.24442 1.043793,0.18223 1.451171,-0.16601 0.832558,0.34501 1.337899,1.10401 1.886719,1.76367 1.150005,0.84619 3.070048,0.44725 3.5625,-0.96289 0.269991,-0.45638 0.958999,-0.46501 1.181641,0.0351 0.386703,0.38233 1.222474,0.13191 1.240234,0.81836 0.267707,0.71206 1.36113,0.9098 1.748047,0.19141 0.371363,-0.42763 0.941712,-0.21457 1.304688,0.0762 0.610243,0.0889 0.963178,-0.55709 1.042968,-1.07227 0.773092,0.0108 0.94742,-1.02643 1.730469,-1.0332 0.844417,-0.58586 0.806034,-1.78111 1.332031,-2.59961 0.311239,-0.66172 0.482856,-1.37326 0.671875,-2.07617 0.899599,0.33429 2.197574,1.02912 2.960938,0.084 0.236653,-0.45911 0.750935,-1.04687 1.279297,-0.5957 0.364083,0.61192 1.003863,1.68777 1.847653,1.20508 0.74022,-0.62074 0.88533,-1.6703 1.41407,-2.45117 0.75873,0.71787 1.89114,1.53129 2.93914,0.87707 0.43029,-0.0113 0.50208,0.94534 1.09276,0.99183 0.71892,-0.1067 1.0299,0.1192 0.96823,0.8811 0.13344,0.87586 0.48786,1.79718 1.275263,2.28125 0.44717,1.59066 1.11128,3.10691 1.70117,4.64648 1.38,-1.11507 2.77135,-2.28961 3.68164,-3.83789 0.52155,0.0352 1.117,-0.12344 1.31055,-0.66797 1.54428,-0.60187 2.16074,-2.26241 2.84399,-3.62187 0.70968,-1.12301 1.96712,-1.7173 2.87157,-2.62319 0.17422,-0.54663 0.91477,-0.8439 1.30787,-0.33306 0.49018,0.37451 1.13067,0.34391 1.67578,0.11719 0.21724,0.60254 0.75262,1.64345 1.53125,1.20703 0.46894,-0.71751 -0.26834,-1.52434 -0.59101,-2.16536 -0.29573,-0.49993 -0.88933,-0.7846 -1.42852,-0.50652 -0.9704,-0.0152 -1.28976,-1.17788 -1.6021,-1.9187 -0.20032,-0.45744 -0.38948,-1.42635 -0.61749,-0.41968 -0.46243,0.96673 -0.79866,2.03623 -1.33217,2.94297 -1.69438,1.01935 -2.97028,2.63271 -3.72824,4.44111 -0.54051,1.0031 -1.57315,1.60387 -2.62429,1.93477 -0.88172,0.60443 -1.03008,1.8402 -2.01953,2.32617 -0.38814,0.29353 -1.06122,0.26798 -1.13581,-0.30705 -0.45753,-0.8529 -0.58197,-1.88715 -1.05951,-2.70076 -0.63596,-0.26541 -0.72761,-0.93347 -0.78747,-1.53313 -0.13835,-0.79833 -0.544943,-1.88125 -1.528933,-1.79304 -0.82971,-0.2478 -0.74187,-1.59153 -1.72852,-1.65039 -0.62789,-0.1115 -0.71808,0.85268 -1.37305,0.74414 -0.86118,-0.0838 -1.45939,-1.27792 -2.41406,-0.91992 -0.53813,0.59482 -0.62198,1.47981 -1.0227,2.17063 -0.23846,0.47017 -0.5681,-0.79844 -0.858637,-1.06263 -0.289117,-0.53987 -0.982152,-1.21319 -1.572211,-0.64768 -0.569469,0.47984 -0.855296,1.19923 -1.33942,1.75647 -0.955551,-0.0652 -2.138419,-0.66348 -2.958984,0.0762 -0.502991,0.92689 -0.596585,2.0273 -1.183622,2.91573 -0.350139,1.11335 -1.059625,2.31005 -2.316378,2.50419 -0.732549,-0.16488 -0.916412,-1.39155 -1.802734,-1.06641 -0.295962,0.28944 -0.548118,0.87502 -1.080078,0.61914 -0.305858,-0.2317 -0.607282,-0.20546 -0.962891,-0.24609 -0.703035,-0.26911 -0.496144,-1.46265 -1.392578,-1.50586 -0.789687,-0.0581 -0.988818,1.00314 -1.224452,1.51097 -0.230806,0.76669 -0.595158,1.48114 -1.084142,2.11598 -1.233493,-0.74257 -2.316246,-1.77131 -3.021484,-3.0293 -0.647629,-0.54557 -1.248034,0.48101 -1.828324,0.57901 -1.002156,-0.41727 -1.502933,1.12211 -2.503708,0.75693 -0.773477,-0.47697 -1.685519,-0.32946 -2.546875,-0.26172 -0.689624,2.90362 -1.228252,5.91261 -2.158203,8.78711 -0.474797,-0.32654 -1.13069,-0.64818 -1.59375,-0.10547 -0.280982,0.40968 -0.810661,0.95065 -1.296875,0.49024 -0.517985,-0.75438 -0.701647,-1.99164 -1.748047,-2.20703 -0.55254,0.0887 -1.185614,0.55606 -1.044921,-0.36328 -0.221991,-1.34349 -0.177359,-2.77079 -0.707032,-4.03711 -0.704838,-0.61855 -1.754242,0.14374 -1.886718,0.93945 -0.460058,0.87335 -1.574388,1.36247 -1.570313,2.46094 -0.09325,1.03698 -1.690145,0.78031 -1.75,-0.14258 -0.259871,-0.858 -0.737439,-2.02661 -1.767578,-2.11133 -0.639979,0.2108 -1.29696,0.43019 -1.845703,0.82422 -0.71769,0.20048 -0.9718,-0.83924 -1.707032,-0.70313 -0.656775,-0.0515 -0.710783,0.64526 -0.757476,1.12772 -0.413628,2.22647 -0.658089,4.48593 -1.236664,6.67892 -0.619193,-1.42332 -0.822901,-2.99435 -1.517578,-4.38281 -0.259848,-0.49771 -0.856533,-1.10223 -1.414063,-0.61328 -0.542895,0.61652 -0.915897,0.65899 -1.004944,-0.23591 -0.465369,-1.26311 -0.526387,-2.82324 -1.606384,-3.75042 -0.551951,-0.19844 -0.871153,0.43438 -1.233779,0.65659 -0.627786,0.18277 -1.424233,0.0911 -1.680283,-0.60581 -0.431573,-0.53106 -1.334035,-0.45801 -1.579964,0.2178 -0.436832,0.96318 -0.598263,0.28615 -0.757927,-0.40139 -0.257032,-0.66429 -0.353228,-1.86471 -1.273438,-1.86719 -0.646281,0.15787 -0.866428,0.86182 -1.205078,1.35157 -0.741147,-0.9277 -1.155372,-2.1295 -2.204178,-2.77853 -0.525557,-0.45437 -1.620978,-0.75123 -1.885981,0.14115 -0.617308,1.26989 -0.651685,2.76055 -1.400075,3.97722 -0.04457,0.53684 -0.416082,1.17316 -1.033203,0.90039 -0.322572,-0.48341 -0.494479,-1.25663 -1.242188,-1.20703 -0.481842,0.009 -0.67245,0.74841 -1.216541,0.46368 -0.608102,-0.44923 -0.473405,-1.39191 -0.990981,-1.95307 -0.215885,-0.48676 -0.691789,-0.48425 -1.106931,-0.33483 -0.903825,-0.0984 -0.570311,-1.30871 -1.1215,-1.80097 -0.427802,-0.52691 -1.191054,-0.37732 -1.587875,0.10513 -0.333248,0.0256 -0.610584,-0.66718 -0.849219,-0.97603 -0.314422,-0.73912 -0.685842,-1.45267 -1.289062,-1.9961 -0.701273,-0.84029 -0.588243,-2.10059 -1.316406,-2.89648 -0.575775,-0.3033 -1.139265,0.20469 -1.322266,0.71875 -0.425471,0.50649 -1.269156,0.0751 -1.6486136,0.70954 -0.819182,0.96016 -0.914251,2.28631 -1.335088,3.42107 -0.265633,0.49827 -0.94453,0.6202 -1.038381,1.25467 -0.475345,1.62628 -0.899201,3.27943 -1.540381,4.8521 -0.127267,0.49401 -0.49413,0.74482 -0.871244,1.02674 -0.587476,0.89279 -0.60861,2.0232 -0.921761,3.02494 -0.421732,-0.74333 -1.222256,-1.24786 -1.482421,-2.07227 -0.349399,-1.19619 -0.526398,-2.64081 -1.6471779,-3.42233 -0.747527,-0.28518 -1.16295,0.69117 -1.17145,1.29924 -0.149215,0.57087 -0.152124,1.45055 -0.907935,1.5313 -0.745657,-0.34865 -0.661712,-1.33651 -0.935749,-2.01091 -0.360997,-1.05009 -0.342014,-2.18662 -0.662557,-3.23625 -0.109686,-0.61087 -0.945855,-0.76207 -1.165366,-0.13956 -0.259004,0.77941 -0.441721,1.58326 -0.763672,2.34765 -0.522485,-1.1269 -0.6492,-2.35021 -0.884133,-3.55395 -0.239738,-0.91623 -0.490957,-1.99489 -1.27407,-2.59058 -0.772704,-0.25083 -1.373964,0.54136 -1.421878,1.23633 -0.23169,0.54217 -0.90505,0.38684 -1.26367,0.0781 -0.9869305,0.0378 -1.2771605,1.23806 -1.5878905,1.99218 -0.29173,0.59222 -1.07783,0.29498 -1.16236,-0.28102 -0.0799,-0.54331 -0.79894,-1.01636 -1.18334,-0.44749 -0.83893,1.91986 -0.65616,4.20815 -1.50391,6.19726 -0.53747,-0.1593 -0.99295,0.68169 -1.48047,0.16407 -0.35862,-0.62817 -0.3715,-1.48415 -0.89062,-2.06641 -0.3748,-0.57268 -1.05946,-0.66178 -1.66211,-0.47656 -0.82535,-0.0452 -0.66397,-1.0112 -0.75734,-1.58324 -0.16113,-1.04507 -0.28202,-2.28288 -1.09227,-3.02809 -0.95009,-0.42213 -0.84189,-1.61872 -1.19231,-2.44023 -0.32406,-1.04022 -0.50186,-2.14582 -0.91121,-3.14766 -0.44838,-0.53805 -1.26055,-0.30008 -1.52467,0.2999 -0.52379,0.96073 -0.59168,0.22431 -0.66674,-0.48537 -0.32939,-1.87507 -0.52829,-3.81297 -1.47003,-5.54193 -0.26385,-0.49964 -1.03531,-1.26446 -1.50067,-0.54213 -0.4608,0.98752 -0.3059,2.13595 -0.49725,3.19133 -0.23947,2.55759 -0.37146,5.12702 -0.74689,7.67 -1.06239,0.41631 -1.00592,1.68325 -1.20312,2.59179 -0.1566,0.68248 -1.08735,0.7864 -1.118,1.55221 -0.17496,0.38619 -0.12824,1.24821 -0.71599,1.08646 -0.3137,0.37656 -0.81277,0.71654 -1.26757,0.33399 0.0358,-0.60995 -0.81099,-1.31387 -1.24024,-0.65235 -0.65631,0.96507 -0.47552,2.21272 -0.75586,3.30274 -0.70077,-0.32916 -1.74521,-0.24329 -2.01497,0.60237 -0.17678,0.35821 0.17094,1.60324 -0.425,1.01057 -0.33742,-0.4962 -0.71416,-0.006 -1.15573,-0.0719 -0.69044,-0.32039 -0.49657,-1.25026 -0.69555,-1.87441 -0.19715,-0.91766 -0.19152,-1.92703 -0.57463,-2.78181 -0.3841,-0.49641 -1.19775,-0.0658 -1.43532,-0.69356 -0.3244,-0.49179 -1.03628,-1.16145 -1.60114,-0.65022 -0.23194,0.44539 -0.6721,0.73605 -1.17188,0.71874 -0.47679,0.37757 -0.92198,0.80254 -1.39453,1.18946 -0.26131,-1.83994 -0.20642,-3.80832 -1.0293,-5.50781 -0.96676,-0.58403 -0.67735,-1.85806 -0.92715,-2.79055 -0.42189,-2.91622 -0.59574,-5.8095 -1.40292,-8.64696 -0.32419,-0.54725 -1.16012,-0.41975 -1.2461,0.24219 -0.46049,1.17255 -0.40218,2.45951 -0.68945,3.67383 -0.79188,-0.0673 -1.34581,0.58038 -1.46761,1.30795 -0.78322,3.05508 -0.43759,6.35353 -1.69072,9.28984 -0.34743,0.57545 -0.85034,1.04629 -1.12683,1.66784 -0.75356,-0.1086 -1.3367,-0.65665 -1.51562,-1.39258 -0.41579,-1.30344 -0.0693,-2.75678 -0.71702,-4.01043 -0.22293,-0.50859 -0.60712,-1.05203 -1.21072,-1.0716 -0.82432,-0.55615 -0.39686,-1.71074 -0.76449,-2.51855 -0.074,-0.52648 -0.62989,-0.98484 -1.0974,-0.54335 -0.75274,0.68543 -0.52439,-0.44033 -0.64762,-0.94902 -0.054,-0.76044 -0.53806,-1.39441 -0.95345,-1.95969 -0.0535,-0.604 -0.10886,-1.73905 -0.96868,-1.60166 -0.81817,0.5466 -0.43819,1.69057 -0.76757,2.47266 -0.27315,0.62547 -1.09783,-0.0261 -1.35268,0.60501 -0.432,0.93057 -0.58757,1.8473 -0.7623,2.82474 -0.42402,3.75989 -0.5536,7.53812 -0.76588,11.30658 -0.0326,0.6289 -0.0651,1.25781 -0.0977,1.88671 -0.43432,-0.64139 -0.62377,-1.50007 -1.22852,-1.99414 -0.50472,-0.34615 -0.87416,0.40092 -1.34375,0.0937 -0.72045,-0.11614 -1.07191,0.66694 -1.00195,1.26954 -3.8e-4,0.44957 -0.88528,0.9322 -0.98263,0.31597 -0.50175,-1.28609 -0.31218,-2.73696 -0.55291,-4.08788 -0.16305,-1.03728 -0.2772,-2.14797 -0.77501,-3.07575 -0.59348,-0.41861 -1.32735,0.19909 -1.28515,0.85547 -0.13209,0.67633 -0.83699,0.66003 -1.06836,0.0859 -0.40224,-3.11755 -0.591,-6.29555 -1.08399,-9.4082 -0.39377,-0.76056 -1.80553,-0.60597 -1.77506,0.35904 -0.52422,2.45131 -0.41947,4.99657 -1.09212,7.42416 -0.51217,-1.03475 -0.58323,-2.359 -1.52344,-3.12695 -0.33017,-0.35472 -1.17442,0.0463 -1.04294,-0.64139 -0.23711,-2.24052 -0.50577,-4.54687 -1.60116,-6.55577 -0.21915,-0.88091 -0.44239,-0.0999 -0.39719,0.37563 -0.0788,1.46947 -0.49773,2.89448 -1.19543,4.1897 -0.32533,0.99402 -0.44481,0.65668 -0.4833,-0.2044 -0.38124,-2.59457 -0.46694,-5.26954 -1.30077,-7.77138 -0.19297,-0.624548 -1.15053,-1.323526 -1.60734,-0.557492 -0.37387,0.991742 -0.22505,2.089392 -0.37416,3.131622 -0.14888,2.31502 -0.7413,4.5724 -0.90572,6.85662 -0.19892,1.41204 -0.1741,2.86344 -0.44056,4.2571 -0.1925,0.58665 -0.36403,1.5757 -0.6448,0.46959 -0.59207,-1.24414 -0.58691,-2.65851 -0.91397,-3.98241 -0.47556,-2.76258 -0.51707,-5.5962 -0.96851,-8.33631 -0.2446,-1.29248 -0.29747,-2.679192 -0.88782,-3.867828 -0.57907,-0.226777 -0.72696,-0.520349 -0.625,-1.138672 -0.0166,-0.604435 -0.79979,-1.303278 -1.2795,-0.68033 -0.38569,0.512583 -0.14792,1.276481 -0.70683,1.678377 -0.5307,1.014521 -0.30969,2.223793 -0.54663,3.317343 -0.0819,1.01885 -0.21212,2.03171 -0.71681,2.93971 -0.18255,-0.0176 -0.47886,-0.99443 -0.56794,-1.41514 -0.0844,-1.29192 -0.2547,-2.49505 -0.64323,-3.748163 -0.0192,-0.496027 -0.23731,-1.305358 -0.9043,-1.02539 -0.833045,0.404057 -0.550245,1.470005 -0.771475,2.201173 -0.37445,2.66851 -0.37438,5.32099 -0.53065,8.01125 -0.13397,0.38928 -0.0859,1.91348 -0.44126,0.92255 -0.38711,-0.49267 -0.42802,-1.58273 -1.25856,-1.46114 -0.90685,0.45172 -0.43763,1.72419 -1.01953,2.43359 -0.27171,0.56137 0.021,1.51899 -0.78711,1.6543 -0.71562,0.27314 -1.09376,-0.56465 -0.96875,-1.15469 -0.38783,-8.63424 -0.39093,-17.285927 -0.91498,-25.913856 -0.0615,-0.507931 -0.11638,-1.302018 -0.71197,-1.445131 z"
         clip-path="url(#clipPath905)"
         transform="translate(-3.0372562,3.8370789)" />
    </g>
  </g>
</svg>
