<?xml version="1.0" encoding="UTF-8" standalone="no"?>
<svg
   xmlns:dc="http://purl.org/dc/elements/1.1/"
   xmlns:cc="http://creativecommons.org/ns#"
   xmlns:rdf="http://www.w3.org/1999/02/22-rdf-syntax-ns#"
   xmlns:svg="http://www.w3.org/2000/svg"
   xmlns="http://www.w3.org/2000/svg"
   xmlns:sodipodi="http://sodipodi.sourceforge.net/DTD/sodipodi-0.dtd"
   xmlns:inkscape="http://www.inkscape.org/namespaces/inkscape"
   width="108.0776mm"
   height="107.30689mm"
   viewBox="0 0 108.0776 107.30689"
   version="1.1"
   id="svg869"
   inkscape:version="1.0.2 (1.0.2+r75+1)"
   sodipodi:docname="python.svg">
  <defs
     id="defs863" />
  <sodipodi:namedview
     id="base"
     pagecolor="#ffffff"
     bordercolor="#666666"
     borderopacity="1.0"
     inkscape:pageopacity="0.0"
     inkscape:pageshadow="2"
     inkscape:zoom="0.35"
     inkscape:cx="123.4427"
     inkscape:cy="14.748053"
     inkscape:document-units="mm"
     inkscape:current-layer="layer1"
     inkscape:document-rotation="0"
     showgrid="false"
     showguides="true"
     inkscape:guide-bbox="true"
     inkscape:object-nodes="true"
     inkscape:snap-nodes="false"
     inkscape:window-width="1920"
     inkscape:window-height="1056"
     inkscape:window-x="0"
     inkscape:window-y="0"
     inkscape:window-maximized="0" />
  <metadata
     id="metadata866">
    <rdf:RDF>
      <cc:Work
         rdf:about="">
        <dc:format>image/svg+xml</dc:format>
        <dc:type
           rdf:resource="http://purl.org/dc/dcmitype/StillImage" />
        <dc:title></dc:title>
      </cc:Work>
    </rdf:RDF>
  </metadata>
  <g
     inkscape:label="Layer 1"
     inkscape:groupmode="layer"
     id="layer1"
     transform="translate(-45.012122,-42.209545)">
    <g
       id="g1618"
       transform="translate(-31.108968,-3.8881182)" />
    <g
       inkscape:groupmode="layer"
       id="layer2"
       inkscape:label="Layer 2" />
    <g
       id="g1805"
       transform="matrix(3.4827733,0,0,3.4827733,-180.61229,-225.33101)">
      <g
         id="g1787"
         transform="translate(-35.721056,-5.4712675)">
        <path
           id="path1712"
           style="fill:#85cbf8;fill-opacity:1;stroke:#8d6c9d;stroke-width:2;stroke-miterlimit:4;stroke-dasharray:none;stroke-opacity:1;paint-order:stroke fill markers"
           d="m 115.97859,83.289519 c -3.54076,3e-6 -6.4112,1.32151 -6.41149,2.951758 v 2.952273 h 6.41149 0.52607 v 2.995684 c -4.35395,0 -7.31882,-0.0424 -11.45615,-0.0424 h -5.2e-4 c -1.95738,5.28e-4 -3.54397,2.405167 -3.54396,5.37125 -1e-5,2.966086 1.58658,5.370716 3.54396,5.371246 h 5.2e-4 3.545 v -3.146056 c 0,-1.15441 0.90179,-2.62258 2.57142,-2.62258 h 8.93279 c 2.10013,0 2.29237,-0.05668 2.29237,-2.33733 V 89.19355 88.656634 86.241277 c -2.9e-4,-1.63025 -2.87073,-2.951758 -6.4115,-2.951758 z"
           sodipodi:nodetypes="sccccccsssccsssscccs" />
        <path
           id="path1737"
           style="fill:#f9dd8f;fill-opacity:1;stroke:#8d6c9d;stroke-width:2;stroke-miterlimit:4;stroke-dasharray:none;stroke-opacity:1;paint-order:stroke fill markers"
           d="m 116.06152,112.10028 c 3.54076,0 6.4112,-1.32151 6.41149,-2.95176 v -2.95227 h -6.41149 -0.52607 v -2.99569 c 4.35395,0 7.31882,0.0424 11.45615,0.0424 h 5.2e-4 c 1.95738,-5.3e-4 3.54397,-2.40516 3.54396,-5.371247 1e-5,-2.966086 -1.58658,-5.370716 -3.54396,-5.371246 h -5.2e-4 -3.545 v 3.146056 c 0,1.15441 -0.90179,2.62258 -2.57142,2.62258 0,0 -7.07395,0 -8.93279,0 -1.85884,0 -2.29237,0.332136 -2.29237,2.337327 0,2.00519 0,4.5687 0,5.58982 0,1.02112 0,0.53691 0,0.53691 v 2.41536 c 2.9e-4,1.63025 2.87073,2.95176 6.4115,2.95176 z"
           sodipodi:nodetypes="sccccccsssccsszzzccs" />
        <path
           id="path1743"
           style="fill:#efc88e;fill-opacity:1;stroke:none;stroke-width:1.665"
           d="m 123.4466,92.500467 c 0,0 1.09756,2.187461 3.05821,2.187461 1.96065,0 1.80661,2.353444 1.80661,2.972944 0,0.6195 0.11101,3.415298 -1.7446,3.415298 h -8.55761 c 0,0 -2.36835,0.29745 -2.47375,2.12441 h 7.91114 v 0.0424 h 3.545 5.2e-4 a 3.5445911,5.371231 0 0 0 3.54397,-5.371248 3.5445911,5.371231 0 0 0 -3.54397,-5.371245 3.5445911,5.371231 0 0 0 -5.2e-4,0 z" />
        <path
           id="path1745"
           style="fill:#ace3ff;fill-opacity:1;stroke:none;stroke-width:1.665"
           d="m 105.048,92.146904 a 3.5445911,5.371231 0 0 0 -3.54397,5.371244 3.5445911,5.371231 0 0 0 3.54397,5.371252 3.5445911,5.371231 0 0 0 5.1e-4,0 h 3.545 c -0.4092,-1.34 -0.82259,-2.13165 -3.20342,-2.13165 -0.63169,0 -1.55391,-0.802842 -1.55391,-3.403412 0,-2.600574 0.9003,-2.953314 1.387,-2.953314 0.4867,0 8.59534,-0.0543 8.59534,-0.0543 2.21812,0 2.68614,-2.15749 2.68614,-2.15749 h -7.91114 v -0.0424 h -3.54501 z" />
      </g>
      <g
         id="g1781">
        <ellipse
           style="fill:#8d6c9e;fill-opacity:1;stroke:none;stroke-width:2.53709;stroke-miterlimit:4;stroke-dasharray:none;stroke-opacity:1;paint-order:markers stroke fill"
           id="path1751"
           cx="83.737556"
           cy="103.2959"
           rx="1.3623815"
           ry="1.3840691" />
        <ellipse
           style="fill:#8d6c9e;fill-opacity:1;stroke:none;stroke-width:2;stroke-miterlimit:4;stroke-dasharray:none;stroke-opacity:1;paint-order:markers stroke fill"
           id="path1753"
           cx="83.234276"
           cy="95.596581"
           rx="0.54793978"
           ry="1.1177651" />
        <ellipse
           style="fill:#8d6c9e;fill-opacity:1;stroke:none;stroke-width:2;stroke-miterlimit:4;stroke-dasharray:none;stroke-opacity:1;paint-order:markers stroke fill"
           id="ellipse1755"
           cx="85.680756"
           cy="95.596581"
           rx="0.54793978"
           ry="1.1177651" />
        <ellipse
           style="fill:#8d6c9e;fill-opacity:1;stroke:none;stroke-width:2;stroke-miterlimit:4;stroke-dasharray:none;stroke-opacity:1;paint-order:markers stroke fill"
           id="ellipse1757"
           cx="88.127228"
           cy="95.596581"
           rx="0.54793978"
           ry="1.1177651" />
        <ellipse
           style="fill:#8d6c9e;fill-opacity:1;stroke:none;stroke-width:2;stroke-miterlimit:4;stroke-dasharray:none;stroke-opacity:1;paint-order:markers stroke fill"
           id="ellipse1759"
           cx="90.5737"
           cy="95.596581"
           rx="0.54793978"
           ry="1.1177651" />
        <ellipse
           style="fill:#8d6c9e;fill-opacity:1;stroke:none;stroke-width:2.53709;stroke-miterlimit:4;stroke-dasharray:none;stroke-opacity:1;paint-order:markers stroke fill"
           id="ellipse1761"
           cx="-77.409447"
           cy="-81.562851"
           rx="1.3623815"
           ry="1.3840691"
           transform="scale(-1)" />
        <ellipse
           style="fill:#8d6c9e;fill-opacity:1;stroke:none;stroke-width:2;stroke-miterlimit:4;stroke-dasharray:none;stroke-opacity:1;paint-order:markers stroke fill"
           id="ellipse1763"
           cx="-78.943504"
           cy="-89.262169"
           rx="0.54793978"
           ry="1.1177651"
           transform="scale(-1)" />
        <ellipse
           style="fill:#8d6c9e;fill-opacity:1;stroke:none;stroke-width:2;stroke-miterlimit:4;stroke-dasharray:none;stroke-opacity:1;paint-order:markers stroke fill"
           id="ellipse1765"
           cx="-76.497017"
           cy="-89.262169"
           rx="0.54793978"
           ry="1.1177651"
           transform="scale(-1)" />
        <ellipse
           style="fill:#8d6c9e;fill-opacity:1;stroke:none;stroke-width:2;stroke-miterlimit:4;stroke-dasharray:none;stroke-opacity:1;paint-order:markers stroke fill"
           id="ellipse1767"
           cx="-74.050545"
           cy="-89.262169"
           rx="0.54793978"
           ry="1.1177651"
           transform="scale(-1)" />
        <ellipse
           style="fill:#8d6c9e;fill-opacity:1;stroke:none;stroke-width:2;stroke-miterlimit:4;stroke-dasharray:none;stroke-opacity:1;paint-order:markers stroke fill"
           id="ellipse1769"
           cx="-71.604073"
           cy="-89.262169"
           rx="0.54793978"
           ry="1.1177651"
           transform="scale(-1)" />
      </g>
    </g>
  </g>
</svg>
