<?xml version="1.0" encoding="UTF-8" standalone="no"?>
<svg
   xmlns:dc="http://purl.org/dc/elements/1.1/"
   xmlns:cc="http://creativecommons.org/ns#"
   xmlns:rdf="http://www.w3.org/1999/02/22-rdf-syntax-ns#"
   xmlns:svg="http://www.w3.org/2000/svg"
   xmlns="http://www.w3.org/2000/svg"
   xmlns:sodipodi="http://sodipodi.sourceforge.net/DTD/sodipodi-0.dtd"
   xmlns:inkscape="http://www.inkscape.org/namespaces/inkscape"
   width="77.303749mm"
   height="64.237747mm"
   viewBox="0 0 77.303749 64.237747"
   version="1.1"
   id="svg8"
   inkscape:version="1.0.2 (1.0.2+r75+1)"
   sodipodi:docname="work.svg">
  <defs
     id="defs2" />
  <sodipodi:namedview
     id="base"
     pagecolor="#ffffff"
     bordercolor="#666666"
     borderopacity="1.0"
     inkscape:pageopacity="0.0"
     inkscape:pageshadow="2"
     inkscape:zoom="0.70710678"
     inkscape:cx="67.679615"
     inkscape:cy="-13.153397"
     inkscape:document-units="mm"
     inkscape:current-layer="layer1"
     inkscape:document-rotation="0"
     showgrid="false"
     showguides="true"
     inkscape:guide-bbox="true"
     inkscape:window-width="1920"
     inkscape:window-height="1056"
     inkscape:window-x="0"
     inkscape:window-y="0"
     inkscape:window-maximized="0" />
  <metadata
     id="metadata5">
    <rdf:RDF>
      <cc:Work
         rdf:about="">
        <dc:format>image/svg+xml</dc:format>
        <dc:type
           rdf:resource="http://purl.org/dc/dcmitype/StillImage" />
        <dc:title></dc:title>
      </cc:Work>
    </rdf:RDF>
  </metadata>
  <g
     inkscape:label="Layer 1"
     inkscape:groupmode="layer"
     id="layer1"
     transform="translate(-69.924475,-83.219562)">
    <path
       id="rect931"
       style="fill:#cda1a7;fill-opacity:1;stroke:#8d6c9f;stroke-width:4.77385;stroke-linecap:round;stroke-miterlimit:4;stroke-dasharray:none;stroke-opacity:1;paint-order:markers stroke fill"
       d="m 108.57634,132.83826 c -0.90106,0 -1.072,-0.76032 -1.072,-1.91455 V 100.80428 87.646379 h -8.798258 -8.798211 -15.672223 -0.0012 c -1.102402,6.23e-4 -1.923048,0.89337 -1.923048,1.885428 v 24.430373 24.43279 c 0,1.12747 0.626568,1.79196 1.958265,1.79196 h 26.688515 c 1.63829,0 2.03034,0.85638 2.96167,2.84925 0.99069,2.11994 1.51828,2.01338 4.81756,2.01338 3.12349,0 3.83828,-0.40174 4.62768,-2.19426 0.39659,-0.90052 1.16736,-2.66837 2.82944,-2.66837 h 26.6885 c 1.33171,0 1.95827,-0.66449 1.95827,-1.79196 V 113.96218 89.531807 c 0,-0.992058 -0.82065,-1.884756 -1.92304,-1.885428 h -15.67342 -8.79824 -8.79823 v 13.157901 30.11943 c 0,1.15423 -0.17103,1.91455 -1.072,1.91455"
       sodipodi:nodetypes="cscccccsscssssssssscscccccsc" />
    <path
       id="path924"
       style="fill:#faefde;fill-opacity:1;stroke:#8d6c9f;stroke-width:3.91164;stroke-miterlimit:4;stroke-dasharray:none;stroke-opacity:1;paint-order:markers stroke fill"
       d="m 79.201672,85.175382 c -1.459548,0 -1.938836,0.529965 -1.938836,1.709388 v 24.73631 21.76431 c 0,1.1512 0.743024,1.79074 1.777366,1.79074 h 13.364283 11.742325 c 1.36781,0 2.92894,0.94776 3.46489,1.9534 0.13697,0.25715 0.31272,0.60582 0.76852,0.60582 0.45579,0 0.63265,-0.34867 0.76969,-0.60582 0.53595,-1.00564 2.09711,-1.9534 3.46491,-1.9534 h 11.74111 13.36428 c 1.03434,0 1.77737,-0.63954 1.77737,-1.79074 V 111.62108 86.88477 c 0,-1.179423 -0.47929,-1.709388 -1.93884,-1.709388 H 123.88973 112.2324 c -1.75531,0 -3.01814,1.12216 -3.01814,3.66644 v 13.223448 29.23925 c 0,0.6708 -0.18349,1.22217 -0.83404,1.23955 -0.65067,-0.0164 -0.83406,-0.56875 -0.83406,-1.23955 V 102.06527 88.841822 c 0,-2.54428 -1.26162,-3.66644 -3.01692,-3.66644 H 92.871909 Z" />
    <path
       id="rect847"
       style="fill:#fff7f0;fill-opacity:1;stroke:none;stroke-width:3.91164;stroke-miterlimit:4;stroke-dasharray:none;stroke-opacity:1;paint-order:markers stroke fill"
       d="m 79.201285,85.175783 c -1.459548,0 -1.938841,0.529965 -1.938841,1.709386 v 24.736321 21.76431 c 0,1.1512 0.743029,1.79073 1.777375,1.79073 h 3.265797 V 85.175783 Z" />
    <path
       style="fill:none;stroke:#8d6c9f;stroke-width:2.73697;stroke-linecap:round;stroke-linejoin:miter;stroke-miterlimit:4;stroke-dasharray:none;stroke-opacity:1"
       d="m 83.44612,93.985422 h 5.253582"
       id="path864" />
    <path
       style="fill:none;stroke:#72caaf;stroke-width:2.46335;stroke-linecap:round;stroke-linejoin:miter;stroke-miterlimit:4;stroke-dasharray:none;stroke-opacity:1"
       d="m 95.755388,93.985422 h 1.511985"
       id="path866" />
    <path
       style="fill:none;stroke:#ed7899;stroke-width:2.53218;stroke-linecap:round;stroke-linejoin:miter;stroke-miterlimit:4;stroke-dasharray:none;stroke-opacity:1"
       d="m 100.62746,93.985422 h 1.7113"
       id="path868" />
    <path
       style="fill:none;stroke:#8d6c9f;stroke-width:2.73697;stroke-linecap:round;stroke-linejoin:miter;stroke-miterlimit:4;stroke-dasharray:none;stroke-opacity:1"
       d="m 83.604677,99.048682 h 7.227775"
       id="path870" />
    <path
       style="fill:none;stroke:#72caaf;stroke-width:2.46335;stroke-linecap:round;stroke-linejoin:miter;stroke-miterlimit:4;stroke-dasharray:none;stroke-opacity:1"
       d="m 95.755388,99.048682 h 1.511985"
       id="path872" />
    <path
       style="fill:none;stroke:#ed7899;stroke-width:2.53218;stroke-linecap:round;stroke-linejoin:miter;stroke-miterlimit:4;stroke-dasharray:none;stroke-opacity:1"
       d="m 100.62746,99.048682 h 1.7113"
       id="path874" />
    <path
       style="fill:none;stroke:#8d6c9f;stroke-width:2.73697;stroke-linecap:round;stroke-linejoin:miter;stroke-miterlimit:4;stroke-dasharray:none;stroke-opacity:1"
       d="m 83.261016,106.34799 h 5.412773"
       id="path876" />
    <path
       style="fill:none;stroke:#ed7899;stroke-width:2.53218;stroke-linecap:round;stroke-linejoin:miter;stroke-miterlimit:4;stroke-dasharray:none;stroke-opacity:1"
       d="m 100.62746,106.34799 h 1.7113"
       id="path880" />
    <path
       style="fill:none;stroke:#8d6c9f;stroke-width:2.73697;stroke-linecap:round;stroke-linejoin:miter;stroke-miterlimit:4;stroke-dasharray:none;stroke-opacity:1"
       d="m 82.92828,111.49771 h 3.655353"
       id="path882" />
    <path
       style="fill:none;stroke:#72caaf;stroke-width:2.46335;stroke-linecap:round;stroke-linejoin:miter;stroke-miterlimit:4;stroke-dasharray:none;stroke-opacity:1"
       d="m 95.755388,111.49771 h 1.511985"
       id="path884" />
    <path
       style="fill:none;stroke:#ed7899;stroke-width:2.53218;stroke-linecap:round;stroke-linejoin:miter;stroke-miterlimit:4;stroke-dasharray:none;stroke-opacity:1"
       d="m 100.62746,111.49771 h 1.7113"
       id="path886" />
    <path
       style="fill:none;stroke:#8d6c9f;stroke-width:2.73697;stroke-linecap:round;stroke-linejoin:miter;stroke-miterlimit:4;stroke-dasharray:none;stroke-opacity:1"
       d="m 83.281502,118.67786 h 5.520937"
       id="path888" />
    <path
       style="fill:none;stroke:#72caaf;stroke-width:2.46335;stroke-linecap:round;stroke-linejoin:miter;stroke-miterlimit:4;stroke-dasharray:none;stroke-opacity:1"
       d="m 95.755388,118.67786 h 1.511985"
       id="path890" />
    <path
       style="fill:none;stroke:#ed7899;stroke-width:2.53218;stroke-linecap:round;stroke-linejoin:miter;stroke-miterlimit:4;stroke-dasharray:none;stroke-opacity:1"
       d="m 100.62746,118.67786 h 1.7113"
       id="path892" />
    <path
       style="fill:none;stroke:#8d6c9f;stroke-width:2.73697;stroke-linecap:round;stroke-linejoin:miter;stroke-miterlimit:4;stroke-dasharray:none;stroke-opacity:1"
       d="m 82.950951,123.94304 h 3.775075"
       id="path894" />
    <path
       style="fill:none;stroke:#ed7899;stroke-width:2.53218;stroke-linecap:round;stroke-linejoin:miter;stroke-miterlimit:4;stroke-dasharray:none;stroke-opacity:1"
       d="m 100.62746,123.94304 h 1.7113"
       id="path898" />
    <path
       style="fill:none;stroke:#8d6c9f;stroke-width:2.73697;stroke-linecap:round;stroke-linejoin:miter;stroke-miterlimit:4;stroke-dasharray:none;stroke-opacity:1"
       d="m 116.06936,93.985422 h 5.25358"
       id="path900" />
    <path
       style="fill:none;stroke:#ed7899;stroke-width:2.53218;stroke-linecap:round;stroke-linejoin:miter;stroke-miterlimit:4;stroke-dasharray:none;stroke-opacity:1"
       d="m 133.2507,93.985422 h 1.7113"
       id="path904" />
    <path
       style="fill:none;stroke:#8d6c9f;stroke-width:2.73697;stroke-linecap:round;stroke-linejoin:miter;stroke-miterlimit:4;stroke-dasharray:none;stroke-opacity:1"
       d="m 116.43635,98.977962 h 6.6624"
       id="path906" />
    <path
       style="fill:none;stroke:#72caaf;stroke-width:2.46335;stroke-linecap:round;stroke-linejoin:miter;stroke-miterlimit:4;stroke-dasharray:none;stroke-opacity:1"
       d="m 128.37862,98.977962 h 1.51199"
       id="path908" />
    <path
       style="fill:none;stroke:#ed7899;stroke-width:2.53218;stroke-linecap:round;stroke-linejoin:miter;stroke-miterlimit:4;stroke-dasharray:none;stroke-opacity:1"
       d="m 133.2507,98.977962 h 1.7113"
       id="path910" />
    <path
       style="fill:none;stroke:#8d6c9f;stroke-width:2.73697;stroke-linecap:round;stroke-linejoin:miter;stroke-miterlimit:4;stroke-dasharray:none;stroke-opacity:1"
       d="m 116.00536,106.2994 h 5.00786"
       id="path912" />
    <path
       style="fill:none;stroke:#72caaf;stroke-width:2.46335;stroke-linecap:round;stroke-linejoin:miter;stroke-miterlimit:4;stroke-dasharray:none;stroke-opacity:1"
       d="m 128.37862,106.2994 h 1.51199"
       id="path914" />
    <path
       style="fill:none;stroke:#ed7899;stroke-width:2.53218;stroke-linecap:round;stroke-linejoin:miter;stroke-miterlimit:4;stroke-dasharray:none;stroke-opacity:1"
       d="m 133.2507,106.2994 h 1.7113"
       id="path916" />
    <path
       style="fill:none;stroke:#8d6c9f;stroke-width:2.73697;stroke-linecap:round;stroke-linejoin:miter;stroke-miterlimit:4;stroke-dasharray:none;stroke-opacity:1"
       d="m 115.56469,111.53425 h 3.31621"
       id="path918" />
    <path
       style="fill:none;stroke:#ed7899;stroke-width:2.53218;stroke-linecap:round;stroke-linejoin:miter;stroke-miterlimit:4;stroke-dasharray:none;stroke-opacity:1"
       d="m 133.2507,111.53425 h 1.7113"
       id="path922" />
  </g>
</svg>
