<?xml version="1.0" encoding="UTF-8" standalone="no"?>
<svg
   xmlns:dc="http://purl.org/dc/elements/1.1/"
   xmlns:cc="http://creativecommons.org/ns#"
   xmlns:rdf="http://www.w3.org/1999/02/22-rdf-syntax-ns#"
   xmlns:svg="http://www.w3.org/2000/svg"
   xmlns="http://www.w3.org/2000/svg"
   xmlns:sodipodi="http://sodipodi.sourceforge.net/DTD/sodipodi-0.dtd"
   xmlns:inkscape="http://www.inkscape.org/namespaces/inkscape"
   width="66.201393mm"
   height="66.091888mm"
   viewBox="0 0 66.201393 66.091888"
   version="1.1"
   id="svg8"
   inkscape:version="1.0.2 (1.0.2+r75+1)"
   sodipodi:docname="SQL.svg">
  <defs
     id="defs2" />
  <sodipodi:namedview
     id="base"
     pagecolor="#ffffff"
     bordercolor="#666666"
     borderopacity="1.0"
     inkscape:pageopacity="0.0"
     inkscape:pageshadow="2"
     inkscape:zoom="0.98994949"
     inkscape:cx="108.23353"
     inkscape:cy="110.01829"
     inkscape:document-units="mm"
     inkscape:current-layer="layer1"
     inkscape:document-rotation="0"
     showgrid="false"
     showguides="true"
     inkscape:guide-bbox="true"
     inkscape:snap-smooth-nodes="false"
     inkscape:snap-nodes="false"
     inkscape:window-width="1920"
     inkscape:window-height="1056"
     inkscape:window-x="0"
     inkscape:window-y="0"
     inkscape:window-maximized="0" />
  <metadata
     id="metadata5">
    <rdf:RDF>
      <cc:Work
         rdf:about="">
        <dc:format>image/svg+xml</dc:format>
        <dc:type
           rdf:resource="http://purl.org/dc/dcmitype/StillImage" />
        <dc:title></dc:title>
      </cc:Work>
    </rdf:RDF>
  </metadata>
  <g
     inkscape:label="Layer 1"
     inkscape:groupmode="layer"
     id="layer1"
     transform="translate(-75.389295,-54.356981)">
    <path
       id="path863"
       style="fill:#85cbf8;fill-opacity:1;stroke:#8d6c9f;stroke-width:4.55706;stroke-miterlimit:4;stroke-dasharray:none;stroke-opacity:1;paint-order:markers stroke fill"
       d="m 85.327934,56.635511 c -4.229901,-4.36e-4 -7.659356,3.428058 -7.660105,7.657959 v 0.0011 c -2e-6,26.773624 -4e-6,22.427631 -4e-6,46.21681 v 10e-4 c 7.49e-4,4.2299 3.430204,7.65839 7.660104,7.65795 12.994413,0 37.300651,-0.001 46.299411,10e-6 4.2299,4.4e-4 7.65936,-3.42806 7.66011,-7.65796 v -10e-4 c 0.12269,-16.444333 -0.25195,-35.748123 -0.25968,-46.21681 v -0.0011 c -7.4e-4,-4.229896 -3.43019,-7.658386 -7.66009,-7.657959 -23.08422,0 -36.9747,0.0013 -46.039746,0 z"
       sodipodi:nodetypes="csccsccsccscc" />
    <path
       id="path998"
       style="fill:#ace3ff;fill-opacity:1;stroke-width:1.78049"
       d="m 85.327794,56.635446 a 7.6593168,7.6593168 0 0 0 -5.994874,2.891011 v 0.663567 2.148912 a 7.2454645,2.1506198 0 0 1 0,0.0011 7.2454645,2.1506198 0 0 0 7.245754,2.150048 h 7.244612 l -0.0023,-2.094279 a 7.2454645,2.1506198 0 0 0 0.0034,-0.03984 v 2.134116 h 29.307384 v -2.118178 a 7.2454645,2.1506198 0 0 0 0.002,0.0239 l -0.002,2.094279 h 7.24461 a 7.2454645,2.1506198 0 0 0 7.24575,-2.150048 7.2454645,2.1506198 0 0 0 0,-0.0011 v -2.148912 -0.316413 a 7.6593168,7.6593168 0 0 0 -6.25438,-3.238165 l -7.39827,0.0011 v -0.0011 H 92.986711 v 7.657774 a 7.6593168,7.6593168 0 0 0 -0.0023,-0.199186 l 0.0011,-7.457452 z" />
    <path
       style="fill:#8c6b9e;stroke-width:0.582755"
       d="m 133.49184,65.458983 c -0.55927,-1.457451 -0.0132,-3.587378 0.91991,-3.587378 0.60645,0 0.87415,0.609737 0.87415,1.991083 0,2.066286 -1.20297,3.136647 -1.79406,1.596295 z"
       id="path935" />
    <path
       style="fill:#8c6b9e;stroke-width:0.582755"
       d="m 127.66429,65.458983 c -0.55927,-1.457451 -0.0132,-3.587378 0.91991,-3.587378 0.60645,0 0.87413,0.609737 0.87413,1.991083 0,2.066286 -1.20294,3.136647 -1.79404,1.596295 z"
       id="path933" />
    <path
       style="fill:#8c6b9e;stroke-width:0.582755"
       d="m 121.83674,65.458983 c -0.55927,-1.457451 -0.0132,-3.587378 0.91991,-3.587378 0.60643,0 0.87413,0.609737 0.87413,1.991083 0,2.066286 -1.20297,3.136647 -1.79404,1.596295 z"
       id="path931" />
    <path
       style="fill:#8c6b9e;stroke-width:0.582755"
       d="m 116.00919,65.458983 c -0.55929,-1.457451 -0.0132,-3.587378 0.91989,-3.587378 0.60645,0 0.87414,0.609737 0.87414,1.991083 0,2.066286 -1.20296,3.136647 -1.79403,1.596295 z"
       id="path929" />
    <path
       style="fill:#8c6b9e;stroke-width:0.582755"
       d="m 110.18161,65.458983 c -0.55927,-1.457451 -0.0132,-3.587378 0.91992,-3.587378 0.60644,0 0.87414,0.609737 0.87414,1.991083 0,2.066286 -1.20296,3.136647 -1.79406,1.596295 z"
       id="path927" />
    <path
       style="fill:#8c6b9e;stroke-width:0.582755"
       d="m 104.35406,65.458983 c -0.55927,-1.457451 -0.0132,-3.587378 0.91991,-3.587378 0.60645,0 0.87413,0.609737 0.87413,1.991083 0,2.066286 -1.20294,3.136647 -1.79404,1.596295 z"
       id="path925" />
    <path
       style="fill:#8c6b9e;stroke-width:0.582755"
       d="m 98.526507,65.458983 c -0.559292,-1.457451 -0.01322,-3.587378 0.919891,-3.587378 0.606452,0 0.874152,0.609737 0.874152,1.991083 0,2.066286 -1.202969,3.136647 -1.794043,1.596295 z"
       id="path923" />
    <path
       style="fill:#8c6b9e;stroke-width:0.582755"
       d="m 92.698933,65.458983 c -0.55927,-1.457451 -0.01322,-3.587378 0.919913,-3.587378 0.606448,0 0.874145,0.609737 0.874145,1.991083 0,2.066286 -1.202962,3.136647 -1.794058,1.596295 z"
       id="path921" />
    <path
       style="fill:#8c6b9e;stroke-width:0.582755"
       d="m 86.871381,65.458983 c -0.55927,-1.457451 -0.01322,-3.587378 0.919913,-3.587378 0.606448,0 0.874123,0.609737 0.874123,1.991083 0,2.066286 -1.20294,3.136647 -1.794036,1.596295 z"
       id="path919" />
    <path
       style="fill:#8c6b9e;stroke-width:0.582755"
       d="m 81.043829,65.458983 c -0.559292,-1.457451 -0.01322,-3.587378 0.919913,-3.587378 0.606426,0 0.874123,0.609737 0.874123,1.991083 0,2.066286 -1.202962,3.136647 -1.794036,1.596295 z"
       id="path917" />
    <path
       id="path989"
       style="fill:#fff7f0;fill-opacity:1;stroke-width:0.582755"
       d="m 109.57869,78.037428 c -1.46238,0 -2.92546,0.598979 -4.12483,1.798349 -1.69592,1.695871 -1.70275,1.735603 -1.70275,8.786868 0,7.051271 0.007,7.089855 1.70275,8.785729 1.10543,1.10544 2.30163,1.703878 3.40662,1.703878 0.96269,0 2.16151,0.506573 2.75785,1.165508 1.37822,1.52293 3.78791,1.56535 3.78791,0.0672 0,-0.628357 -0.52834,-1.235391 -1.23609,-1.420468 l -1.23606,-0.32325 1.23606,-1.571844 c 1.10301,-1.402237 1.23609,-2.32125 1.23609,-8.530772 0,-6.914859 -0.011,-6.97025 -1.70389,-8.662805 -1.19935,-1.19937 -2.66128,-1.798349 -4.12366,-1.798349 z m 0.001,2.837519 c 1.01888,6.35e-4 2.03782,0.229267 2.49493,0.686334 0.87595,0.875969 0.98714,13.15293 0.12643,13.959966 -0.96901,0.908539 -2.83888,1.204374 -4.19311,0.664703 v 0.0011 c -0.84153,-0.335359 -1.4113,-1.213352 -1.66519,-2.566627 -0.57427,-3.061117 -0.0705,-11.249917 0.74212,-12.062594 0.4565,-0.456518 1.47604,-0.683554 2.49491,-0.682918 z" />
    <path
       style="fill:#fff7f0;fill-opacity:1;stroke-width:0.582755"
       d="m 121.23426,78.133295 c 1.11706,0 1.16549,0.388507 1.16549,9.324095 v 9.324096 h 4.66206 c 4.27354,0 4.66205,0.09713 4.66205,1.165511 0,1.087807 -0.38851,1.165512 -5.82757,1.165512 h -5.82755 V 88.622902 c 0,-10.1011 0.0432,-10.489607 1.16552,-10.489607 z"
       id="path993" />
    <path
       style="fill:#fff7f0;fill-opacity:1;stroke-width:0.582755"
       d="m 93.535134,78.133295 c 3.460546,0 5.554393,1.857699 5.554393,4.927248 0,1.677632 -0.219153,2.065824 -1.16551,2.065824 -0.845569,0 -1.165513,-0.389152 -1.165513,-1.415915 0,-2.696163 -2.679914,-4.036284 -5.283498,-2.642888 -0.780083,0.417487 -1.126818,1.221748 -1.126818,2.613294 0,1.870251 0.241308,2.132933 3.454425,3.754907 1.899977,0.959106 3.866779,2.332096 4.37067,3.051501 1.488971,2.125801 1.165297,4.968437 -0.787629,6.921363 -2.298646,2.298646 -6.365763,2.429078 -8.521669,0.273168 -1.875006,-1.875006 -2.049787,-5.562359 -0.264065,-5.562359 0.845567,0 1.165513,0.388017 1.165513,1.414774 0,2.696167 2.678778,4.037427 5.282368,2.644029 0.780083,-0.417488 1.127948,-1.222885 1.127948,-2.614431 0,-1.870251 -0.241302,-2.132926 -3.454421,-3.754907 -3.984167,-2.011201 -5.286918,-3.567176 -5.286918,-6.314708 0,-3.038226 2.643793,-5.3609 6.100724,-5.3609 z"
       id="path991" />
  </g>
</svg>
