<?xml version="1.0" encoding="UTF-8" standalone="no"?>
<svg
   xmlns:dc="http://purl.org/dc/elements/1.1/"
   xmlns:cc="http://creativecommons.org/ns#"
   xmlns:rdf="http://www.w3.org/1999/02/22-rdf-syntax-ns#"
   xmlns:svg="http://www.w3.org/2000/svg"
   xmlns="http://www.w3.org/2000/svg"
   xmlns:sodipodi="http://sodipodi.sourceforge.net/DTD/sodipodi-0.dtd"
   xmlns:inkscape="http://www.inkscape.org/namespaces/inkscape"
   version="1.1"
   id="svg2"
   xml:space="preserve"
   width="3488"
   height="3488"
   viewBox="0 0 3488 3488"
   sodipodi:docname="Transparent_Circle_RA.eps"
   inkscape:version="1.0.2 (1.0.2+r75+1)"><metadata
     id="metadata8"><rdf:RDF><cc:Work
         rdf:about=""><dc:format>image/svg+xml</dc:format><dc:type
           rdf:resource="http://purl.org/dc/dcmitype/StillImage" /><dc:title></dc:title></cc:Work></rdf:RDF></metadata><defs
     id="defs6" /><sodipodi:namedview
     pagecolor="#ffffff"
     bordercolor="#666666"
     borderopacity="1"
     objecttolerance="10"
     gridtolerance="10"
     guidetolerance="10"
     inkscape:pageopacity="0"
     inkscape:pageshadow="2"
     inkscape:window-width="1641"
     inkscape:window-height="1044"
     id="namedview4"
     showgrid="false"
     inkscape:zoom="0.25401376"
     inkscape:cx="822.79007"
     inkscape:cy="1744"
     inkscape:window-x="271"
     inkscape:window-y="4"
     inkscape:window-maximized="0"
     inkscape:current-layer="g10" /><g
     id="g10"
     inkscape:groupmode="layer"
     inkscape:label="ink_ext_XXXXXX"
     transform="matrix(1.3333333,0,0,-1.3333333,0,3488)"><g
       id="g12"
       transform="scale(0.1)"><g
         id="g14"
         transform="scale(1.25681)"><path
           d="m 7016.79,5753.2 v 74.82 l 292.93,-62.54 c 161.12,-34.4 304.65,-67.13 318.98,-72.72 14.33,-5.63 -117.48,-11.13 -292.93,-12.28 l -318.98,-2.05 z m 742.11,-19.45 c -278.83,50.25 -551.15,104.92 -644.49,129.39 l -97.62,25.6 v 336.51 l 227.82,-1.61 c 125.32,-0.9 345.05,-21.66 488.27,-46.18 l 260.39,-44.6 7.56,-214.21 c 8.58,-243.27 22.6,-232.58 -241.93,-184.9 z m 123.7,483.43 c 25.05,6.55 66.08,6.55 91.12,0 25.09,-6.56 4.58,-11.9 -45.56,-11.9 -50.13,0 -70.61,5.34 -45.56,11.9 z m -5602.81,2735.78 2.3,2363.14 90.32,-286.5 c 214.15,-679 459.74,-1250.21 748.45,-1740.76 l 146.17,-248.36 V 6589.84 h -989.51 z m 4672.66,-2278.5 c -19.58,46.53 -60.29,141.95 -90.44,212.01 -30.18,70.06 -50.58,131.66 -45.29,136.94 5.26,5.25 113.76,-39.26 241.09,-98.94 127.37,-59.67 366.51,-158.94 531.42,-220.57 l 299.87,-112.07 -901.03,-1.99 z m 8258.35,101.42 c -24.6,102.35 -40.3,190.43 -35,195.75 5.4,5.34 125.7,-36.64 267.5,-93.28 141.8,-56.66 392.5,-144.21 557.2,-194.56 l 299.5,-91.59 -1044.6,-2.36 z m -7530.01,-44.44 c -313.85,113.25 -591.77,232.33 -780.12,334.27 l -155.15,83.98 -150.81,349.69 c -82.95,192.35 -150.8,353.23 -150.8,357.48 0,4.29 73.23,-39.96 162.74,-98.36 89.51,-58.37 344.37,-193.57 566.35,-300.46 222.01,-106.89 432.11,-208.27 466.95,-225.3 44.69,-21.88 96.51,-107.11 176.23,-289.99 62.1,-142.44 109.78,-267.29 105.95,-277.42 -3.85,-10.16 -112.45,19.61 -241.34,66.11 z m 8463.01,-33.66 c -43,14.17 -189.5,61.85 -325.5,105.95 -136.1,44.11 -343.9,120.6 -461.9,169.98 -206.8,86.53 -215.5,93.61 -242.4,197.96 -15.3,59.51 -50.6,193.29 -78.4,297.28 -27.9,103.99 -50.6,199.04 -50.6,211.19 0,12.15 126,-40.99 279.9,-118.14 154,-77.1 414.7,-190.39 579.4,-251.75 l 299.5,-111.55 69.1,-265.39 c 73,-279.76 72.3,-282.09 -69.1,-235.53 z m -5704.4,673.88 -313.7,664.64 155.5,500.45 155.6,500.47 168.1,-318.8 c 92.5,-175.36 243.9,-439.6 336.6,-587.23 123.3,-196.56 164.2,-283.75 152.8,-325.52 -8.6,-31.39 -88.9,-291.44 -178.4,-577.88 L 10753.2,6707 Z m 5430.9,-11.43 c -245.1,87.46 -733.4,312.89 -841,388.29 -50.6,35.4 -7.2,39.13 453.8,39.13 h 509.8 l 68.2,-252.47 c 37.4,-138.87 65.5,-254.89 62.4,-257.84 -3.2,-2.95 -117.1,34.34 -253.2,82.89 z m -8306.68,-34.81 c -242.55,108.06 -728,359.94 -928.6,481.84 l -238.54,144.93 -162.27,379.93 c -89.23,208.98 -179,419.62 -199.45,468.08 l -37.17,88.11 63.56,-49.05 c 34.97,-26.98 144.19,-115.28 242.68,-196.21 228.01,-187.32 645.23,-464.28 886.54,-588.51 l 187.11,-96.29 142.72,-332.68 c 78.51,-182.98 135.05,-331.88 125.63,-330.92 -9.42,1 -46.41,14.82 -82.21,30.77 z m 3395.28,885.39 c -193.9,312.76 -478.8,858.01 -478.8,916.44 0,79.7 164.6,589.45 183.6,568.43 10,-11.06 72.8,-149.03 139.5,-306.57 66.8,-157.55 203.4,-436.38 303.6,-619.59 l 182.2,-333.19 -70,-233.2 c -38.4,-128.27 -79.1,-233.19 -90.4,-233.19 -11.2,0 -87.6,108.37 -169.7,240.87 z m -3878.12,-30.52 c -281.84,157.21 -607.1,387.45 -910.69,644.71 -289.02,244.91 -350.53,363.2 -350.9,674.78 l -0.25,214.83 462.2,-2.61 c 254.21,-1.42 437.06,-10.19 406.31,-19.51 -54.23,-16.44 -51.46,-26.95 92.6,-355.47 191.05,-435.57 191.46,-436.71 151.79,-413.38 -115.83,68.14 -383.06,292.75 -610.2,512.9 -146.02,141.54 -278.92,252.83 -295.36,247.37 -43.39,-14.45 498.26,-528.9 761.91,-723.65 l 225.24,-166.35 158.64,-363.51 c 87.24,-199.95 154.87,-367.28 150.3,-371.88 -4.57,-4.58 -113.29,50.22 -241.59,121.77 z m 4077.32,610.67 c -153.4,276.71 -399.1,813.87 -442.5,967.11 -25.3,89.2 -16.4,136.84 84.1,449.93 l 112.4,350.2 60.9,-207 c 85.4,-289.9 260.1,-736.23 400,-1021.92 l 118.6,-242.12 -81.7,-272.17 c -45,-149.69 -89.1,-272.18 -98.1,-272.18 -9,0 -78.2,111.68 -153.7,248.15 z m -8039.72,613.22 c -301.42,545.15 -520.7,1069.62 -706.84,1690.52 l -120.99,403.6 V 13256 c 0,1330.9 7.74,1775.1 31.89,1829.3 30.7,69 39.19,71.6 227.84,71.6 223.19,0 215.89,11.2 157.83,-239.2 -354.35,-1528.5 -178.83,-3302.6 466.8,-4717.7 l 93.37,-204.61 -7.12,-418.28 -7.14,-418.24 z m 8226.12,121.65 c -174.9,399.67 -257.9,624.27 -343.3,929.17 l -57.8,206.6 139.4,450.6 c 133.3,430.7 178.5,528.5 178.5,386.3 0,-224.5 200.5,-1019.5 361.3,-1432.4 44.6,-114.52 81.2,-230.05 81.2,-256.72 0.2,-50.47 -178.4,-641.59 -193.8,-641.59 -4.8,0 -79.3,161.12 -165.5,358.04 z m 3120.2,190.8 -17.5,70.62 c -9.7,38.82 -60,236.35 -111.8,438.95 l -94.3,368.3 522.7,2055.9 348.9,-1383.3 c 191.9,-760.8 359.7,-1422.44 372.9,-1470.4 19.3,-70.12 34.3,-84.45 76.8,-73.38 29,7.58 48,9.14 42.4,3.48 -5.7,-5.69 -367.2,-13.71 -803.3,-17.78 -291.2,3.23 -336.8,7.61 -336.8,7.61 z m -2807,408.17 c -157.1,412.8 -284,924.3 -345.2,1391.6 l -29.7,226.5 294.9,950 c 162.2,522.5 297.2,947.7 300,944.9 2.8,-2.8 -19.5,-139.7 -49.7,-304.1 -45.8,-249.8 -55.2,-406.2 -56.9,-950 -2.2,-696.7 21.5,-919.9 154.3,-1456.2 l 64,-258.4 -118,-373.1 c -65,-205.2 -122.3,-373.08 -127.5,-373.08 -5.1,0 -43.9,90.78 -86.2,201.88 z m -8538.83,358 c -367.03,919.6 -528.89,1768.2 -528.89,2773.2 0,642.2 77.01,1309.1 206.84,1791.2 l 29.53,109.7 h 220.36 c 121.18,0 220.32,-4.8 220.32,-10.7 0,-5.8 -28.31,-131.8 -62.93,-279.9 -247.77,-1060 -248.31,-2132.8 -1.59,-3211.8 61.48,-268.9 65.09,-324 58.5,-898.4 l -6.99,-611.8 z m 8888.13,345.7 c -8.1,13.1 -43.9,169.1 -79.6,346.8 -252.4,1256.3 -99.6,2540.5 438,3680.3 l 142.2,301.3 h 277.4 c 152.6,0 273.5,-9.3 268.7,-20.7 -4.8,-11.4 -87,-178.4 -182.7,-371.1 -413.3,-832.3 -578.1,-1576.9 -564.2,-2550.7 l 7.3,-507.7 -138.7,-442.7 c -76.2,-243.5 -142,-446.4 -146.2,-450.9 -4.1,-4.6 -14.2,2.4 -22.2,15.4 z m -5391.99,848.1 c 252.81,119.5 401.78,389.9 401.78,729.5 0,240.1 -53.96,398.5 -187.23,549.9 -167.09,189.8 -215.88,206.7 -646.08,223.5 -281.55,11 -164.41,16 460.68,19.6 580.43,3.4 843.65,-3.9 855.75,-23.4 9.63,-15.6 39.62,-22.6 66.67,-15.5 27.06,7.1 42.91,2.7 35.27,-9.7 -7.65,-12.3 21.13,-40.5 63.93,-62.7 112.01,-57.9 256.88,-260.5 305.22,-426.7 53.58,-184.4 36.33,-440.4 -41.87,-621.5 -56.32,-130.4 -277.08,-372 -339.9,-372 -15.79,0 -22.47,-10 -14.89,-22.3 7.59,-12.3 -234.87,-24.3 -538.78,-26.8 l -552.61,-4.3 z m -3380.85,62.6 c -140.99,791.5 -177.2,1265.8 -145.4,1904.6 17.28,347.8 87.96,876.6 149.96,1122.6 14.11,55.9 23.99,-525 25.65,-1503.8 1.46,-877.3 -1.87,-1595 -7.4,-1595 -5.53,0 -15.82,32.2 -22.81,71.6 z m 9128.94,709.6 c 7.7,279.3 32.8,619.1 55.7,755.2 107.7,638.1 327.9,1259.7 634.2,1790.2 92.3,159.8 96,162.7 205.7,162.7 63.9,0 111.8,-12.2 111.8,-28.6 0,-56.1 -969.5,-3135.7 -995.2,-3161.2 -17.6,-17.5 -21.6,141.2 -12.2,481.7 z m -4274.59,-104.1 c 0,35.8 5.93,50.4 13.15,32.5 7.21,-17.9 7.21,-47.2 0,-65.1 -7.22,-17.9 -13.15,-3.2 -13.15,32.6 z m 0,130.1 c 0,35.9 5.93,50.5 13.15,32.6 7.21,-17.9 7.21,-47.2 0,-65.1 -7.22,-17.9 -13.15,-3.3 -13.15,32.5 z m -241.77,540.4 c -32.39,41.3 -31.5,42.2 9.81,9.8 25.09,-19.7 45.57,-40.2 45.57,-45.6 0,-21.4 -21.39,-7.6 -55.38,35.8 z m 4367.06,1699.1 c 70.5,298.9 159.1,485.4 207.7,436.9 6.7,-6.7 -40.7,-122.4 -105.4,-257.1 -64.7,-134.7 -110.7,-215.6 -102.3,-179.8 z"
           style="fill:#e61e85;fill-opacity:1;fill-rule:nonzero;stroke:none"
           id="path16" /></g><g
         id="g18"
         transform="scale(1.60491)"><path
           d="M 7707.41,4.40543 C 4730.21,193.525 2152.43,1891.78 844.236,4525.86 416.834,5386.46 153.024,6287.94 37.5776,7282.16 c -49.1169,423.06 -49.1169,1310.23 0,1733.3 C 257,10905.4 1053.29,12573.8 2364.5,13890.8 c 179.55,180.4 413.65,400.1 520.21,488.2 1287.33,1065.1 2740.27,1686 4394.47,1878.1 423.07,49.1 1310.24,49.1 1733.31,0 991.11,-115.1 1842.81,-362.3 2712.11,-787.2 1237.1,-604.8 2272.6,-1484.9 3083.2,-2620.8 1257,-1761.2 1757.6,-4064.76 1349.6,-6209.31 C 15760.7,4554.71 14588.2,2730.08 12846.2,1486.85 12193.5,1021.01 11307.8,587.48 10521.5,348.905 10051.9,206.422 9525.32,99.0857 9022.69,43.3485 8736.53,11.6342 7957.09,-11.4395 7707.41,4.40543 Z M 9083.88,571.903 C 11104,844.336 12864.8,1829.35 14102.4,3379.31 c 890.9,1115.69 1423.9,2380.83 1622.7,3851.85 53.2,393.86 53.2,1441.43 0,1835.29 -299.7,2217.15 -1411.8,4068.75 -3205.2,5336.35 -945.4,668.2 -2110.9,1130.8 -3272.9,1299.2 -584.19,84.6 -1492.76,95.4 -2035.02,24.1 C 4683.8,15393.5 2543.03,13905.3 1374.61,11668.1 953.082,10861 672.593,9944.23 556.786,8995.06 c -36.85,-302 -36.85,-1390.53 0,-1692.53 C 868.673,4746.28 2358,2568.17 4597.93,1392.41 5509.32,913.996 6435.09,646.381 7564.66,534.761 7781.7,513.32 8841.63,539.239 9083.88,571.903 Z M 6344.55,4451.05 c -7.49,7.49 -13.6,103.83 -13.6,214.13 v 200.51 H 10348.2 V 4437.46 H 8353.16 c -1097.27,0 -2001.14,6.11 -2008.61,13.59 z M 2640,8495.47 v 3344.33 l 1972.93,-0.3 c 1846.89,-0.3 1984.73,-2.7 2157.61,-38.4 454.3,-93.8 872.42,-357.1 1121.68,-706.4 126.47,-177.2 266.03,-480.9 329.78,-717.5 48.92,-181.5 53.72,-233.2 53.72,-576.65 0,-345.35 -4.63,-394.49 -54.84,-581.17 -142.85,-531.11 -467.96,-954.74 -903.31,-1177.08 -93.93,-47.97 -170.79,-92.2 -170.84,-98.31 -0.05,-6.11 193.47,-419.02 430.03,-917.64 635.21,-1338.7 874.95,-1849.16 874.95,-1862.91 0,-6.75 -480.31,-12.25 -1067.38,-12.25 H 6316.97 l -528.31,1223.47 -528.28,1223.47 -351.78,0.05 -351.75,0.04 V 5151.19 H 2640 Z m 3374.87,629.42 c 101.04,46 225.46,181.38 281.34,306.12 60.64,135.33 60.48,403.93 -0.29,537.44 -66.57,146.25 -137.3,227.25 -255.46,292.75 l -107.15,59.3 -688.24,6.4 -688.22,6.3 V 9086.83 l 688.22,0.46 c 621.75,0.39 696.1,4.04 769.8,37.6 z M 8476.78,5176.68 c 4.99,14.02 476.15,1523.62 1047.06,3354.65 l 1037.96,3329.17 1069.4,-5.3 1069.4,-5.2 1015.4,-3252.57 c 558.4,-1788.9 1028.3,-3296.12 1044.2,-3349.39 l 29,-96.85 h -1946.8 l -118.2,469.19 -118.2,469.22 -1009.5,-5.28 -1009.6,-5.31 -108.2,-418.03 c -59.5,-229.91 -113.4,-438.69 -119.8,-463.91 l -11.5,-45.88 h -939.83 c -743.09,0 -937.92,5.33 -930.79,25.49 z m 3730.52,2421.84 c 21.3,-0.46 -583.8,2371.7 -607,2379.42 -11.3,3.77 -36.4,-59.83 -55.7,-141.34 -19.4,-81.51 -154.2,-612.58 -299.7,-1180.15 -145.5,-567.57 -264.6,-1041.38 -264.6,-1052.94 0,-14.15 198.5,-18.35 606.7,-12.86 333.7,4.48 612.8,8.04 620.3,7.87 z"
           style="fill:#010101;fill-opacity:1;fill-rule:nonzero;stroke:none"
           id="path20" /></g></g></g></svg>
