<?xml version="1.0" encoding="UTF-8" standalone="no"?>
<svg
   xmlns:dc="http://purl.org/dc/elements/1.1/"
   xmlns:cc="http://creativecommons.org/ns#"
   xmlns:rdf="http://www.w3.org/1999/02/22-rdf-syntax-ns#"
   xmlns:svg="http://www.w3.org/2000/svg"
   xmlns="http://www.w3.org/2000/svg"
   xmlns:sodipodi="http://sodipodi.sourceforge.net/DTD/sodipodi-0.dtd"
   xmlns:inkscape="http://www.inkscape.org/namespaces/inkscape"
   width="76.12616mm"
   height="66.680901mm"
   viewBox="0 0 76.12616 66.680901"
   version="1.1"
   id="svg963"
   inkscape:version="1.0.2 (1.0.2+r75+1)"
   sodipodi:docname="work2.svg">
  <defs
     id="defs957">
    <clipPath
       clipPathUnits="userSpaceOnUse"
       id="clipPath1643">
      <rect
         style="fill:#a0aecb;fill-opacity:0.582976;stroke:none;stroke-width:1.165;stroke-linecap:round;stroke-linejoin:round;stroke-miterlimit:4;stroke-dasharray:none;stroke-opacity:1;paint-order:markers stroke fill"
         id="rect1645"
         width="15.326548"
         height="14.786684"
         x="91.874664"
         y="103.38724" />
    </clipPath>
    <filter
       style="color-interpolation-filters:sRGB"
       inkscape:label="Blur"
       id="filter3001">
      <feGaussianBlur
         stdDeviation="0.1 0.21"
         result="blur"
         id="feGaussianBlur2999" />
    </filter>
  </defs>
  <sodipodi:namedview
     id="base"
     pagecolor="#ffffff"
     bordercolor="#666666"
     borderopacity="1.0"
     inkscape:pageopacity="0.0"
     inkscape:pageshadow="2"
     inkscape:zoom="0.5"
     inkscape:cx="91.14214"
     inkscape:cy="-5.2225993"
     inkscape:document-units="mm"
     inkscape:current-layer="layer1"
     inkscape:document-rotation="0"
     showgrid="false"
     showguides="true"
     inkscape:guide-bbox="true"
     inkscape:snap-smooth-nodes="false"
     inkscape:window-width="1920"
     inkscape:window-height="1056"
     inkscape:window-x="0"
     inkscape:window-y="0"
     inkscape:window-maximized="0" />
  <metadata
     id="metadata960">
    <rdf:RDF>
      <cc:Work
         rdf:about="">
        <dc:format>image/svg+xml</dc:format>
        <dc:type
           rdf:resource="http://purl.org/dc/dcmitype/StillImage" />
        <dc:title></dc:title>
      </cc:Work>
    </rdf:RDF>
  </metadata>
  <g
     inkscape:label="Layer 1"
     inkscape:groupmode="layer"
     id="layer1"
     transform="translate(-66.394972,-80.250004)">
    <path
       style="fill:#acb7d0;fill-opacity:1;stroke:#8d6c9f;stroke-width:4.76777;stroke-linecap:round;stroke-linejoin:round;stroke-miterlimit:4;stroke-dasharray:none;stroke-opacity:1;paint-order:markers stroke fill"
       d="M 111.69857,137.41518 H 99.468704 v 7.13184 h 23.806326 l -2.64178,-2.57782 h -14.90272 c -0.48132,0 -1.02102,-0.52662 -1.02104,-0.99628 0,-0.46794 0.53772,-0.99266 1.0173,-0.99266 h 6.00515 z"
       id="path1590"
       sodipodi:nodetypes="cccccssscc" />
    <path
       id="rect1897"
       style="fill:#cfd9ed;fill-opacity:1;stroke:none;stroke-width:2.60773;stroke-linecap:round;stroke-linejoin:round;stroke-miterlimit:4;stroke-dasharray:none;stroke-opacity:1;paint-order:normal"
       d="m 99.819434,131.99084 v 1.65411 c 1.4e-4,0.76526 0.620476,1.38559 1.385746,1.38575 h 37.54714 c 0.76526,-1.6e-4 1.38559,-0.62049 1.38575,-1.38575 v -1.65411 z" />
    <path
       id="path1578"
       style="fill:#c2cde7;fill-opacity:1;stroke:#8d6c9f;stroke-width:4.76683;stroke-linecap:round;stroke-opacity:1;paint-order:markers stroke fill"
       d="m 101.16239,92.268901 c -0.74887,0 -1.343176,0.63691 -1.342946,1.38577 V 133.6453 c 1.5e-4,0.76526 0.620476,1.38559 1.385746,1.38574 h 37.54678 c 0.76526,-1.5e-4 1.38559,-0.62048 1.38575,-1.38574 V 93.654671 c -1.4e-4,-0.76527 -0.62046,-1.38577 -1.38575,-1.38577 h -0.0439 -37.50282 c -0.0143,-2.2e-4 -0.0285,0 -0.0428,0 z"
       sodipodi:nodetypes="sccccccsccss" />
    <g
       id="g1835"
       transform="matrix(2.2383904,0,0,2.2383904,-155.78872,-137.17446)">
      <rect
         style="fill:#e3f2ff;fill-opacity:1;stroke:none;stroke-width:1.165;stroke-linecap:round;stroke-linejoin:round;stroke-miterlimit:4;stroke-dasharray:none;stroke-opacity:1;paint-order:markers stroke fill"
         id="rect1623"
         width="15.326548"
         height="14.786684"
         x="115.16348"
         y="104.09209" />
      <g
         id="g1639"
         clip-path="url(#clipPath1643)"
         style="fill:#c5e4fa;fill-opacity:1"
         transform="translate(23.288826,0.70484924)">
        <rect
           style="fill:#c5e4fa;fill-opacity:1;stroke:none;stroke-width:2.18474;stroke-linecap:round;stroke-linejoin:round;stroke-miterlimit:4;stroke-dasharray:none;stroke-opacity:1;paint-order:markers stroke fill"
           id="rect1625"
           width="28.686182"
           height="1.6238734"
           x="-20.567884"
           y="147.50171"
           transform="rotate(-45)" />
        <rect
           style="fill:#c5e4fa;fill-opacity:1;stroke:none;stroke-width:2.18474;stroke-linecap:round;stroke-linejoin:round;stroke-miterlimit:4;stroke-dasharray:none;stroke-opacity:1;paint-order:markers stroke fill"
           id="rect1627"
           width="28.686182"
           height="1.6238734"
           x="-21.359062"
           y="143.58092"
           transform="rotate(-45)" />
        <rect
           style="fill:#c5e4fa;fill-opacity:1;stroke:none;stroke-width:2.04214;stroke-linecap:round;stroke-linejoin:round;stroke-miterlimit:4;stroke-dasharray:none;stroke-opacity:1;paint-order:markers stroke fill"
           id="rect1631"
           width="9.6948185"
           height="4.1981206"
           x="-13.179873"
           y="137.53944"
           transform="rotate(-45)" />
        <rect
           style="fill:#c5e4fa;fill-opacity:1;stroke:none;stroke-width:2.04214;stroke-linecap:round;stroke-linejoin:round;stroke-miterlimit:4;stroke-dasharray:none;stroke-opacity:1;paint-order:markers stroke fill"
           id="rect1633"
           width="9.6948185"
           height="4.1981206"
           x="-12.674484"
           y="155.1902"
           transform="rotate(-45)" />
      </g>
    </g>
    <g
       id="g1844"
       transform="matrix(2.2383904,0,0,2.2383904,-103.65923,-135.59673)">
      <path
         style="fill:#fff8f8;fill-opacity:1;stroke-width:0.234138"
         d="m 95.319122,109.34561 c -0.127613,0 -0.255266,0.15599 -0.35232,0.46779 -0.08343,0.26801 -0.403688,0.60419 -0.711428,0.74718 -0.685522,0.3185 -0.712294,0.57582 -0.0815,0.77997 0.26283,0.0851 0.592502,0.41117 0.732714,0.72501 0.312349,0.69904 0.564224,0.7268 0.764419,0.0835 0.08343,-0.268 0.403691,-0.60466 0.711438,-0.74763 0.30775,-0.14299 0.559726,-0.33194 0.559726,-0.42023 0,-0.0883 -0.251976,-0.27771 -0.559726,-0.4207 -0.307747,-0.14299 -0.628018,-0.47917 -0.711438,-0.74718 -0.09705,-0.3118 -0.224252,-0.46779 -0.351871,-0.46779 z"
         id="path3050" />
      <path
         style="fill:#fff8f8;fill-opacity:1;stroke-width:0.149447"
         d="m 102.1925,105.79914 c -0.0794,0 -0.15893,0.10208 -0.21935,0.30611 -0.0519,0.17538 -0.25134,0.39537 -0.44293,0.48894 -0.4268,0.20842 -0.44346,0.37681 -0.0507,0.5104 0.16363,0.0557 0.36888,0.26906 0.45618,0.47443 0.19446,0.45743 0.35128,0.4756 0.47591,0.0546 0.0519,-0.17538 0.25134,-0.39568 0.44294,-0.48923 0.1916,-0.0936 0.34848,-0.21722 0.34848,-0.27499 0,-0.0578 -0.15688,-0.18173 -0.34848,-0.2753 -0.1916,-0.0936 -0.391,-0.31356 -0.44294,-0.48894 -0.0604,-0.20403 -0.13961,-0.30611 -0.21907,-0.30611 z"
         id="path1837" />
      <path
         style="fill:#fff8f8;fill-opacity:1;stroke-width:0.125663"
         d="m 103.96899,114.8721 c -0.0668,0 -0.13367,0.0858 -0.18449,0.25733 -0.0436,0.14743 -0.21139,0.33236 -0.37253,0.41102 -0.35896,0.17521 -0.37298,0.31677 -0.0426,0.42907 0.13762,0.0468 0.31025,0.22618 0.38367,0.39883 0.16356,0.38453 0.29545,0.39981 0.40027,0.0459 0.0436,-0.14743 0.21139,-0.33262 0.37254,-0.41126 0.16115,-0.0787 0.29309,-0.18261 0.29309,-0.23117 0,-0.0486 -0.13194,-0.15277 -0.29309,-0.23143 -0.16115,-0.0787 -0.32885,-0.2636 -0.37254,-0.41103 -0.0508,-0.17152 -0.11742,-0.25733 -0.18425,-0.25733 z"
         id="path1839" />
    </g>
    <path
       style="fill:none;stroke:#8d6c9f;stroke-width:2.60772;stroke-linecap:round;stroke-linejoin:round;stroke-miterlimit:4;stroke-dasharray:none;stroke-opacity:1"
       d="m 105.74006,95.848041 h 4.64249"
       id="path1599" />
    <path
       style="fill:none;stroke:#8d6c9f;stroke-width:2.60772;stroke-linecap:round;stroke-linejoin:round;stroke-miterlimit:4;stroke-dasharray:none;stroke-opacity:1"
       d="m 114.98425,95.848041 h 21.31467 v 33.074589 h -6.61187"
       id="path1601" />
    <path
       style="fill:none;stroke:#8d6c9f;stroke-width:2.60772;stroke-linecap:round;stroke-linejoin:round;stroke-miterlimit:4;stroke-dasharray:none;stroke-opacity:1"
       d="m 102.07661,128.93481 h 4.64249"
       id="path1607" />
    <path
       style="fill:none;stroke:#dc8f96;stroke-width:2.60772;stroke-linecap:round;stroke-linejoin:round;stroke-miterlimit:4;stroke-dasharray:none;stroke-opacity:1"
       d="m 112.75208,128.04744 v 2.39889"
       id="path1609" />
    <path
       style="fill:none;stroke:#99ada1;stroke-width:2.60772;stroke-linecap:round;stroke-linejoin:round;stroke-miterlimit:4;stroke-dasharray:none;stroke-opacity:1"
       d="m 118.54407,128.04744 v 2.39889"
       id="path1611" />
    <path
       style="fill:none;stroke:#a7a6b9;stroke-width:2.60772;stroke-linecap:round;stroke-linejoin:round;stroke-miterlimit:4;stroke-dasharray:none;stroke-opacity:1"
       d="m 124.62547,128.04744 v 2.39889"
       id="path1613" />
    <path
       id="rect1567"
       style="fill:#c2cde7;fill-opacity:1;stroke:#8d6c9f;stroke-width:4.76683;stroke-linecap:round;stroke-opacity:1;paint-order:markers stroke fill"
       d="m 70.121334,82.633584 a 1.386009,1.386009 0 0 0 -1.342947,1.385757 v 59.141939 a 1.386009,1.386009 0 0 0 1.385749,1.38577 h 28.270248 a 1.386009,1.386009 0 0 0 1.38574,-1.38577 V 84.019341 a 1.386009,1.386009 0 0 0 -1.38574,-1.385757 h -0.0439 -28.226288 a 1.386009,1.386009 0 0 0 -0.0428,0 z" />
    <path
       style="fill:none;stroke:#8d6c9f;stroke-width:2.60772;stroke-linecap:round;stroke-linejoin:round;stroke-miterlimit:4;stroke-dasharray:none;stroke-opacity:1"
       d="M 76.080829,95.848041 H 92.666064"
       id="path1869" />
    <path
       style="fill:none;stroke:#8d6c9f;stroke-width:2.60772;stroke-linecap:round;stroke-linejoin:round;stroke-miterlimit:4;stroke-dasharray:none;stroke-opacity:1"
       d="M 76.080829,100.43766 H 92.666064"
       id="path1871" />
    <path
       id="path1580"
       style="fill:#a0aecb;fill-opacity:1;stroke:none;stroke-width:0.585023px;stroke-linecap:butt;stroke-linejoin:miter;stroke-opacity:1"
       d="m 102.21565,137.41475 v 3.75631 h 2.52396 c -0.0195,-0.0663 -0.0324,-0.13296 -0.0324,-0.19855 0,-0.46793 0.53834,-0.99212 1.01792,-0.99212 h 6.00453 l -0.0335,-2.56555 z" />
    <path
       style="fill:#000000;stroke-width:0.264583"
       id="path2827"
       d="" />
    <path
       style="fill:#000000;stroke-width:0.264583"
       id="path2825"
       d="" />
    <path
       id="path1846"
       style="fill:#b5c4e0;fill-opacity:1;stroke:none;stroke-width:4.76683;stroke-linecap:round;paint-order:markers stroke fill"
       d="m 70.121334,138.3065 c -0.748867,0 -1.343171,0.63689 -1.342947,1.38574 v 3.46904 c 1.34e-4,0.76528 0.620475,1.38563 1.385749,1.38577 h 28.270248 c 0.76527,-1.6e-4 1.38561,-0.62049 1.38574,-1.38577 v -3.46904 c -1.4e-4,-0.76526 -0.62047,-1.38574 -1.38574,-1.38574 h -0.0439 -28.226288 c -0.01433,-2.2e-4 -0.02854,0 -0.0428,0 z"
       sodipodi:nodetypes="sccccccsccss" />
    <path
       id="rect1848"
       style="fill:#ced8ed;fill-opacity:1;stroke:none;stroke-width:2.60772;stroke-linecap:round;stroke-linejoin:round;stroke-miterlimit:4;stroke-dasharray:none;stroke-opacity:1;paint-order:markers stroke fill"
       d="m 70.120969,82.633584 a 1.386009,1.386009 0 0 0 -1.342954,1.385757 v 3.78825 h 31.041749 v -3.78825 a 1.386009,1.386009 0 0 0 -1.38575,-1.385757 h -0.0439 -28.226294 a 1.386009,1.386009 0 0 0 -0.04282,0 z" />
    <path
       style="fill:none;stroke:#8d6c9f;stroke-width:2.60772;stroke-linecap:round;stroke-linejoin:round;stroke-miterlimit:4;stroke-dasharray:none;stroke-opacity:1"
       d="m 72.379449,136.23648 v 2.39889"
       id="path1887" />
    <path
       style="fill:none;stroke:#8d6c9f;stroke-width:2.60772;stroke-linecap:round;stroke-linejoin:round;stroke-miterlimit:4;stroke-dasharray:none;stroke-opacity:1"
       d="m 78.318816,136.23648 v 2.39889"
       id="path1889" />
    <path
       style="fill:none;stroke:#8d6c9f;stroke-width:2.60772;stroke-linecap:round;stroke-linejoin:round;stroke-miterlimit:4;stroke-dasharray:none;stroke-opacity:1"
       d="m 84.150813,136.23648 v 2.39889"
       id="path1891" />
    <path
       style="fill:none;stroke:#8d6c9f;stroke-width:2.60772;stroke-linecap:round;stroke-linejoin:round;stroke-miterlimit:4;stroke-dasharray:none;stroke-opacity:1"
       d="m 90.116143,136.23648 v 2.39889"
       id="path1893" />
    <path
       style="fill:none;stroke:#8d6c9f;stroke-width:2.60772;stroke-linecap:round;stroke-linejoin:round;stroke-miterlimit:4;stroke-dasharray:none;stroke-opacity:1"
       d="m 95.952114,136.23648 v 2.39889"
       id="path1895" />
    <circle
       style="fill:#f283a5;fill-opacity:1;stroke:#8d6c9f;stroke-width:1.90789;stroke-linecap:round;stroke-linejoin:round;stroke-miterlimit:4;stroke-dasharray:none;stroke-opacity:1;paint-order:normal"
       id="path1873"
       cx="77.097145"
       cy="125.35006"
       r="2.7375689" />
    <circle
       style="fill:#34c695;fill-opacity:1;stroke:#8d6c9f;stroke-width:1.90789;stroke-linecap:round;stroke-linejoin:round;stroke-miterlimit:4;stroke-dasharray:none;stroke-opacity:1;paint-order:normal"
       id="circle1875"
       cx="86.825584"
       cy="125.35006"
       r="2.7375689" />
  </g>
</svg>
